<svg width="37px" height="37px" viewBox="0 0 37 37" version="1.1" xmlns="http://www.w3.org/2000/svg" xmlns:xlink="http://www.w3.org/1999/xlink">
    <g id="Detail" stroke="none" stroke-width="1" fill="none" fill-rule="evenodd">
        <g id="Detail-Paylas-2" transform="translate(-561.000000, -317.000000)">
            <g id="Group-30" transform="translate(561.000000, 244.000000)">
                <g id="Group-42" transform="translate(0.000000, 73.000000)">
                    <circle id="Oval" fill="#E2E2E2" fill-rule="nonzero" cx="18.5" cy="18.5" r="18.5"></circle>
                    <path d="M26,11 C27.1045695,11 28,11.8954305 28,13 L28,24 C28,25.1045695 27.1045695,26 26,26 L11,26 C9.8954305,26 9,25.1045695 9,24 L9,13 C9,11.8954305 9.8954305,11 11,11 L26,11 Z M11,13 L11,15.2597656 L18.441,19.962 L18.5,20.0416309 L26,15.2597656 L26,13.0234375 L18.529,17.669 L11,13 Z" id="Combined-Shape" fill="#FFFFFF"></path>
                </g>
            </g>
        </g>
    </g>
</svg>