<?xml version="1.0" encoding="UTF-8"?>
<svg width="30px" height="29px" viewBox="0 0 30 29" version="1.1" xmlns="http://www.w3.org/2000/svg" xmlns:xlink="http://www.w3.org/1999/xlink">
    <!-- Generator: Sketch 52.6 (67491) - http://www.bohemiancoding.com/sketch -->
    <title>Shape</title>
    <desc>Created with Sketch.</desc>
    <g id="Home" stroke="none" stroke-width="1" fill="none" fill-rule="evenodd">
        <path d="M26.0869565,11.7391304 L27.3913043,11.7391304 L30,15.6521739 L27.3913043,19.5652174 L26.0869565,19.5652174 L26.0869565,20.8695652 L28.6956522,20.8695652 L28.6956522,28.6956522 L1.30434783,28.6956522 L1.30434783,22.0421514 C2.05320066,22.8063483 2.93529813,23.4394832 3.91304348,23.9039594 L3.91304348,26.0869565 L26.0869565,26.0869565 L26.0843275,19.5652174 L23.4782609,19.5652174 L22.19473,18.2608696 L20.8695652,19.5652174 L19.5721037,19.5652174 L18.2613662,18.9130435 L16.9544917,19.5652174 L14.6051828,19.5652174 C13.2520155,21.9044401 10.722844,23.4782609 7.82608696,23.4782609 C3.50385848,23.4782609 0,19.9744024 0,15.6521739 C0,11.3299454 3.50385848,7.82608696 7.82608696,7.82608696 C10.722844,7.82608696 13.2520155,9.39990768 14.6051828,11.7391304 L26.0811726,11.7391304 L26.0780178,3.91304348 L23.4782609,3.91304348 L23.4782609,5.2173913 L20.8695652,5.2173913 L20.8695652,3.91304348 L9.13043478,3.91304348 L9.13043478,5.2173913 L6.52173913,5.2173913 L6.52173913,3.91304348 L3.91304348,3.91304348 L3.91304348,7.40038847 C2.93529813,7.86486463 2.05320066,8.49799953 1.30434783,9.26219643 L1.30434783,1.30434783 L6.52173913,1.30434783 L6.52173913,0 L9.13043478,0 L9.13043478,1.30434783 L20.8695652,1.30434783 L20.8695652,0 L23.4782609,0 L23.4782609,1.30434783 L28.6956522,1.30434783 L28.6956522,10.4347826 L26.0869565,10.4347826 L26.0869565,11.7391304 Z M26.0869565,13.6956522 L26.0869565,17.6086957 L26.6675521,17.6086957 L27.9718999,15.6521739 L26.7545086,13.6956522 L26.0869565,13.6956522 Z M26.0835388,17.6086957 L26.0819614,13.6956522 L13.0840872,13.6956522 C12.2901188,11.5627914 10.2355302,10.0434783 7.82608696,10.0434783 C4.72848988,10.0434783 2.2173913,12.5545768 2.2173913,15.6521739 C2.2173913,18.749771 4.72848988,21.2608696 7.82608696,21.2608696 C10.2355302,21.2608696 12.2901188,19.7415564 13.0840872,17.6086957 L16.9565217,17.6086957 L18.2608696,16.9565217 L19.5652174,17.6086957 L20.8695652,17.6086957 L22.19473,16.3043478 L23.4782609,17.6086957 L26.0835388,17.6086957 Z M7.82608696,18.2608696 C6.38534413,18.2608696 5.2173913,17.0929167 5.2173913,15.6521739 C5.2173913,14.2114311 6.38534413,13.0434783 7.82608696,13.0434783 C9.26682978,13.0434783 10.4347826,14.2114311 10.4347826,15.6521739 C10.4347826,17.0929167 9.26682978,18.2608696 7.82608696,18.2608696 Z M7.82608696,16.9565217 C8.54645837,16.9565217 9.13043478,16.3725453 9.13043478,15.6521739 C9.13043478,14.9318025 8.54645837,14.3478261 7.82608696,14.3478261 C7.10571554,14.3478261 6.52173913,14.9318025 6.52173913,15.6521739 C6.52173913,16.3725453 7.10571554,16.9565217 7.82608696,16.9565217 Z" id="Shape" fill="#FFFFFF" fill-rule="nonzero"></path>
    </g>
</svg>