<svg xmlns="http://www.w3.org/2000/svg" width="191" height="71" viewBox="0 0 191 71">
  <g id="emlaktura1" transform="translate(7869 -7092)">
    <rect id="Image_93" data-name="Image 93" width="191" height="70" transform="translate(-7869 7092)" fill="#fff" opacity="0"/>
    <text id="emlaktura" transform="translate(-7719 7157)" fill="#fff" font-size="24" font-family="Roboto-Black, Roboto" font-weight="800"><tspan x="-109.453" y="0">emlaktura</tspan></text>
    <g id="Group_44068" data-name="Group 44068" transform="translate(-7809 7094)">
      <path id="Path_20034" data-name="Path 20034" d="M-7901.443,6980.973a5.416,5.416,0,0,1-3.741-1.494,5.435,5.435,0,0,1-.2-7.685l16.27-17.138a5.436,5.436,0,0,1,3.868-1.693,5.38,5.38,0,0,1,3.913,1.587l17.179,17.138a5.436,5.436,0,0,1,.01,7.688,5.438,5.438,0,0,1-7.688.009l-13.233-13.2-12.434,13.1A5.42,5.42,0,0,1-7901.443,6980.973Z" transform="translate(7919.956 -6946.836)" fill="#fff" opacity="0.5"/>
      <path id="Path_20035" data-name="Path 20035" d="M-7901.443,6994.374a5.418,5.418,0,0,1-3.741-1.494,5.436,5.436,0,0,1-.2-7.685l28.992-30.539a5.437,5.437,0,0,1,3.869-1.693,5.4,5.4,0,0,1,3.913,1.587l30.61,30.54a5.436,5.436,0,0,1,.009,7.688,5.436,5.436,0,0,1-7.687.009l-26.666-26.6-25.155,26.5A5.422,5.422,0,0,1-7901.443,6994.374Z" transform="translate(7906.878 -6952.962)" fill="#fff"/>
    </g>
  </g>
</svg>
