<svg xmlns="http://www.w3.org/2000/svg" width="137" height="50" viewBox="0 0 137 50">
  <g id="emlaktura2" transform="translate(7869 -7188)">
    <rect id="Image_94" data-name="Image 94" width="137" height="50" transform="translate(-7869 7188)" fill="#fff" opacity="0"/>
    <text id="emlaktura" transform="translate(-7761 7234)" font-size="17" font-family="Roboto-Black, Roboto" font-weight="800"><tspan x="-77.529" y="0">emlaktura</tspan></text>
    <g id="Group_44069" data-name="Group 44069" transform="translate(-7825.232 7189)">
      <path id="Path_20034" data-name="Path 20034" d="M-7902.94,6973.26a3.926,3.926,0,0,1-2.711-1.082,3.939,3.939,0,0,1-.145-5.569l11.79-12.419a3.94,3.94,0,0,1,2.8-1.227,3.9,3.9,0,0,1,2.835,1.15l12.448,12.419a3.94,3.94,0,0,1,.007,5.571,3.941,3.941,0,0,1-5.572.006l-9.589-9.567-9.01,9.491A3.926,3.926,0,0,1-7902.94,6973.26Z" transform="translate(7916.354 -6948.523)"/>
      <path id="Path_20035" data-name="Path 20035" d="M-7902.94,6982.971a3.927,3.927,0,0,1-2.711-1.083,3.939,3.939,0,0,1-.145-5.569l21.009-22.13a3.939,3.939,0,0,1,2.8-1.227,3.909,3.909,0,0,1,2.835,1.15l22.182,22.13a3.94,3.94,0,0,1,.006,5.571,3.94,3.94,0,0,1-5.571.006l-19.323-19.278-18.229,19.2A3.929,3.929,0,0,1-7902.94,6982.971Z" transform="translate(7906.878 -6952.963)" fill="#ed2a27"/>
    </g>
  </g>
</svg>
