<?xml version="1.0" encoding="UTF-8"?>
<svg width="85px" height="85px" viewBox="0 0 85 85" version="1.1" xmlns="http://www.w3.org/2000/svg" xmlns:xlink="http://www.w3.org/1999/xlink">
    <title>Group 66</title>
    <g id="Detail" stroke="none" stroke-width="1" fill="none" fill-rule="evenodd">
        <g id="Detail-New" transform="translate(-1043.000000, -419.000000)" fill="#E5E5E5" fill-rule="nonzero">
            <g id="Group-66" transform="translate(1043.000000, 419.000000)">
                <path d="M42.5,0 C65.9721019,-4.31175516e-15 85,19.0278981 85,42.5 C85,65.9721019 65.9721019,85 42.5,85 C19.0278981,85 3.12962129e-14,65.9721019 0,42.5 C-2.87450344e-15,19.0278981 19.0278981,4.31175516e-15 42.5,0 Z M42.5,2 C20.1324676,2 2,20.1324676 2,42.5 C2,64.8675324 20.1324676,83 42.5,83 C64.8675324,83 83,64.8675324 83,42.5 C83,20.1324676 64.8675324,2 42.5,2 Z" id="Combined-Shape"></path>
                <path d="M42.4997521,48 C54,48 70.8620054,55.6819549 70.9995042,64.2105263 C70.9995042,64.8755789 71.013679,65.5739268 71.0174251,66.2941899 L71.0178397,66.8512941 L70.9730803,66.9045982 C64.0955357,74.9212301 53.890873,80 42.5,80 C31.0841801,80 20.8597719,74.8989599 13.9817804,66.8518847 C13.9776416,65.9335497 14,65.0457791 14,64.2105263 C14.1374988,55.6819549 30.9995042,48 42.4997521,48 Z M42.5,18 C49.4166667,18 55,23.8066667 55,31 C55,38.1933333 49.4166667,44 42.5,44 C35.5833333,44 30,38.1933333 30,31 C30,23.8066667 35.5833333,18 42.5,18 Z" id="Combined-Shape"></path>
            </g>
        </g>
    </g>
</svg>