<svg width="37px" height="37px" viewBox="0 0 37 37" version="1.1" xmlns="http://www.w3.org/2000/svg" xmlns:xlink="http://www.w3.org/1999/xlink">
    <g id="Detail" stroke="none" stroke-width="1" fill="none" fill-rule="evenodd">
        <g id="Detail-Paylas-2" transform="translate(-561.000000, -421.000000)" fill-rule="nonzero">
            <g id="Group-30" transform="translate(561.000000, 244.000000)">
                <g id="Logo__x2014__FIXED" transform="translate(0.000000, 177.000000)">
                    <circle id="Oval" fill="#E2E2E2" fill-rule="nonzero" cx="18.5" cy="18.5" r="18.5"></circle>
                    <path d="M15.6475096,26 C22.4444444,26 26.1609195,20.6125654 26.1609195,15.9434555 C26.1609195,15.7895288 26.1609195,15.6356021 26.1532567,15.4890052 C26.8735632,14.9905759 27.5019157,14.3675393 28,13.6565445 C27.3409962,13.9350785 26.6283525,14.1256545 25.8773946,14.2136126 C26.6436782,13.773822 27.2260536,13.0848168 27.5019157,12.2565445 C26.789272,12.6596859 26,12.9528796 25.1570881,13.1141361 C24.4827586,12.4251309 23.5249042,12 22.4597701,12 C20.4214559,12 18.7662835,13.5832461 18.7662835,15.5329843 C18.7662835,15.8115183 18.7969349,16.0827225 18.8659004,16.339267 C15.7931034,16.1926702 13.0727969,14.7853403 11.2490421,12.6450262 C10.9348659,13.165445 10.7509579,13.773822 10.7509579,14.4188482 C10.7509579,15.6429319 11.4022989,16.7277487 12.3984674,17.3581152 C11.7931034,17.3434555 11.2260536,17.182199 10.7279693,16.9183246 C10.7279693,16.9329843 10.7279693,16.947644 10.7279693,16.9623037 C10.7279693,18.6774869 12,20.0994764 13.6934866,20.4293194 C13.3869732,20.5099476 13.0574713,20.5539267 12.7203065,20.5539267 C12.4827586,20.5539267 12.2528736,20.5319372 12.0229885,20.4879581 C12.4904215,21.895288 13.8544061,22.9141361 15.4712644,22.9434555 C14.2068966,23.8890052 12.6130268,24.4534031 10.8812261,24.4534031 C10.5823755,24.4534031 10.2911877,24.4387435 10,24.4020942 C11.6168582,25.4136126 13.5632184,26 15.6475096,26" id="Shape" fill="#00A3FA"></path>
                </g>
            </g>
        </g>
    </g>
</svg>