<svg width="37px" height="37px" viewBox="0 0 37 37" version="1.1" xmlns="http://www.w3.org/2000/svg" xmlns:xlink="http://www.w3.org/1999/xlink">
    <g id="Detail" stroke="none" stroke-width="1" fill="none" fill-rule="evenodd">
        <g id="Detail-Paylas-2" transform="translate(-561.000000, -265.000000)">
            <g id="Group-30" transform="translate(561.000000, 244.000000)">
                <g id="Group-38" transform="translate(0.000000, 21.000000)">
                    <circle id="Oval" fill="#E2E2E2" fill-rule="nonzero" cx="18.5" cy="18.5" r="18.5"></circle>
                    <path d="M21.8114218,19.2569288 C21.5859262,19.1684872 21.4219036,19.1243427 21.257881,19.3895659 C21.0938584,19.65484 20.6223289,20.2518593 20.4787974,20.4287426 C20.335313,20.605575 20.1917815,20.6277998 19.9457476,20.4950611 C19.6997138,20.362424 18.906938,20.0826046 17.967184,19.179625 C17.2357868,18.4768725 16.7419721,17.6090356 16.5984878,17.3437107 C16.4549562,17.0783857 16.5831431,16.9349668 16.7063253,16.8028384 C16.8170429,16.6840346 16.9524064,16.4932672 17.0753997,16.338507 C17.1984403,16.1837977 17.2394223,16.073182 17.3214336,15.8964004 C17.4034449,15.7194663 17.3624628,15.564757 17.3008954,15.4321199 C17.2394223,15.2994829 16.7473546,13.9949304 16.54235,13.4642297 C16.3426333,12.9475148 16.1398006,13.0174951 15.988762,13.009307 C15.8454192,13.0016274 15.6812078,13 15.5172325,13 C15.3532099,13 15.0866378,13.0663185 14.8610949,13.3315926 C14.6355993,13.5969176 14,14.2381322 14,15.5425321 C14,16.8470846 14.8815859,18.1072383 15.0046265,18.2841216 C15.127667,18.4610557 16.739517,21.1379032 19.2076932,22.2858646 C19.7946618,22.5589708 20.2529713,22.7220208 20.6102893,22.8441303 C21.1996658,23.045883 21.7360205,23.0174027 22.159958,22.9491516 C22.6326678,22.8731192 23.615623,22.3080895 23.8206748,21.6890488 C24.0256794,21.0698555 24.0256794,20.5392565 23.9641591,20.4287426 C23.9026861,20.3181778 23.7386635,20.2518593 23.4926296,20.1191713 C23.2465958,19.9865343 22.0369647,19.3454722 21.8114218,19.2569288 Z M18.5396452,9 C13.3252621,9 9.08137763,13.2233157 9.07929103,18.4143392 C9.07861061,20.073744 9.5142123,21.6933769 10.3420959,23.1212379 L9,28 L14.0150215,26.6907775 C15.3968083,27.4408459 16.9525545,27.8362174 18.5358802,27.836714 C23.75362,27.836714 27.9978673,23.612992 28,18.4218782 C28.0009519,15.9061812 27.0178429,13.5407235 25.2317535,11.7611452 C23.4456642,9.98152183 21.0703807,9.00103831 18.5396452,9 Z" id="Fill-1" fill="#1DCA32"></path>
                </g>
            </g>
        </g>
    </g>
</svg>