<svg xmlns="http://www.w3.org/2000/svg" width="22.348" height="20.889" viewBox="0 0 22.348 20.889">
  <g id="sale_icon" data-name="sale icon" transform="translate(-0.277)">
    <path id="Path_3973" data-name="Path 3973" d="M12.44,8.423a4.092,4.092,0,0,0,.907,1.661,1,1,0,0,0-.016.126v2.844A1.566,1.566,0,0,0,14.9,14.62v5.222a.522.522,0,0,0,.289.47l1.044.522a.522.522,0,0,0,.467,0l1.044-.522a.522.522,0,0,0,.289-.47V14.62A1.567,1.567,0,0,0,19.6,13.054V10.21a1.058,1.058,0,0,0-.017-.136,4.046,4.046,0,0,0,.8-1.317,1.907,1.907,0,0,0,1.948-.893A2.061,2.061,0,0,0,22,5.319L17.751,1.07A3.632,3.632,0,0,0,15.166,0H9.676A.514.514,0,0,0,9.47.042L5.916,1.566H5.5V.522A.522.522,0,0,0,4.977,0H.8A.522.522,0,0,0,.277.522V8.877A.522.522,0,0,0,.8,9.4H4.977A.522.522,0,0,0,5.5,8.877V7.832h.076c.374,1.253,2.053,2.089,3.579,2.089a4.166,4.166,0,0,0,3.286-1.5ZM4.454,8.355H1.321V1.044H4.454ZM16.986,19.519l-.522.261-.522-.261v-4.9h1.044Zm1.566-6.465a.522.522,0,0,1-.522.522H14.9a.522.522,0,0,1-.522-.522V10.922a4.108,4.108,0,0,0,1.126.449,1.051,1.051,0,1,0,.146-1.049,3.1,3.1,0,0,1-.836-.357A4.1,4.1,0,0,1,16.464,9.4a4.895,4.895,0,0,1,2.089.812Zm.389-3.826a5.7,5.7,0,0,0-2.477-.873,5.69,5.69,0,0,0-2.474.871,3.059,3.059,0,0,1-.613-1.394h2.564a2.036,2.036,0,0,0,1.824-1.092L19.228,8.2a1.882,1.882,0,0,0,.185.152,3,3,0,0,1-.472.873ZM18.006,5.5a2.07,2.07,0,0,0-.517-1.149,3.134,3.134,0,0,1,2.1,2.73ZM11.765,7.31c0,.791-1.293,1.566-2.611,1.566S6.543,8.1,6.543,7.31a.522.522,0,0,0-.522-.522H5.5V2.611h.522a.515.515,0,0,0,.206-.042L9.78,1.044h5.383a2.594,2.594,0,0,1,1.848.764l4.248,4.248A1.011,1.011,0,0,1,21.447,7.3a.94.94,0,0,1-.806.438h-.025a4.068,4.068,0,0,0,.025-.428,4.182,4.182,0,0,0-4.177-4.177,4.134,4.134,0,0,0-2,.522H10.2V4.7h5.744a1.044,1.044,0,0,1,0,2.089H12.287a.522.522,0,0,0-.522.522Zm0,0" transform="translate(0 0)" fill="#212529"/>
  </g>
</svg>
