<svg xmlns="http://www.w3.org/2000/svg" width="24" height="24" viewBox="0 0 24 24">
    <g id="address" transform="translate(-10287 -3246)">
        <rect id="Rectangle_44202" data-name="Rectangle 44202" width="24" height="24" transform="translate(10287 3246)" fill="#fff" opacity="0"/>
        <path id="address-2" data-name="address" d="M6,21.25a.75.75,0,0,0,0,1.5Zm12,1.5a.75.75,0,0,0,0-1.5ZM18.75,9.5c0,1.707-1.09,3.914-2.6,5.747a12.285,12.285,0,0,1-2.308,2.209A3.6,3.6,0,0,1,12,18.25v1.5a4.991,4.991,0,0,0,2.712-1.07,13.772,13.772,0,0,0,2.6-2.482c1.589-1.935,2.936-4.478,2.936-6.7ZM12,18.25a3.478,3.478,0,0,1-1.829-.843,12.9,12.9,0,0,1-2.314-2.341C6.347,13.133,5.25,10.825,5.25,9.111H3.75c0,2.213,1.341,4.85,2.924,6.879a14.376,14.376,0,0,0,2.6,2.617A4.855,4.855,0,0,0,12,19.75ZM5.25,9.111A6.618,6.618,0,0,1,12,2.75V1.25c-4.211,0-8.25,3.269-8.25,7.861ZM12,2.75A6.694,6.694,0,0,1,18.75,9.5h1.5A8.194,8.194,0,0,0,12,1.25ZM14.25,9A2.25,2.25,0,0,1,12,11.25v1.5A3.75,3.75,0,0,0,15.75,9ZM12,11.25A2.25,2.25,0,0,1,9.75,9H8.25A3.75,3.75,0,0,0,12,12.75ZM9.75,9A2.25,2.25,0,0,1,12,6.75V5.25A3.75,3.75,0,0,0,8.25,9ZM12,6.75A2.25,2.25,0,0,1,14.25,9h1.5A3.75,3.75,0,0,0,12,5.25Zm-6,16H18v-1.5H6Z" transform="translate(10287 3245.75)" fill="#505050"/>
    </g>
</svg>
