<svg xmlns="http://www.w3.org/2000/svg" width="32" height="32" viewBox="0 0 32 32">
  <g id="Group_42352" data-name="Group 42352" transform="translate(20838 -6482.5)">
    <g id="Ellipse_372" data-name="Ellipse 372" transform="translate(-20838 6482.5)" fill="#fff" stroke="#f3f5f6" stroke-width="1">
      <circle cx="16" cy="16" r="16" stroke="none"/>
      <circle cx="16" cy="16" r="15.5" fill="none"/>
    </g>
    <g id="photo-camera" transform="translate(-20829.498 6491.217)">
      <g id="Group_41900" data-name="Group 41900" transform="translate(0 0)">
        <g id="Group_41899" data-name="Group 41899">
          <path id="Path_12815" data-name="Path 12815" d="M14.412,33.846A.586.586,0,0,0,15,33.26V29.452a2.346,2.346,0,0,0-2.343-2.343h-.889a.586.586,0,0,1-.555-.4l-.177-.521A1.757,1.757,0,0,0,9.369,25H5.626a1.762,1.762,0,0,0-1.653,1.161l-.2.562a.587.587,0,0,1-.551.387H2.343A2.346,2.346,0,0,0,0,29.452v6.737a2.346,2.346,0,0,0,2.343,2.343H12.654A2.346,2.346,0,0,0,15,36.189a.586.586,0,0,0-1.172,0,1.173,1.173,0,0,1-1.172,1.172H2.343a1.173,1.173,0,0,1-1.172-1.172V29.452a1.173,1.173,0,0,1,1.172-1.172H3.22A1.762,1.762,0,0,0,4.873,27.12l.2-.562a.587.587,0,0,1,.551-.387H9.369a.586.586,0,0,1,.555.4l.177.521a1.757,1.757,0,0,0,1.664,1.191h.889a1.173,1.173,0,0,1,1.172,1.172V33.26A.586.586,0,0,0,14.412,33.846Z" transform="translate(0 -25)" fill="#505050"/>
        </g>
      </g>
      <g id="Group_41902" data-name="Group 41902" transform="translate(3.867 3.867)">
        <g id="Group_41901" data-name="Group 41901" transform="translate(0 0)">
          <path id="Path_12816" data-name="Path 12816" d="M135.661,157a3.661,3.661,0,1,0,3.661,3.661A3.666,3.666,0,0,0,135.661,157Zm0,6.151a2.49,2.49,0,1,1,2.49-2.49A2.493,2.493,0,0,1,135.661,163.151Z" transform="translate(-132 -157)" fill="#505050"/>
        </g>
      </g>
    </g>
  </g>
</svg>
