<svg xmlns="http://www.w3.org/2000/svg" width="24" height="24" viewBox="0 0 24 24">
    <g id="details" transform="translate(-10315 -3246)">
        <rect id="Rectangle_44203" data-name="Rectangle 44203" width="24" height="24" transform="translate(10315 3246)" fill="#fff" opacity="0"/>
        <path id="details-2" data-name="details" d="M5.741,9.614a.75.75,0,0,1,0-1.5h4a.75.75,0,1,1,0,1.5Zm0,4a.75.75,0,0,1,0-1.5h8.005a.75.75,0,1,1,0,1.5Zm0,4a.75.75,0,0,1,0-1.5h8.005a.75.75,0,1,1,0,1.5Zm-3-14.509h14.01A2.758,2.758,0,0,1,19.5,5.864V21.028a2.738,2.738,0,0,1-3.685,2.585l-1.563-.561a1.263,1.263,0,0,0-.941.039l-2.443,1.1a2.74,2.74,0,0,1-2.258,0l-2.443-1.1a1.244,1.244,0,0,0-.464-.11,1.32,1.32,0,0,0-.477.071l-1.563.561A2.753,2.753,0,0,1-.02,21.028V5.864A2.758,2.758,0,0,1,2.731,3.113Zm14.01,1.5H2.737a1.251,1.251,0,0,0-.886.367,1.234,1.234,0,0,0-.367.886v15.17a1.251,1.251,0,0,0,1.25,1.252,1.276,1.276,0,0,0,.428-.071l1.563-.561a2.766,2.766,0,0,1,1.035-.162,2.724,2.724,0,0,1,1.025.24l2.443,1.1a1.28,1.28,0,0,0,1.025,0l2.443-1.1a2.741,2.741,0,0,1,2.06-.078l1.563.561a1.276,1.276,0,0,0,.428.071A1.238,1.238,0,0,0,18,21.028V5.864a1.246,1.246,0,0,0-1.252-1.252Z" transform="translate(10317.26 3243.895)" fill="#505050"/>
    </g>
</svg>
