<svg xmlns="http://www.w3.org/2000/svg" width="22" height="22" viewBox="0 0 22 22">
  <g id="address" transform="translate(-551 -13941)">
    <rect id="Rectangle_2604" data-name="Rectangle 2604" width="22" height="22" transform="translate(551 13941)" fill="#fff" opacity="0"/>
    <g id="Group_3507" data-name="Group 3507" transform="translate(69.891 90.662)">
      <path id="address_1_" data-name="address (1)" d="M7.688,17.24v1.95l-.471-.381a31.6,31.6,0,0,1-3.563-3.484C1.229,12.542,0,10.044,0,7.9V7.687a7.688,7.688,0,0,1,15.376,0V7.9c0,.18-.01.363-.027.548l-1.5-1.372A6.188,6.188,0,0,0,1.5,7.687V7.9c0,3.623,4.668,8.009,6.188,9.341Zm0-12.741A3.188,3.188,0,1,1,4.5,7.687,3.191,3.191,0,0,1,7.688,4.5Zm0,1.5A1.688,1.688,0,1,0,9.376,7.687,1.69,1.69,0,0,0,7.688,6Z" transform="translate(483 13852.001)" fill="#505050"/>
      <path id="address_2_" data-name="address (2)" d="M53.095,54.693a.756.756,0,0,1-1.068.048l-.095-.087v2.5a2.132,2.132,0,0,1-2.129,2.13H45.554a2.132,2.132,0,0,1-2.129-2.13V54.689l-.057.052a.756.756,0,1,1-1.02-1.116l3.9-3.568a2.133,2.133,0,0,1,2.893,0l2.5,2.286a.757.757,0,0,1,.078.071l1.324,1.211a.756.756,0,0,1,.048,1.068Zm-2.675-1.421-2.3-2.1a.628.628,0,0,0-.852,0l-2.334,2.133v3.85a.618.618,0,0,0,.617.618H49.8a.618.618,0,0,0,.616-.618Zm0,0" transform="translate(448.87 13812.108)" fill="#505050"/>
    </g>
  </g>
</svg>
