<?xml version="1.0"?>
<svg xmlns="http://www.w3.org/2000/svg" viewBox="0 0 64 64" width="512px" height="512px"><g><g id="Address"><path d="M13,10H9a1,1,0,0,0-1,1v4a1,1,0,0,0,1,1h4a1,1,0,0,0,1-1V11A1,1,0,0,0,13,10Zm-1,4H10V12h2Z" data-original="#000000" class="active-path" data-old_color="#000000" fill="#707070"/><path d="M17,16h4a1,1,0,0,0,1-1V11a1,1,0,0,0-1-1H17a1,1,0,0,0-1,1v4A1,1,0,0,0,17,16Zm1-4h2v2H18Z" data-original="#000000" class="active-path" data-old_color="#000000" fill="#707070"/><path d="M25,16h4a1,1,0,0,0,1-1V11a1,1,0,0,0-1-1H25a1,1,0,0,0-1,1v4A1,1,0,0,0,25,16Zm1-4h2v2H26Z" data-original="#000000" class="active-path" data-old_color="#000000" fill="#707070"/><path d="M33,16h4a1,1,0,0,0,1-1V11a1,1,0,0,0-1-1H33a1,1,0,0,0-1,1v4A1,1,0,0,0,33,16Zm1-4h2v2H34Z" data-original="#000000" class="active-path" data-old_color="#000000" fill="#707070"/><path d="M41,16h4a1,1,0,0,0,1-1V11a1,1,0,0,0-1-1H41a1,1,0,0,0-1,1v4A1,1,0,0,0,41,16Zm1-4h2v2H42Z" data-original="#000000" class="active-path" data-old_color="#000000" fill="#707070"/><path d="M13,18H9a1,1,0,0,0-1,1v4a1,1,0,0,0,1,1h4a1,1,0,0,0,1-1V19A1,1,0,0,0,13,18Zm-1,4H10V20h2Z" data-original="#000000" class="active-path" data-old_color="#000000" fill="#707070"/><path d="M13,26H9a1,1,0,0,0-1,1v4a1,1,0,0,0,1,1h4a1,1,0,0,0,1-1V27A1,1,0,0,0,13,26Zm-1,4H10V28h2Z" data-original="#000000" class="active-path" data-old_color="#000000" fill="#707070"/><path d="M13,34H9a1,1,0,0,0-1,1v4a1,1,0,0,0,1,1h4a1,1,0,0,0,1-1V35A1,1,0,0,0,13,34Zm-1,4H10V36h2Z" data-original="#000000" class="active-path" data-old_color="#000000" fill="#707070"/><path d="M13,42H9a1,1,0,0,0-1,1v4a1,1,0,0,0,1,1h4a1,1,0,0,0,1-1V43A1,1,0,0,0,13,42Zm-1,4H10V44h2Z" data-original="#000000" class="active-path" data-old_color="#000000" fill="#707070"/><path d="M17,24h4a1,1,0,0,0,1-1V19a1,1,0,0,0-1-1H17a1,1,0,0,0-1,1v4A1,1,0,0,0,17,24Zm1-4h2v2H18Z" data-original="#000000" class="active-path" data-old_color="#000000" fill="#707070"/><path d="M25,24h4a1,1,0,0,0,1-1V19a1,1,0,0,0-1-1H25a1,1,0,0,0-1,1v4A1,1,0,0,0,25,24Zm1-4h2v2H26Z" data-original="#000000" class="active-path" data-old_color="#000000" fill="#707070"/><path d="M33,24h4a1,1,0,0,0,1-1V19a1,1,0,0,0-1-1H33a1,1,0,0,0-1,1v4A1,1,0,0,0,33,24Zm1-4h2v2H34Z" data-original="#000000" class="active-path" data-old_color="#000000" fill="#707070"/><path d="M41,24h4a1,1,0,0,0,1-1V19a1,1,0,0,0-1-1H41a1,1,0,0,0-1,1v4A1,1,0,0,0,41,24Zm1-4h2v2H42Z" data-original="#000000" class="active-path" data-old_color="#000000" fill="#707070"/><path d="M50,28.051V8h1a1,1,0,0,0,1-1V3a1,1,0,0,0-1-1H3A1,1,0,0,0,2,3V7A1,1,0,0,0,3,8H4V53a1,1,0,0,0,1,1H41.751a72.309,72.309,0,0,0,6.542,7.707,1,1,0,0,0,1.414,0C50.209,61.205,62,49.318,62,41A13.008,13.008,0,0,0,50,28.051ZM4,4H50V6H4ZM6,8H48V28.051A13.008,13.008,0,0,0,36,41a11.625,11.625,0,0,0,.441,3H36V27a1,1,0,0,0-1-1H19a1,1,0,0,0-1,1V44H17a1,1,0,0,0-1,1v3a1,1,0,0,0-1,1v3H6ZM34,44H32V31a1,1,0,0,0-1-1H23a1,1,0,0,0-1,1V44H20V28H34Zm-4,0H24V32h6Zm7.109,2c.265.665.572,1.333.906,2H18V46ZM17,52V50H39.1c.4.677.817,1.346,1.251,2Zm32,7.558C46.466,56.869,38,47.4,38,41a11,11,0,0,1,22,0C60,47.4,51.534,56.869,49,59.558Z" data-original="#000000" class="active-path" data-old_color="#000000" fill="#707070"/><path d="M49,32a9,9,0,1,0,9,9A9.011,9.011,0,0,0,49,32Zm0,16a7,7,0,1,1,7-7A7.008,7.008,0,0,1,49,48Z" data-original="#000000" class="active-path" data-old_color="#000000" fill="#707070"/></g></g> </svg>
