<svg xmlns="http://www.w3.org/2000/svg" width="24" height="24" viewBox="0 0 24 24">
    <g id="myprofile" transform="translate(-10259 -3246)">
        <rect id="Rectangle_44211" data-name="Rectangle 44211" width="24" height="24" transform="translate(10259 3246)" fill="#fff" opacity="0"/>
        <path id="myprofile-2" data-name="myprofile" d="M15.25,7A3.25,3.25,0,0,1,12,10.25v1.5A4.75,4.75,0,0,0,16.75,7ZM12,10.25A3.25,3.25,0,0,1,8.75,7H7.25A4.75,4.75,0,0,0,12,11.75ZM8.75,7A3.25,3.25,0,0,1,12,3.75V2.25A4.75,4.75,0,0,0,7.25,7ZM12,3.75A3.25,3.25,0,0,1,15.25,7h1.5A4.75,4.75,0,0,0,12,2.25ZM18.25,17.5c0,.529-.449,1.211-1.636,1.8A10.613,10.613,0,0,1,12,20.25v1.5a12.091,12.091,0,0,0,5.285-1.1c1.346-.673,2.465-1.742,2.465-3.146ZM12,20.25A10.613,10.613,0,0,1,7.386,19.3C6.2,18.711,5.75,18.029,5.75,17.5H4.25c0,1.4,1.118,2.472,2.465,3.146A12.091,12.091,0,0,0,12,21.75ZM5.75,17.5c0-.529.449-1.211,1.636-1.8A10.613,10.613,0,0,1,12,14.75v-1.5a12.091,12.091,0,0,0-5.285,1.1C5.368,15.028,4.25,16.1,4.25,17.5ZM12,14.75a10.613,10.613,0,0,1,4.614.946c1.187.594,1.636,1.275,1.636,1.8h1.5c0-1.4-1.118-2.472-2.465-3.146A12.091,12.091,0,0,0,12,13.25Z" transform="translate(10259 3245.75)" fill="#505050"/>
    </g>
</svg>
