<svg xmlns="http://www.w3.org/2000/svg" width="16.974" height="19.397" viewBox="0 0 16.974 19.397">
  <path id="Path_6075" data-name="Path 6075" d="M6887.03,1441.4a3.035,3.035,0,0,1-3.031-3.031v-6.213a3.035,3.035,0,0,1,3.031-3.031h.908v-2.672a4.547,4.547,0,0,1,9.092,0v2.672h.911a3.035,3.035,0,0,1,3.031,3.031v2.8a.758.758,0,0,1-1.516,0v-2.8a1.517,1.517,0,0,0-1.516-1.516H6887.03a1.517,1.517,0,0,0-1.516,1.516v6.213a1.517,1.517,0,0,0,1.516,1.515h10.911a1.517,1.517,0,0,0,1.516-1.515.758.758,0,0,1,1.516,0,3.035,3.035,0,0,1-3.031,3.031Zm2.424-14.947v2.672h6.062v-2.672a3.032,3.032,0,0,0-6.062,0Zm6.538,8.671a.784.784,0,1,1,.784.785A.784.784,0,0,1,6895.992,1435.121Zm-2.915,0a.785.785,0,1,1,.785.785A.785.785,0,0,1,6893.077,1435.121Zm-2.689,0a.731.731,0,1,1,.729.785A.758.758,0,0,1,6890.388,1435.121Zm-2.914,0a.785.785,0,1,1,.785.785A.785.785,0,0,1,6887.474,1435.121Z" transform="translate(-6883.999 -1422)" fill="#505050"/>
</svg>
