<svg xmlns="http://www.w3.org/2000/svg" width="24" height="24" viewBox="0 0 24 24">
    <g id="pass" transform="translate(-10427 -3246)">
        <rect id="Rectangle_44207" data-name="Rectangle 44207" width="24" height="24" transform="translate(10427 3246)" fill="#fff" opacity="0"/>
        <path id="pass-2" data-name="pass" d="M97.434,10.316h-8a3.256,3.256,0,0,0-3.253,3.253v6a3.256,3.256,0,0,0,3.253,3.253h8a3.256,3.256,0,0,0,3.253-3.253v-6a3.256,3.256,0,0,0-3.253-3.253Zm-7.253-1.5h6.5V7.562a3.254,3.254,0,0,0-6.507,0V8.814Zm8,.058a4.753,4.753,0,0,1,4,4.694v6a4.751,4.751,0,0,1-4.753,4.752h-8a4.751,4.751,0,0,1-4.752-4.751v-6a4.753,4.753,0,0,1,4-4.694V7.562a4.752,4.752,0,1,1,9.5,0Zm-2,7.7a2.75,2.75,0,0,1-4.7,1.943l-.045-.049a2.75,2.75,0,1,1,4.742-1.9Zm-1.865.886a1.253,1.253,0,1,0-1.807-.032l.032.029a1.253,1.253,0,0,0,1.771,0Z" transform="translate(10345.567 3244.328)" fill="#505050"/>
    </g>
</svg>
