<svg id="social" xmlns="http://www.w3.org/2000/svg" width="19.395" height="19.395" viewBox="0 0 19.395 19.395">
  <g id="Group_2839" data-name="Group 2839" transform="translate(0)">
    <path id="Path_4053" data-name="Path 4053" d="M19.346,16.619a.758.758,0,0,0-1.483.309.792.792,0,0,1-.16.664.77.77,0,0,1-.606.288H2.3a.77.77,0,0,1-.606-.288.791.791,0,0,1-.16-.664A8.371,8.371,0,0,1,9.5,10.3q.1,0,.2,0t.2,0A8.334,8.334,0,0,1,16.63,14a.758.758,0,1,0,1.259-.844,9.855,9.855,0,0,0-5.106-3.88,5.152,5.152,0,1,0-6.167,0A9.854,9.854,0,0,0,.05,16.619,2.3,2.3,0,0,0,2.3,19.395H17.1a2.3,2.3,0,0,0,2.25-2.776ZM6.061,5.152A3.637,3.637,0,1,1,9.882,8.784l-.184,0-.183,0A3.641,3.641,0,0,1,6.061,5.152Z" transform="translate(0)" fill="#505050"/>
  </g>
</svg>
