<svg xmlns="http://www.w3.org/2000/svg" width="22" height="22" viewBox="0 0 22 22">
  <g id="ads" transform="translate(-551 -13906)">
    <rect id="Rectangle_2615" data-name="Rectangle 2615" width="22" height="22" transform="translate(551 13906)" fill="#fff" opacity="0"/>
    <g id="XMLID_1531_" transform="translate(551.73 13904.936)">
      <g id="XMLID_49_" transform="translate(0 2.383)">
        <path id="XMLID_317_" d="M14.385,84.833a.425.425,0,0,0-.737.425l1.74,3.014a.6.6,0,0,1-1.031.6L9.083,79.734a.6.6,0,0,1,1.031-.6l1.62,2.805a.425.425,0,0,0,.737-.425l-1.62-2.805a1.446,1.446,0,0,0-2.677.971L2.811,86.2,1.4,87.016a2.807,2.807,0,0,0,.677,5.142,2.822,2.822,0,0,0,.731.1,2.771,2.771,0,0,0,.524-.05L7.1,96a1.515,1.515,0,1,0,2.152-2.133l-.607-.613.417-.241a1.268,1.268,0,0,0,.267-1.991l-.488-.492,5.107-.849a1.446,1.446,0,0,0,2.179-1.833ZM1.113,90.424a1.958,1.958,0,0,1,.716-2.672l1.1-.638L4.891,90.5l-1.105.638a1.958,1.958,0,0,1-2.672-.716Zm7.718,4.6A.665.665,0,0,1,7.7,95.4L4.21,91.877,5.4,91.19l3.245,3.274A.66.66,0,0,1,8.832,95.021Zm-.11-3.4a.418.418,0,0,1-.088.656l-.61.352L6.352,90.943,7.81,90.7ZM5.692,90.19,3.606,86.576l4.963-6.033,4.83,8.365Z" transform="translate(0 -76.99)" fill="#505050" stroke="#505050" stroke-width="0.4"/>
        <path id="XMLID_321_" d="M.2,2.571a.425.425,0,0,0,.588-.128L2.306.655A.425.425,0,0,0,1.591.2L.068,1.983A.425.425,0,0,0,.2,2.571Z" transform="translate(12.502 0.371) rotate(-9)" fill="#505050" stroke="#505050" stroke-width="0.4"/>
        <path id="XMLID_322_" d="M384.809,238.193h-3.4a.427.427,0,0,0,0,.851h3.4a.427.427,0,0,0,0-.851Z" transform="translate(-364.816 -230.38)" fill="#505050" stroke="#505050" stroke-width="0.4"/>
        <path id="XMLID_326_" d="M297.524,195.768a.425.425,0,1,0-.3-.125A.428.428,0,0,0,297.524,195.768Z" transform="translate(-284.465 -188.944)" fill="#505050" stroke="#505050" stroke-width="0.4"/>
        <path id="XMLID_321_2" data-name="XMLID_321_" d="M.2,3.31a.425.425,0,0,0,.588-.128L2.465.655A.425.425,0,0,0,1.75.2L.068,2.722A.425.425,0,0,0,.2,3.31Z" transform="translate(16.425 2.187) rotate(30)" fill="#505050" stroke="#505050" stroke-width="0.4"/>
      </g>
    </g>
  </g>
</svg>
