<?xml version="1.0"?>
<svg xmlns="http://www.w3.org/2000/svg" height="512px" viewBox="0 0 512 512" width="512px"><g><g id="Outline"><path d="m56 208a24.027 24.027 0 0 1 24-24h88v-16h-88a40.045 40.045 0 0 0 -40 40v48h16z" data-original="#000000" class="active-path" data-old_color="#000000" fill="#707070"/><path d="m244 88a28 28 0 1 0 28 28 28.032 28.032 0 0 0 -28-28zm0 40a12 12 0 1 1 12-12 12.013 12.013 0 0 1 -12 12z" data-original="#000000" class="active-path" data-old_color="#000000" fill="#707070"/><path d="m488 16h-169.353a48.246 48.246 0 0 0 -41.16 23.305l-10.017 16.695h-59.47a24.028 24.028 0 0 0 -24 24v144a24.027 24.027 0 0 0 24 24h48v32a8 8 0 0 0 13.121 6.146l45.779-38.146h109.1a24.027 24.027 0 0 0 24-24v-113.554a85.486 85.486 0 0 0 44.533-23.665l1.124-1.124a8 8 0 0 0 2.343-5.657v-56a8 8 0 0 0 -8-8zm-56 208a8.009 8.009 0 0 1 -8 8h-112a8 8 0 0 0 -5.121 1.854l-34.879 29.065v-22.919a8 8 0 0 0 -8-8h-56a8.009 8.009 0 0 1 -8-8v-11.471l71.774-43.064 67.788 45.191a8 8 0 0 0 8.016.5l43.847-21.924 40.575 27.049zm0-22.948-35.562-23.708a8 8 0 0 0 -8.016-.5l-43.847 21.924-68.137-45.425a8 8 0 0 0 -8.554-.2l-67.884 40.727v-113.87a8.009 8.009 0 0 1 8-8h124.687l-26.2 26.2a27.8 27.8 0 0 0 39.313 39.315l39.227-39.228a85.82 85.82 0 0 0 46.621 13.713c.118 0 .234-.008.352-.009zm48-124.394a70.106 70.106 0 0 1 -87.239 7.568l-4.323-2.882a8 8 0 0 0 -10.095 1l-43.857 43.856a11.858 11.858 0 0 1 -15.424 1.1 11.8 11.8 0 0 1 -1.262-17.782l39.857-39.858 16-16-11.314-11.317-13.657 13.657h-62.556l5.077-8.463a32.164 32.164 0 0 1 27.44-15.537h161.353z" data-original="#000000" class="active-path" data-old_color="#000000" fill="#707070"/><path d="m472 272h-144a24.028 24.028 0 0 0 -24 24v44.686l-29.657 29.657a8 8 0 0 0 5.657 13.657h24v8a24.028 24.028 0 0 0 24 24h144a24.028 24.028 0 0 0 24-24v-96a24.028 24.028 0 0 0 -24-24zm8 120a8.009 8.009 0 0 1 -8 8h-144a8.009 8.009 0 0 1 -8-8v-16a8 8 0 0 0 -8-8h-12.687l18.344-18.343a8 8 0 0 0 2.343-5.657v-48a8.009 8.009 0 0 1 8-8h144a8.009 8.009 0 0 1 8 8z" data-original="#000000" class="active-path" data-old_color="#000000" fill="#707070"/><path d="m336 304h80v16h-80z" data-original="#000000" class="active-path" data-old_color="#000000" fill="#707070"/><path d="m432 304h32v16h-32z" data-original="#000000" class="active-path" data-old_color="#000000" fill="#707070"/><path d="m336 368h128v16h-128z" data-original="#000000" class="active-path" data-old_color="#000000" fill="#707070"/><path d="m336 336h128v16h-128z" data-original="#000000" class="active-path" data-old_color="#000000" fill="#707070"/><path d="m72 200h16v16h-16z" data-original="#000000" class="active-path" data-old_color="#000000" fill="#707070"/><path d="m104 200h16v16h-16z" data-original="#000000" class="active-path" data-old_color="#000000" fill="#707070"/><path d="m136 200h16v16h-16z" data-original="#000000" class="active-path" data-old_color="#000000" fill="#707070"/><path d="m72 232h96v16h-96z" data-original="#000000" class="active-path" data-old_color="#000000" fill="#707070"/><path d="m40 416h144a24.028 24.028 0 0 0 24-24v-32h24a8 8 0 0 0 5.657-13.657l-29.657-29.657v-20.686a24.028 24.028 0 0 0 -24-24h-144a24.028 24.028 0 0 0 -24 24v96a24.028 24.028 0 0 0 24 24zm-8-120a8.009 8.009 0 0 1 8-8h144a8.009 8.009 0 0 1 8 8v24a8 8 0 0 0 2.343 5.657l18.344 18.343h-12.687a8 8 0 0 0 -8 8v40a8.009 8.009 0 0 1 -8 8h-144a8.009 8.009 0 0 1 -8-8z" data-original="#000000" class="active-path" data-old_color="#000000" fill="#707070"/><path d="m48 304h16v16h-16z" data-original="#000000" class="active-path" data-old_color="#000000" fill="#707070"/><path d="m48 336h16v16h-16z" data-original="#000000" class="active-path" data-old_color="#000000" fill="#707070"/><path d="m48 368h16v16h-16z" data-original="#000000" class="active-path" data-old_color="#000000" fill="#707070"/><path d="m80 304h96v16h-96z" data-original="#000000" class="active-path" data-old_color="#000000" fill="#707070"/><path d="m80 336h96v16h-96z" data-original="#000000" class="active-path" data-old_color="#000000" fill="#707070"/><path d="m80 368h96v16h-96z" data-original="#000000" class="active-path" data-old_color="#000000" fill="#707070"/><path d="m424 432h-140.687a35.08 35.08 0 0 0 -24.97 10.343 19.185 19.185 0 0 1 -13.656 5.657h-41.374a19.185 19.185 0 0 1 -13.656-5.657 35.08 35.08 0 0 0 -24.97-10.343h-140.687a8 8 0 0 0 -8 8v24a32.036 32.036 0 0 0 32 32h352a32.036 32.036 0 0 0 32-32v-24a8 8 0 0 0 -8-8zm-8 32a16.019 16.019 0 0 1 -16 16h-352a16.019 16.019 0 0 1 -16-16v-16h132.687a19.185 19.185 0 0 1 13.656 5.657 35.08 35.08 0 0 0 24.97 10.343h41.374a35.08 35.08 0 0 0 24.97-10.343 19.185 19.185 0 0 1 13.656-5.657h132.687z" data-original="#000000" class="active-path" data-old_color="#000000" fill="#707070"/></g></g> </svg>
