<svg xmlns="http://www.w3.org/2000/svg" width="28.68" height="22.095" viewBox="0 0 28.68 22.095">
    <path id="Path_1240" data-name="Path 1240"
          d="M1083.439,1143.638q2.378,7.207,4.757,14.415l.009.027-.009-.027a.751.751,0,0,0,.671.493h13.784a.756.756,0,0,0,.742-.586h0l.5-2.259c-2.679,0-1.361,0-4.64,0a.759.759,0,0,1,0-1.518c3.409,0,1.853,0,4.978,0l.543-2.467q-4.89,0-9.78,0a.759.759,0,0,1,0-1.517q5.058,0,10.118,0l.352-1.6a.761.761,0,0,0-.59-.873.793.793,0,0,0-.1-.015q-8.253,0-16.507,0a.759.759,0,0,1,0-1.518q9.14-.006,18.282,0h.1a.706.706,0,0,1,.106.015.762.762,0,0,1,.585.9c-.891,4.124-1.807,8.243-2.714,12.363a.756.756,0,0,1-.744.6h-16.025a.753.753,0,0,1-.756-.517l-.015-.047-4.835-14.651-3.042-.957a.758.758,0,0,1,.453-1.447l3.787,1.192Zm17.309,17.453a1.708,1.708,0,1,1-1.708,1.708,1.708,1.708,0,0,1,1.708-1.708Zm-9.629,0a1.708,1.708,0,1,1-1.708,1.708A1.708,1.708,0,0,1,1091.119,1161.091Z"
          transform="translate(-1078.668 -1142.412)" fill="#fff" fill-rule="evenodd"/>
</svg>
