<svg xmlns="http://www.w3.org/2000/svg" width="25.481" height="25.485" viewBox="0 0 25.481 25.485">
  <g id="money-exchange" transform="translate(-1.855 -1.85)">
    <path id="Path_43382" data-name="Path 43382" d="M26.026,18.013a8.013,8.013,0,1,0-8.013,8.013A8.013,8.013,0,0,0,26.026,18.013Zm-14.882,0a6.868,6.868,0,1,1,6.868,6.868,6.868,6.868,0,0,1-6.868-6.868Z" transform="translate(-3.419 -3.421)" fill="#96a0bf"/>
    <path id="Path_43382_-_Outline" data-name="Path 43382 - Outline" d="M18.013,9.85A8.163,8.163,0,1,1,9.85,18.013,8.172,8.172,0,0,1,18.013,9.85Zm0,16.026a7.863,7.863,0,1,0-7.863-7.863A7.884,7.884,0,0,0,18.013,25.876Zm0-14.882a7.018,7.018,0,0,1,0,14.037h0a7.018,7.018,0,0,1,0-14.037Zm0,13.737a6.718,6.718,0,1,0-6.718-6.718,6.726,6.726,0,0,0,6.718,6.718Z" transform="translate(-3.419 -3.421)" fill="#96a0bf"/>
    <path id="Path_43383" data-name="Path 43383" d="M26.708,7.732a.572.572,0,0,0-.658.47l-.2,1.215A12.279,12.279,0,0,0,2.59,11.6a.573.573,0,0,0,1.114.266,11.134,11.134,0,0,1,21.178-1.8L23.541,8.994a.573.573,0,0,0-.715.894l2.862,2.289a.572.572,0,0,0,.355.125.564.564,0,0,0,.2-.038.572.572,0,0,0,.36-.441l.572-3.434A.572.572,0,0,0,26.708,7.732ZM26.175,16.9a.572.572,0,0,0-.687.424,11.134,11.134,0,0,1-21.174,1.8l1.341,1.072A.573.573,0,0,0,6.37,19.3L3.508,17.007a.572.572,0,0,0-.922.353l-.572,3.434a.572.572,0,0,0,.47.658.53.53,0,0,0,.091.008.572.572,0,0,0,.564-.479l.2-1.217A12.277,12.277,0,0,0,26.6,17.587.572.572,0,0,0,26.175,16.9Z" transform="translate(0)" fill="#96a0bf"/>
    <path id="Path_43383_-_Outline" data-name="Path 43383 - Outline" d="M14.577,1.85a12.414,12.414,0,0,1,11.2,7.057l.122-.73a.72.72,0,0,1,.712-.6.864.864,0,0,1,.119.01.723.723,0,0,1,.594.831l-.572,3.434a.725.725,0,0,1-.454.556.711.711,0,0,1-.257.048.727.727,0,0,1-.45-.158l-2.862-2.29a.723.723,0,1,1,.9-1.128l.864.691a10.935,10.935,0,0,0-9.92-6.278c-.31,0-.624.013-.933.04A10.936,10.936,0,0,0,3.85,11.9a.723.723,0,1,1-1.406-.333A12.428,12.428,0,0,1,13.412,1.9C13.8,1.869,14.191,1.85,14.577,1.85ZM25.911,9.945l-.2-.468A12.115,12.115,0,0,0,14.577,2.15c-.378,0-.76.018-1.137.053a12.1,12.1,0,0,0-10.7,9.427.423.423,0,1,0,.822.2,11.284,11.284,0,0,1,10.062-8.8c.318-.027.64-.041.958-.041a11.284,11.284,0,0,1,10.442,7.02l.218.535L23.447,9.111a.422.422,0,0,0-.594.066.423.423,0,0,0,.066.594l2.862,2.289a.421.421,0,0,0,.678-.261l.572-3.434a.423.423,0,0,0-.347-.486.311.311,0,0,0-.07-.006.421.421,0,0,0-.416.353ZM3.15,16.732a.725.725,0,0,1,.451.158l2.862,2.29a.723.723,0,1,1-.9,1.128l-.863-.69a10.936,10.936,0,0,0,9.917,6.272c.31,0,.624-.013.934-.04a10.937,10.937,0,0,0,9.793-8.561.721.721,0,0,1,.7-.557.658.658,0,0,1,.165.019.723.723,0,0,1,.535.871A12.427,12.427,0,0,1,15.776,27.28c-.386.036-.778.054-1.164.054a12.413,12.413,0,0,1-11.2-7.06l-.122.732a.72.72,0,0,1-.712.6.684.684,0,0,1-.117-.01.723.723,0,0,1-.593-.831l.572-3.434a.722.722,0,0,1,.713-.6Zm2.861,3.434a.423.423,0,0,0,.264-.752L3.414,17.124A.428.428,0,0,0,3,17.06a.424.424,0,0,0-.266.325l-.572,3.434a.423.423,0,0,0,.347.486.387.387,0,0,0,.067.006.421.421,0,0,0,.416-.353l.287-1.72.2.468a12.114,12.114,0,0,0,11.132,7.329c.377,0,.759-.018,1.136-.053a12.1,12.1,0,0,0,10.7-9.428.421.421,0,1,0-.818-.2,11.284,11.284,0,0,1-10.06,8.793c-.318.027-.641.041-.959.041a11.284,11.284,0,0,1-10.44-7.014l-.219-.535,1.792,1.433A.418.418,0,0,0,6.011,20.166Z" transform="translate(0)" fill="#96a0bf"/>
    <path id="Path_43384" data-name="Path 43384" d="M22.862,24.441v-.572h1.145a.572.572,0,0,0,.572-.572V21.007a.572.572,0,0,0-.572-.572H21.145V19.289h2.862a.572.572,0,0,0,0-1.145H22.862v-.572a.572.572,0,0,0-1.145,0v.572H20.572a.572.572,0,0,0-.572.572v2.289a.572.572,0,0,0,.572.572h2.862v1.145H20.572a.572.572,0,1,0,0,1.145h1.145v.572a.572.572,0,1,0,1.145,0Z" transform="translate(-7.695 -6.414)" fill="#96a0bf"/>
    <path id="Path_43384_-_Outline" data-name="Path 43384 - Outline" d="M22.289,25.163a.723.723,0,0,1-.722-.722v-.422h-.995a.722.722,0,0,1,0-1.445h2.712v-.845H20.572a.723.723,0,0,1-.722-.722V18.717a.723.723,0,0,1,.722-.722h.995v-.422a.722.722,0,0,1,1.445,0v.422h.995a.722.722,0,1,1,0,1.445H21.295v.845h2.712a.723.723,0,0,1,.722.722V23.3a.723.723,0,0,1-.722.722h-.995v.422A.723.723,0,0,1,22.289,25.163Zm-1.717-2.289a.422.422,0,0,0,0,.845h1.295v.722a.422.422,0,1,0,.845,0v-.722h1.295a.423.423,0,0,0,.422-.422V21.007a.423.423,0,0,0-.422-.422H20.995V19.139h3.012a.422.422,0,1,0,0-.845H22.712v-.722a.422.422,0,0,0-.845,0v.722H20.572a.423.423,0,0,0-.422.422v2.289a.423.423,0,0,0,.422.422h3.012v1.445Z" transform="translate(-7.695 -6.414)" fill="#96a0bf"/>
  </g>
</svg>
