<svg xmlns="http://www.w3.org/2000/svg" width="24.5" height="18.662" viewBox="0 0 24.5 18.662">
  <path id="Path_4099" data-name="Path 4099" d="M22.347,61H2.153A2.157,2.157,0,0,0,0,63.153V77.509a2.157,2.157,0,0,0,2.153,2.153H22.347A2.157,2.157,0,0,0,24.5,77.509V63.153A2.157,2.157,0,0,0,22.347,61Zm-.3,1.436L12.3,72.189,2.458,62.436ZM1.436,77.211V63.444L8.349,70.3Zm1.015,1.015,6.918-6.918,2.424,2.4a.718.718,0,0,0,1.013,0l2.364-2.363,6.88,6.88Zm20.614-1.015-6.88-6.88,6.88-6.88Z" transform="translate(0 -61)" fill="#96a0bf"/>
</svg>
