<svg xmlns="http://www.w3.org/2000/svg" width="19.137" height="21.353" viewBox="0 0 19.137 21.353">
  <path id="Path_20478" data-name="Path 20478" d="M6893.282,1443.1a.836.836,0,0,1-.2-.825l1-3.283a.835.835,0,0,1,.208-.348l4.58-4.569a2.5,2.5,0,0,1,3.538,3.539l-4.57,4.561a.83.83,0,0,1-.368.214l-3.366.933a.831.831,0,0,1-.819-.222Zm2.331-3.423-.5,1.632,1.694-.469,3.072-3.066-1.181-1.18Zm4.432-4.422-.161.161,1.18,1.18.162-.161a.834.834,0,0,0-1.18-1.179Zm-12.709,8.1a3.34,3.34,0,0,1-3.336-3.336v-14.68a3.34,3.34,0,0,1,3.336-3.336h10.255a3.341,3.341,0,0,1,3.336,3.336v5.13a.834.834,0,0,1-1.668,0v-5.13a1.671,1.671,0,0,0-1.668-1.668h-10.255a1.671,1.671,0,0,0-1.668,1.668v14.68a1.671,1.671,0,0,0,1.668,1.668h2.79a.834.834,0,0,1,0,1.668Zm.83-8.007a.834.834,0,0,1,0-1.668h5.217a.834.834,0,0,1,0,1.668Zm0-3.336a.834.834,0,0,1,0-1.668h8.591a.834.834,0,1,1,0,1.668Zm0-3.337a.834.834,0,0,1,0-1.668h8.591a.834.834,0,1,1,0,1.668Z" transform="translate(-6883.999 -1422)" fill="#bfd3e9"/>
</svg>
