<svg xmlns="http://www.w3.org/2000/svg" width="18.698" height="21.367" viewBox="0 0 18.698 21.367">
  <path id="Path_20477" data-name="Path 20477" d="M6887.338,1443.367a3.343,3.343,0,0,1-3.339-3.339v-6.844a3.343,3.343,0,0,1,3.339-3.339h1V1426.9a5.008,5.008,0,0,1,10.015,0v2.944h1a3.343,3.343,0,0,1,3.339,3.339v3.088a.835.835,0,0,1-1.67,0v-3.088a1.671,1.671,0,0,0-1.669-1.669h-12.02a1.672,1.672,0,0,0-1.67,1.669v6.844a1.672,1.672,0,0,0,1.67,1.669h12.02a1.671,1.671,0,0,0,1.669-1.669.835.835,0,0,1,1.67,0,3.343,3.343,0,0,1-3.339,3.339Zm2.669-16.465v2.944h6.678V1426.9a3.341,3.341,0,0,0-6.678,0Zm7.2,9.552a.864.864,0,1,1,.864.864A.864.864,0,0,1,6897.21,1436.454Zm-3.21,0a.865.865,0,1,1,.864.864A.865.865,0,0,1,6894,1436.454Zm-2.963,0a.8.8,0,1,1,.8.864A.834.834,0,0,1,6891.037,1436.454Zm-3.21,0a.864.864,0,1,1,.864.864A.864.864,0,0,1,6887.827,1436.454Z" transform="translate(-6883.999 -1422)" fill="#bfd3e9"/>
</svg>
