<svg xmlns="http://www.w3.org/2000/svg" width="21.361" height="21.358" viewBox="0 0 21.361 21.358">
  <path id="network" d="M12.371,14.5a7.922,7.922,0,0,0-1.664-.888,4.247,4.247,0,0,0,1.381-2.8,6.28,6.28,0,0,1,7.963-.652.834.834,0,1,0,.955-1.368A7.93,7.93,0,0,0,19.342,7.9a4.255,4.255,0,1,0-5.729-.009q-.175.067-.347.143a7.923,7.923,0,0,0-1.47.844A4.254,4.254,0,1,0,4.971,13.6,8.024,8.024,0,0,0,.125,18.589a2.5,2.5,0,0,0,2.383,3.27H9.767a.834.834,0,0,0,0-1.669H2.508a.835.835,0,0,1-.794-1.09,6.437,6.437,0,0,1,6.116-4.354,6.241,6.241,0,0,1,3.587,1.125.834.834,0,1,0,.955-1.368ZM16.483,2.169A2.586,2.586,0,1,1,13.9,4.756a2.589,2.589,0,0,1,2.586-2.586ZM7.848,7.879a2.586,2.586,0,1,1-2.586,2.586A2.589,2.589,0,0,1,7.848,7.879ZM21.364,17.9a.834.834,0,0,1-.834.834H18.235v2.294a.834.834,0,1,1-1.669,0V18.73H14.272a.834.834,0,0,1,0-1.669h2.294V14.767a.834.834,0,0,1,1.669,0v2.294h2.294a.834.834,0,0,1,.834.834Zm0,0" transform="translate(-0.003 -0.5)" fill="#bfd3e9"/>
</svg>
