<svg xmlns="http://www.w3.org/2000/svg" width="58.492" height="39.207" viewBox="0 0 58.492 39.207">
  <g id="Group_42614" data-name="Group 42614" transform="translate(3296.895 -10169.745)">
    <g id="Group_42613" data-name="Group 42613" transform="translate(12 18)">
      <rect id="Rectangle_2198" data-name="Rectangle 2198" width="58.392" height="39.107" transform="translate(-3308.845 10151.795)" fill="red"/>
      <rect id="Rectangle_2199" data-name="Rectangle 2199" width="58.392" height="26.072" transform="translate(-3308.845 10151.795)" fill="#fff"/>
      <rect id="Rectangle_2200" data-name="Rectangle 2200" width="58.392" height="13.04" transform="translate(-3308.845 10151.795)" fill="#008837"/>
      <rect id="Rectangle_2201" data-name="Rectangle 2201" width="58.392" height="39.107" transform="translate(-3308.845 10151.795)" fill="none" stroke="#000" stroke-width="0.1"/>
      <path id="Path_17277" data-name="Path 17277" d="M42.308-.573a.158.158,0,0,1-.158-.158V-.75a.159.159,0,0,1,.158-.158h3.926a.159.159,0,0,1,.158.158v.018a.159.159,0,0,1-.158.158Zm-.652,0A.159.159,0,0,1,41.5-.732v-1.02a.159.159,0,0,0-.158-.158h-.009a.159.159,0,0,0-.158.158v1.02a.159.159,0,0,1-.158.158H41a.159.159,0,0,1-.158-.158v-1.02a.159.159,0,0,0-.158-.158h-.013a.158.158,0,0,0-.158.158v1.02a.159.159,0,0,1-.158.158h-.005a.159.159,0,0,1-.158-.158V-2.077a.159.159,0,0,1,.158-.158h1.312a.159.159,0,0,1,.158.158v.343a.158.158,0,0,0,.158.158h.661a.158.158,0,0,0,.157-.158v-.017a.158.158,0,0,0-.157-.158h-.335a.159.159,0,0,1-.158-.158v-.009a.159.159,0,0,1,.158-.158h.661a.159.159,0,0,1,.158.158V-1.4a.158.158,0,0,1-.158.158h-.986a.159.159,0,0,0-.158.158v.352a.159.159,0,0,1-.158.158Zm-5.872,0a.159.159,0,0,1-.158-.158V-.75a.159.159,0,0,1,.158-.158h3.922a.159.159,0,0,1,.158.158v.018a.159.159,0,0,1-.158.158Zm-.652,0a.159.159,0,0,1-.158-.158v-1.02a.159.159,0,0,0-.158-.158H34.8a.158.158,0,0,0-.158.158v1.02a.159.159,0,0,1-.158.158h-.005a.159.159,0,0,1-.158-.158v-1.02a.158.158,0,0,0-.158-.158h-.013a.158.158,0,0,0-.158.158v1.02a.159.159,0,0,1-.158.158h-.009a.159.159,0,0,1-.158-.158V-2.077a.159.159,0,0,1,.158-.158h1.32a.159.159,0,0,1,.158.158v.343a.158.158,0,0,0,.158.158h.656a.159.159,0,0,0,.158-.158v-.017a.159.159,0,0,0-.158-.158h-.335a.159.159,0,0,1-.158-.158v-.009a.159.159,0,0,1,.158-.158h.665a.159.159,0,0,1,.158.158V-1.4a.158.158,0,0,1-.158.158h-.986a.159.159,0,0,0-.158.158v.352a.159.159,0,0,1-.158.158Zm-5.875,0A.158.158,0,0,1,29.1-.732V-.75a.158.158,0,0,1,.158-.158h3.926a.159.159,0,0,1,.158.158v.018a.159.159,0,0,1-.158.158Zm-.647,0a.158.158,0,0,1-.158-.158v-1.02a.159.159,0,0,0-.158-.158h-.014a.159.159,0,0,0-.158.158v1.02a.159.159,0,0,1-.158.158H27.95a.159.159,0,0,1-.158-.158v-1.02a.158.158,0,0,0-.158-.158h0a.159.159,0,0,0-.158.158v1.02a.159.159,0,0,1-.158.158H27.3a.159.159,0,0,1-.158-.158V-2.077a.159.159,0,0,1,.158-.158H28.62a.159.159,0,0,1,.158.158v.343a.158.158,0,0,0,.158.158h.66a.158.158,0,0,0,.158-.158v-.017A.158.158,0,0,0,29.6-1.91h-.338a.158.158,0,0,1-.158-.158v-.009a.159.159,0,0,1,.158-.158h.664a.159.159,0,0,1,.158.158V-1.4a.157.157,0,0,1-.158.158h-.986a.158.158,0,0,0-.158.158v.352a.159.159,0,0,1-.158.158Zm-5.872,0a.159.159,0,0,1-.158-.158V-.75a.159.159,0,0,1,.158-.158h3.922a.158.158,0,0,1,.158.158v.018a.158.158,0,0,1-.158.158Zm-.656,0a.159.159,0,0,1-.158-.158v-1.02a.158.158,0,0,0-.158-.158h0a.159.159,0,0,0-.158.158v1.02a.159.159,0,0,1-.158.158h-.014a.159.159,0,0,1-.158-.158v-1.02a.158.158,0,0,0-.158-.158h-.009a.159.159,0,0,0-.158.158v1.02a.158.158,0,0,1-.158.158h-.008a.158.158,0,0,1-.158-.158V-2.077a.158.158,0,0,1,.158-.158h1.311a.159.159,0,0,1,.158.158v.343a.159.159,0,0,0,.158.158h.665a.159.159,0,0,0,.158-.158v-.017a.159.159,0,0,0-.158-.158h-.335a.158.158,0,0,1-.158-.158v-.009a.159.159,0,0,1,.158-.158H23.4a.159.159,0,0,1,.158.158V-1.4a.157.157,0,0,1-.158.158h-.994a.159.159,0,0,0-.158.158v.352a.159.159,0,0,1-.158.158Zm-5.871,0a.159.159,0,0,1-.158-.158V-.75a.159.159,0,0,1,.158-.158h3.926A.159.159,0,0,1,20.3-.75v.018a.159.159,0,0,1-.158.158Zm-.652,0A.159.159,0,0,1,15.4-.732v-1.02a.159.159,0,0,0-.158-.158h-.009a.159.159,0,0,0-.158.158v1.02a.159.159,0,0,1-.158.158h-.009a.159.159,0,0,1-.158-.158v-1.02a.159.159,0,0,0-.158-.158h-.009a.159.159,0,0,0-.158.158v1.02a.158.158,0,0,1-.158.158h-.009A.159.159,0,0,1,14.1-.732V-2.077a.159.159,0,0,1,.158-.158H15.57a.159.159,0,0,1,.158.158v.343a.159.159,0,0,0,.158.158h.664a.159.159,0,0,0,.158-.158v-.017a.158.158,0,0,0-.158-.158h-.338a.159.159,0,0,1-.158-.158v-.009a.159.159,0,0,1,.158-.158h.664a.159.159,0,0,1,.158.158V-1.4a.158.158,0,0,1-.158.158h-.99a.159.159,0,0,0-.158.158v.352a.159.159,0,0,1-.158.158Zm-5.872,0a.159.159,0,0,1-.158-.158V-.75a.159.159,0,0,1,.158-.158h3.926a.158.158,0,0,1,.158.158v.018a.159.159,0,0,1-.158.158Zm-.652,0a.159.159,0,0,1-.158-.158v-1.02a.159.159,0,0,0-.158-.158H8.712a.159.159,0,0,0-.158.158v1.02A.158.158,0,0,1,8.4-.573H8.386a.159.159,0,0,1-.158-.158v-1.02a.158.158,0,0,0-.158-.158H8.06a.159.159,0,0,0-.158.158v1.02a.158.158,0,0,1-.158.158H7.735a.159.159,0,0,1-.158-.158V-2.077a.159.159,0,0,1,.158-.158H9.047a.158.158,0,0,1,.158.158v.343a.159.159,0,0,0,.158.158h.665a.159.159,0,0,0,.158-.158v-.017a.159.159,0,0,0-.158-.158H9.689a.159.159,0,0,1-.158-.158v-.009a.159.159,0,0,1,.158-.158h.661a.159.159,0,0,1,.158.158V-1.4a.158.158,0,0,1-.158.158H9.364a.159.159,0,0,0-.158.158v.352a.159.159,0,0,1-.158.158Zm-5.871,0a.158.158,0,0,1-.158-.158V-.75a.158.158,0,0,1,.158-.158H7.093a.159.159,0,0,1,.158.158v.018a.159.159,0,0,1-.158.158Zm-.653,0a.159.159,0,0,1-.158-.158v-1.02A.158.158,0,0,0,2.2-1.91H2.19a.158.158,0,0,0-.158.158v1.02a.159.159,0,0,1-.158.158H1.864a.158.158,0,0,1-.158-.158v-1.02a.159.159,0,0,0-.158-.158H1.534a.159.159,0,0,0-.158.158v1.02a.159.159,0,0,1-.158.158h0a.159.159,0,0,1-.158-.158V-2.077a.158.158,0,0,1,.158-.158H2.524a.158.158,0,0,1,.158.158v.343a.159.159,0,0,0,.158.158H3.5a.159.159,0,0,0,.159-.158v-.017A.159.159,0,0,0,3.5-1.91h-.33a.159.159,0,0,1-.158-.158v-.009a.159.159,0,0,1,.158-.158h.661a.159.159,0,0,1,.158.158V-1.4a.158.158,0,0,1-.158.158H2.84a.159.159,0,0,0-.158.158v.352a.158.158,0,0,1-.158.158Zm-5.879,0a.158.158,0,0,1-.158-.158V-.75a.159.159,0,0,1,.158-.158H.566A.159.159,0,0,1,.725-.75v.018a.159.159,0,0,1-.158.158Zm-.648,0a.159.159,0,0,1-.158-.158v-1.02a.158.158,0,0,0-.158-.158h-.008a.159.159,0,0,0-.158.158v1.02a.159.159,0,0,1-.158.158h-.005a.159.159,0,0,1-.158-.158v-1.02a.158.158,0,0,0-.158-.158h-.013a.159.159,0,0,0-.158.158v1.02a.159.159,0,0,1-.158.158h-.009a.159.159,0,0,1-.158-.158V-2.077a.158.158,0,0,1,.158-.158H-4a.159.159,0,0,1,.158.158v.343a.159.159,0,0,0,.158.158h.661a.159.159,0,0,0,.158-.158v-.017a.159.159,0,0,0-.158-.158h-.343a.159.159,0,0,1-.158-.158v-.009a.159.159,0,0,1,.158-.158H-2.7a.159.159,0,0,1,.158.158V-1.4a.158.158,0,0,1-.158.158h-.986a.159.159,0,0,0-.158.158v.352A.159.159,0,0,1-4-.573Zm-5.866,0a.158.158,0,0,1-.158-.158V-.75a.158.158,0,0,1,.158-.158h3.921A.159.159,0,0,1-5.8-.75v.018a.159.159,0,0,1-.158.158Zm-.81-.158v-1.02a.159.159,0,0,0-.158-.158h-.018a.159.159,0,0,0-.158.158v1.02a.158.158,0,0,1-.158.158.159.159,0,0,1-.158-.158v-1.02A.159.159,0,0,0-11.5-1.91h-.009a.159.159,0,0,0-.158.158v1.02a.159.159,0,0,1-.158.158h-.017A.158.158,0,0,1-12-.732V-2.077a.158.158,0,0,1,.158-.158h1.311a.159.159,0,0,1,.158.158v.343a.159.159,0,0,0,.158.158h.669a.158.158,0,0,0,.158-.158v-.017a.158.158,0,0,0-.158-.158h-.334a.158.158,0,0,1-.158-.158v-.009a.158.158,0,0,1,.158-.158h.66a.159.159,0,0,1,.158.158V-1.4a.157.157,0,0,1-.158.158h-.995a.159.159,0,0,0-.158.158v.352a.158.158,0,0,1-.158.158A.159.159,0,0,1-10.688-.732Zm55.607-.51A.158.158,0,0,1,44.76-1.4v-.351A.159.159,0,0,0,44.6-1.91h-.661a.159.159,0,0,0-.158.158v.017a.159.159,0,0,0,.158.158h.335a.159.159,0,0,1,.158.158V-1.4a.158.158,0,0,1-.158.158h-.661a.158.158,0,0,1-.158-.158v-.677a.159.159,0,0,1,.158-.158h1.312a.159.159,0,0,1,.158.158v.343a.159.159,0,0,0,.158.158h.664a.159.159,0,0,0,.158-.158v-.343a.159.159,0,0,1,.158-.158h.009a.159.159,0,0,1,.158.158V-1.4a.158.158,0,0,1-.158.158Zm-6.523,0a.158.158,0,0,1-.158-.158v-.351a.158.158,0,0,0-.158-.158h-.661a.159.159,0,0,0-.158.158v.017a.159.159,0,0,0,.158.158h.335a.158.158,0,0,1,.158.158V-1.4a.158.158,0,0,1-.158.158h-.66a.157.157,0,0,1-.158-.158v-.677a.158.158,0,0,1,.158-.158H38.4a.159.159,0,0,1,.158.158v.343a.159.159,0,0,0,.158.158h.656a.158.158,0,0,0,.158-.158v-.343a.159.159,0,0,1,.158-.158h.014a.159.159,0,0,1,.158.158V-1.4a.158.158,0,0,1-.158.158Zm-6.523,0a.158.158,0,0,1-.158-.158v-.351a.158.158,0,0,0-.158-.158h-.664a.159.159,0,0,0-.158.158v.017a.159.159,0,0,0,.158.158h.335a.159.159,0,0,1,.158.158V-1.4a.158.158,0,0,1-.158.158h-.661a.158.158,0,0,1-.158-.158v-.677a.159.159,0,0,1,.158-.158h1.316a.158.158,0,0,1,.158.158v.343a.159.159,0,0,0,.158.158h.661a.158.158,0,0,0,.158-.158v-.343a.159.159,0,0,1,.158-.158h.009a.159.159,0,0,1,.158.158V-1.4a.158.158,0,0,1-.158.158Zm-6.522,0a.158.158,0,0,1-.158-.158v-.351a.159.159,0,0,0-.158-.158h-.661a.159.159,0,0,0-.158.158v.017a.159.159,0,0,0,.158.158h.335a.159.159,0,0,1,.158.158V-1.4a.158.158,0,0,1-.158.158h-.664a.157.157,0,0,1-.158-.158v-.677a.158.158,0,0,1,.158-.158h1.316a.159.159,0,0,1,.158.158v.343a.159.159,0,0,0,.158.158h.661a.159.159,0,0,0,.158-.158v-.343a.159.159,0,0,1,.158-.158h.009a.158.158,0,0,1,.158.158V-1.4a.157.157,0,0,1-.158.158Zm-6.527,0a.158.158,0,0,1-.158-.158v-.351a.159.159,0,0,0-.158-.158h-.661a.159.159,0,0,0-.158.158v.017a.159.159,0,0,0,.158.158h.338a.158.158,0,0,1,.158.158V-1.4a.157.157,0,0,1-.158.158h-.664a.158.158,0,0,1-.158-.158v-.677a.159.159,0,0,1,.158-.158h1.316a.158.158,0,0,1,.158.158v.343a.159.159,0,0,0,.158.158h.661a.159.159,0,0,0,.158-.158v-.343a.159.159,0,0,1,.158-.158h.009a.159.159,0,0,1,.158.158V-1.4a.158.158,0,0,1-.158.158Zm-6.523,0a.158.158,0,0,1-.158-.158v-.351a.159.159,0,0,0-.158-.158h-.656a.159.159,0,0,0-.158.158v.017a.159.159,0,0,0,.158.158h.33a.158.158,0,0,1,.158.158V-1.4a.158.158,0,0,1-.158.158H11a.158.158,0,0,1-.158-.158v-.677A.159.159,0,0,1,11-2.236h1.317a.159.159,0,0,1,.158.158v.343a.158.158,0,0,0,.158.158h.66a.158.158,0,0,0,.158-.158v-.343a.159.159,0,0,1,.158-.158h.009a.158.158,0,0,1,.158.158V-1.4a.157.157,0,0,1-.158.158Zm-6.519,0A.158.158,0,0,1,5.622-1.4v-.351a.159.159,0,0,0-.158-.158H4.8a.158.158,0,0,0-.158.158v.017a.159.159,0,0,0,.158.158h.339a.159.159,0,0,1,.158.158V-1.4a.158.158,0,0,1-.158.158H4.474A.157.157,0,0,1,4.316-1.4v-.677a.158.158,0,0,1,.158-.158H5.785a.158.158,0,0,1,.158.158v.343a.159.159,0,0,0,.159.158h.664a.159.159,0,0,0,.158-.158v-.343a.159.159,0,0,1,.158-.158h.009a.159.159,0,0,1,.158.158V-1.4a.158.158,0,0,1-.158.158Zm-6.527,0A.158.158,0,0,1-.9-1.4v-.351a.159.159,0,0,0-.158-.158h-.664a.158.158,0,0,0-.158.158v.017a.158.158,0,0,0,.158.158h.334a.158.158,0,0,1,.158.158V-1.4a.157.157,0,0,1-.158.158h-.656A.158.158,0,0,1-2.208-1.4v-.677a.159.159,0,0,1,.158-.158H-.734a.158.158,0,0,1,.158.158v.343a.159.159,0,0,0,.158.158H.244A.158.158,0,0,0,.4-1.734v-.343a.159.159,0,0,1,.158-.158H.566a.159.159,0,0,1,.158.158V-1.4a.158.158,0,0,1-.158.158Zm-6.523,0A.158.158,0,0,1-7.428-1.4v-.351a.158.158,0,0,0-.158-.158h-.669a.159.159,0,0,0-.158.158v.017a.159.159,0,0,0,.158.158h.335a.159.159,0,0,1,.158.158V-1.4a.158.158,0,0,1-.158.158h-.656A.158.158,0,0,1-8.734-1.4v-.677a.159.159,0,0,1,.158-.158H-7.26a.158.158,0,0,1,.158.158v.343a.159.159,0,0,0,.158.158h.661a.159.159,0,0,0,.158-.158v-.343a.159.159,0,0,1,.158-.158h.009a.159.159,0,0,1,.158.158V-1.4a.158.158,0,0,1-.158.158ZM45.57-1.91a.159.159,0,0,1-.159-.158v-.009a.159.159,0,0,1,.159-.158h.008a.159.159,0,0,1,.159.158v.009a.159.159,0,0,1-.159.158Zm-6.523,0a.159.159,0,0,1-.158-.158v-.009a.159.159,0,0,1,.158-.158h.009a.159.159,0,0,1,.158.158v.009a.159.159,0,0,1-.158.158Zm-6.523,0a.159.159,0,0,1-.158-.158v-.009a.159.159,0,0,1,.158-.158h.009a.159.159,0,0,1,.158.158v.009a.159.159,0,0,1-.158.158ZM26-1.91a.158.158,0,0,1-.158-.158v-.009A.159.159,0,0,1,26-2.236h.009a.159.159,0,0,1,.158.158v.009a.159.159,0,0,1-.158.158Zm-6.523,0a.159.159,0,0,1-.158-.158v-.009a.159.159,0,0,1,.158-.158h.005a.159.159,0,0,1,.158.158v.009a.159.159,0,0,1-.158.158Zm-6.522,0a.159.159,0,0,1-.159-.158v-.009a.159.159,0,0,1,.159-.158h0a.159.159,0,0,1,.158.158v.009a.159.159,0,0,1-.158.158Zm-6.528,0a.159.159,0,0,1-.158-.158v-.009a.159.159,0,0,1,.158-.158h.014a.159.159,0,0,1,.158.158v.009a.159.159,0,0,1-.158.158Zm-6.522,0a.158.158,0,0,1-.158-.158v-.009a.159.159,0,0,1,.158-.158h.009a.159.159,0,0,1,.158.158v.009a.159.159,0,0,1-.158.158Zm-6.523,0a.159.159,0,0,1-.158-.158v-.009a.159.159,0,0,1,.158-.158h.009a.159.159,0,0,1,.158.158v.009a.159.159,0,0,1-.158.158Zm50.233-.668a.159.159,0,0,1-.158-.158v-.352a.159.159,0,0,1,.158-.158h2.619a.159.159,0,0,1,.158.158v.352a.159.159,0,0,1-.158.158Zm-3.262,0a.159.159,0,0,1-.158-.158v-.352a.159.159,0,0,1,.158-.158h2.614a.158.158,0,0,1,.158.158v.352a.158.158,0,0,1-.158.158Zm-3.262,0a.159.159,0,0,1-.158-.158v-.352a.159.159,0,0,1,.158-.158h2.615a.159.159,0,0,1,.158.158v.352a.159.159,0,0,1-.158.158Zm-3.265,0a.159.159,0,0,1-.158-.158v-.352a.159.159,0,0,1,.158-.158H36.45a.159.159,0,0,1,.158.158v.352a.159.159,0,0,1-.158.158Zm-3.262,0a.159.159,0,0,1-.158-.158v-.352a.159.159,0,0,1,.158-.158h2.619a.159.159,0,0,1,.158.158v.352a.159.159,0,0,1-.158.158Zm-3.262,0a.159.159,0,0,1-.158-.158v-.352a.159.159,0,0,1,.158-.158h2.619a.159.159,0,0,1,.158.158v.352a.159.159,0,0,1-.158.158Zm-3.261,0a.158.158,0,0,1-.158-.158v-.352a.158.158,0,0,1,.158-.158h2.618a.158.158,0,0,1,.158.158v.352a.158.158,0,0,1-.158.158Zm-3.262,0a.158.158,0,0,1-.158-.158v-.352a.159.159,0,0,1,.158-.158H23.4a.158.158,0,0,1,.158.158v.352a.159.159,0,0,1-.158.158Zm-3.262,0a.159.159,0,0,1-.158-.158v-.352a.159.159,0,0,1,.158-.158h2.619a.159.159,0,0,1,.158.158v.352a.159.159,0,0,1-.158.158Zm-3.262,0a.159.159,0,0,1-.158-.158v-.352a.159.159,0,0,1,.158-.158h2.619a.159.159,0,0,1,.158.158v.352a.159.159,0,0,1-.158.158ZM11-2.578a.159.159,0,0,1-.158-.158v-.352A.159.159,0,0,1,11-3.246h2.619a.158.158,0,0,1,.158.158v.352a.158.158,0,0,1-.158.158Zm-3.262,0a.159.159,0,0,1-.158-.158v-.352a.159.159,0,0,1,.158-.158H10.35a.159.159,0,0,1,.158.158v.352a.159.159,0,0,1-.158.158Zm-3.261,0a.158.158,0,0,1-.158-.158v-.352a.159.159,0,0,1,.158-.158H7.093a.159.159,0,0,1,.158.158v.352a.159.159,0,0,1-.158.158Zm-3.262,0a.159.159,0,0,1-.158-.158v-.352a.159.159,0,0,1,.158-.158H3.827a.159.159,0,0,1,.158.158v.352a.159.159,0,0,1-.158.158Zm-3.262,0a.159.159,0,0,1-.158-.158v-.352a.159.159,0,0,1,.158-.158H.566a.159.159,0,0,1,.158.158v.352a.159.159,0,0,1-.158.158Zm-3.265,0a.158.158,0,0,1-.158-.158v-.352a.159.159,0,0,1,.158-.158H-2.7a.159.159,0,0,1,.158.158v.352a.159.159,0,0,1-.158.158Zm-3.262,0a.159.159,0,0,1-.158-.158v-.352a.159.159,0,0,1,.158-.158h2.619a.159.159,0,0,1,.158.158v.352a.159.159,0,0,1-.158.158Zm-3.265,0A.158.158,0,0,1-12-2.736v-.352a.158.158,0,0,1,.158-.158h2.623a.159.159,0,0,1,.158.158v.352a.159.159,0,0,1-.158.158Zm56.763-13.76a.158.158,0,0,1-.158-.158v-.343A.158.158,0,0,0,44.6-17h-.669a.159.159,0,0,0-.158.158v.017a.159.159,0,0,0,.158.158h.335a.159.159,0,0,1,.158.158v.009a.159.159,0,0,1-.158.158H43.61a.158.158,0,0,1-.158-.158v-.677a.159.159,0,0,1,.158-.158H44.6a.159.159,0,0,0,.158-.158v-.352A.159.159,0,0,1,44.922-18h0a.159.159,0,0,1,.158.158v1.02a.159.159,0,0,0,.158.158h.017a.158.158,0,0,0,.158-.158v-1.02A.159.159,0,0,1,45.573-18h0a.159.159,0,0,1,.158.158v1.02a.158.158,0,0,0,.158.158H45.9a.158.158,0,0,0,.158-.158v-1.02A.158.158,0,0,1,46.217-18h.017a.159.159,0,0,1,.158.158V-16.5a.158.158,0,0,1-.158.158Zm-3.27,0a.158.158,0,0,1-.158-.158v-.343A.159.159,0,0,0,41.335-17h-.661a.159.159,0,0,0-.158.158v.343a.158.158,0,0,1-.158.158h-.009a.159.159,0,0,1-.158-.158v-.677a.159.159,0,0,1,.158-.158h1.312a.159.159,0,0,1,.158.158v.351a.158.158,0,0,0,.158.158h.669a.158.158,0,0,0,.158-.158v-.017A.159.159,0,0,0,42.646-17h-.335a.159.159,0,0,1-.158-.158v-.017a.159.159,0,0,1,.158-.158h.656a.158.158,0,0,1,.158.158v.677a.157.157,0,0,1-.158.158Zm-.652,0a.159.159,0,0,1-.158-.158v-.009A.159.159,0,0,1,41-16.663h.009a.158.158,0,0,1,.158.158v.009a.158.158,0,0,1-.158.158Zm-2.609,0a.157.157,0,0,1-.158-.158v-.343A.159.159,0,0,0,38.074-17h-.66a.159.159,0,0,0-.158.158v.017a.158.158,0,0,0,.158.158h.343a.159.159,0,0,1,.158.158v.009a.159.159,0,0,1-.158.158h-.669a.157.157,0,0,1-.158-.158v-.677a.158.158,0,0,1,.158-.158h.986a.159.159,0,0,0,.159-.158v-.352A.158.158,0,0,1,38.391-18H38.4a.159.159,0,0,1,.158.158v1.02a.159.159,0,0,0,.158.158h.009a.158.158,0,0,0,.158-.158v-1.02A.159.159,0,0,1,39.047-18h0a.159.159,0,0,1,.158.158v1.02a.159.159,0,0,0,.158.158h.014a.158.158,0,0,0,.158-.158v-1.02A.159.159,0,0,1,39.7-18h.009a.159.159,0,0,1,.158.158V-16.5a.158.158,0,0,1-.158.158Zm-3.266,0a.158.158,0,0,1-.158-.158v-.343A.159.159,0,0,0,34.808-17h-.661a.159.159,0,0,0-.158.158v.343a.158.158,0,0,1-.158.158h0a.159.159,0,0,1-.158-.158v-.677a.159.159,0,0,1,.158-.158h1.312a.159.159,0,0,1,.158.158v.351a.158.158,0,0,0,.158.158h.664a.159.159,0,0,0,.158-.158v-.017A.159.159,0,0,0,36.12-17h-.334a.159.159,0,0,1-.159-.158v-.017a.159.159,0,0,1,.159-.158h.655a.158.158,0,0,1,.158.158v.677a.157.157,0,0,1-.158.158Zm-.647,0a.159.159,0,0,1-.158-.158v-.009a.159.159,0,0,1,.158-.158h.009a.159.159,0,0,1,.158.158v.009a.158.158,0,0,1-.158.158Zm-2.61,0a.158.158,0,0,1-.158-.158v-.343A.159.159,0,0,0,31.551-17H30.9a.159.159,0,0,0-.158.158v.017a.158.158,0,0,0,.158.158h.33a.159.159,0,0,1,.158.158v.009a.159.159,0,0,1-.158.158h-.661a.158.158,0,0,1-.158-.158v-.677a.159.159,0,0,1,.158-.158h.986a.159.159,0,0,0,.158-.158v-.352A.159.159,0,0,1,31.868-18h.009a.159.159,0,0,1,.158.158v1.02a.159.159,0,0,0,.158.158H32.2a.158.158,0,0,0,.158-.158v-1.02A.158.158,0,0,1,32.52-18h.009a.159.159,0,0,1,.158.158v1.02a.158.158,0,0,0,.158.158h.013a.157.157,0,0,0,.158-.158v-1.02A.159.159,0,0,1,33.175-18h0a.159.159,0,0,1,.159.158V-16.5a.158.158,0,0,1-.159.158Zm-3.262,0a.158.158,0,0,1-.158-.158v-.343A.159.159,0,0,0,28.29-17h-.664a.158.158,0,0,0-.158.158v.343a.158.158,0,0,1-.158.158H27.3a.158.158,0,0,1-.158-.158v-.677a.159.159,0,0,1,.158-.158h1.311a.158.158,0,0,1,.158.158v.351a.158.158,0,0,0,.158.158h.67a.159.159,0,0,0,.158-.158v-.017A.159.159,0,0,0,29.6-17h-.339a.159.159,0,0,1-.158-.158v-.017a.159.159,0,0,1,.158-.158h.661a.159.159,0,0,1,.158.158v.677a.158.158,0,0,1-.158.158Zm-.655,0a.159.159,0,0,1-.159-.158v-.009a.159.159,0,0,1,.159-.158h.013a.159.159,0,0,1,.158.158v.009a.158.158,0,0,1-.158.158Zm-2.606,0a.158.158,0,0,1-.158-.158v-.343A.158.158,0,0,0,25.028-17h-.664a.159.159,0,0,0-.158.158v.017a.159.159,0,0,0,.158.158H24.7a.159.159,0,0,1,.158.158v.009a.157.157,0,0,1-.157.158h-.661a.158.158,0,0,1-.158-.158v-.677a.159.159,0,0,1,.158-.158h.986a.158.158,0,0,0,.158-.158v-.352A.159.159,0,0,1,25.345-18h.009a.158.158,0,0,1,.158.158v1.02a.159.159,0,0,0,.158.158h.009a.158.158,0,0,0,.158-.158v-1.02A.159.159,0,0,1,26-18h.009a.159.159,0,0,1,.158.158v1.02a.159.159,0,0,0,.158.158h.009a.158.158,0,0,0,.158-.158v-1.02A.159.159,0,0,1,26.648-18h.009a.159.159,0,0,1,.158.158V-16.5a.158.158,0,0,1-.158.158Zm-3.265,0a.158.158,0,0,1-.158-.158v-.343A.159.159,0,0,0,21.763-17H21.1a.159.159,0,0,0-.158.158v.343a.158.158,0,0,1-.158.158h-.009a.159.159,0,0,1-.158-.158v-.677a.159.159,0,0,1,.158-.158h1.317a.159.159,0,0,1,.158.158v.351a.157.157,0,0,0,.158.158h.656a.159.159,0,0,0,.158-.158v-.017A.159.159,0,0,0,23.066-17h-.331a.159.159,0,0,1-.158-.158v-.017a.159.159,0,0,1,.158-.158H23.4a.158.158,0,0,1,.158.158v.677a.157.157,0,0,1-.158.158Zm-.647,0a.159.159,0,0,1-.158-.158v-.009a.159.159,0,0,1,.158-.158h0a.159.159,0,0,1,.158.158v.009a.158.158,0,0,1-.158.158Zm-2.61,0a.157.157,0,0,1-.158-.158v-.343A.159.159,0,0,0,18.506-17h-.665a.159.159,0,0,0-.158.158v.017a.159.159,0,0,0,.158.158h.339a.159.159,0,0,1,.158.158v.009a.159.159,0,0,1-.158.158h-.665a.158.158,0,0,1-.158-.158v-.677a.159.159,0,0,1,.158-.158h.991a.159.159,0,0,0,.158-.158v-.352A.158.158,0,0,1,18.823-18h.009a.159.159,0,0,1,.158.158v1.02a.158.158,0,0,0,.158.158h.009a.158.158,0,0,0,.158-.158v-1.02A.158.158,0,0,1,19.474-18h.008a.158.158,0,0,1,.158.158v1.02a.159.159,0,0,0,.158.158h.009a.158.158,0,0,0,.158-.158v-1.02A.159.159,0,0,1,20.125-18h.009a.159.159,0,0,1,.158.158V-16.5a.157.157,0,0,1-.158.158Zm-3.266,0A.158.158,0,0,1,15.4-16.5v-.343A.159.159,0,0,0,15.24-17h-.661a.159.159,0,0,0-.158.158v.343a.157.157,0,0,1-.158.158h-.009a.159.159,0,0,1-.158-.158v-.677a.159.159,0,0,1,.158-.158H15.57a.159.159,0,0,1,.158.158v.351a.157.157,0,0,0,.158.158h.66a.158.158,0,0,0,.158-.158v-.017A.158.158,0,0,0,16.547-17h-.338a.159.159,0,0,1-.158-.158v-.017a.159.159,0,0,1,.158-.158h.664a.158.158,0,0,1,.158.158v.677a.157.157,0,0,1-.158.158Zm-.647,0a.159.159,0,0,1-.158-.158v-.009a.159.159,0,0,1,.158-.158h0a.158.158,0,0,1,.158.158v.009a.158.158,0,0,1-.158.158Zm-2.61,0a.158.158,0,0,1-.158-.158v-.343A.159.159,0,0,0,11.983-17h-.665a.159.159,0,0,0-.158.158v.017a.159.159,0,0,0,.158.158h.335a.159.159,0,0,1,.158.158v.009a.158.158,0,0,1-.158.158h-.665a.158.158,0,0,1-.158-.158v-.677a.159.159,0,0,1,.158-.158h.995a.158.158,0,0,0,.158-.158v-.352A.159.159,0,0,1,12.3-18h.009a.159.159,0,0,1,.158.158v1.02a.159.159,0,0,0,.158.158h0a.157.157,0,0,0,.158-.158v-1.02A.159.159,0,0,1,12.947-18h.013a.159.159,0,0,1,.158.158v1.02a.159.159,0,0,0,.158.158h.009a.158.158,0,0,0,.158-.158v-1.02A.159.159,0,0,1,13.6-18h.009a.159.159,0,0,1,.158.158V-16.5a.158.158,0,0,1-.158.158Zm-3.265,0a.158.158,0,0,1-.159-.158v-.343A.158.158,0,0,0,8.717-17h-.66a.158.158,0,0,0-.158.158v.343a.158.158,0,0,1-.158.158H7.731a.159.159,0,0,1-.158-.158v-.677a.159.159,0,0,1,.158-.158H9.043a.159.159,0,0,1,.158.158v.351a.157.157,0,0,0,.158.158h.66a.158.158,0,0,0,.158-.158v-.017A.158.158,0,0,0,10.02-17H9.685a.159.159,0,0,1-.158-.158v-.017a.159.159,0,0,1,.158-.158h.665a.159.159,0,0,1,.158.158v.677a.158.158,0,0,1-.158.158Zm-.652,0a.159.159,0,0,1-.158-.158v-.009a.159.159,0,0,1,.158-.158h.009a.159.159,0,0,1,.158.158v.009a.158.158,0,0,1-.158.158Zm-2.61,0a.158.158,0,0,1-.158-.158v-.343A.159.159,0,0,0,5.456-17H4.8a.159.159,0,0,0-.158.158v.017a.159.159,0,0,0,.158.158h.339a.159.159,0,0,1,.158.158v.009a.159.159,0,0,1-.158.158H4.469a.158.158,0,0,1-.158-.158v-.677a.159.159,0,0,1,.158-.158h.986a.159.159,0,0,0,.158-.158v-.352A.159.159,0,0,1,5.773-18h.009a.159.159,0,0,1,.158.158v1.02a.159.159,0,0,0,.158.158h.013a.157.157,0,0,0,.158-.158v-1.02A.159.159,0,0,1,6.428-18h.014a.159.159,0,0,1,.158.158v1.02a.159.159,0,0,0,.158.158h0a.157.157,0,0,0,.158-.158v-1.02A.159.159,0,0,1,7.079-18h.009a.159.159,0,0,1,.158.158V-16.5a.158.158,0,0,1-.158.158Zm-3.262,0a.158.158,0,0,1-.158-.158v-.343A.159.159,0,0,0,2.194-17H1.534a.159.159,0,0,0-.158.158v.343a.158.158,0,0,1-.158.158H1.208A.157.157,0,0,1,1.05-16.5v-.677a.158.158,0,0,1,.158-.158H2.52a.159.159,0,0,1,.158.158v.351a.158.158,0,0,0,.158.158H3.5a.158.158,0,0,0,.158-.158v-.017A.158.158,0,0,0,3.5-17H3.167a.158.158,0,0,1-.158-.158v-.017a.158.158,0,0,1,.158-.158h.66a.158.158,0,0,1,.158.158v.677a.158.158,0,0,1-.158.158Zm-.652,0A.159.159,0,0,1,1.7-16.5v-.009a.159.159,0,0,1,.158-.158h.009a.159.159,0,0,1,.158.158v.009a.158.158,0,0,1-.158.158Zm-2.614,0A.158.158,0,0,1-.913-16.5v-.343A.159.159,0,0,0-1.071-17h-.656a.159.159,0,0,0-.158.158v.017a.159.159,0,0,0,.158.158h.335a.159.159,0,0,1,.158.158v.009a.159.159,0,0,1-.159.158h-.664a.158.158,0,0,1-.158-.158v-.677a.159.159,0,0,1,.158-.158h.986a.159.159,0,0,0,.158-.158v-.352A.159.159,0,0,1-.754-18h.013a.158.158,0,0,1,.158.158v1.02a.159.159,0,0,0,.158.158h.014a.158.158,0,0,0,.158-.158v-1.02A.159.159,0,0,1-.095-18h0a.158.158,0,0,1,.158.158v1.02a.159.159,0,0,0,.158.158H.24A.158.158,0,0,0,.4-16.822v-1.02A.159.159,0,0,1,.557-18H.566a.159.159,0,0,1,.158.158V-16.5a.158.158,0,0,1-.158.158Zm-3.258,0a.158.158,0,0,1-.158-.158v-.343A.158.158,0,0,0-4.329-17h-.656a.159.159,0,0,0-.158.158v.343a.157.157,0,0,1-.158.158h-.013a.159.159,0,0,1-.158-.158v-.677a.159.159,0,0,1,.158-.158H-4a.159.159,0,0,1,.158.158v.351a.157.157,0,0,0,.158.158h.66a.158.158,0,0,0,.158-.158v-.017A.159.159,0,0,0-3.026-17h-.335a.159.159,0,0,1-.158-.158v-.017a.159.159,0,0,1,.158-.158H-2.7a.159.159,0,0,1,.158.158v.677a.158.158,0,0,1-.158.158Zm-.651,0a.158.158,0,0,1-.158-.158v-.009a.158.158,0,0,1,.158-.158h.008a.158.158,0,0,1,.158.158v.009a.157.157,0,0,1-.158.158Zm-2.61,0a.158.158,0,0,1-.158-.158v-.343A.159.159,0,0,0-7.59-17H-8.25a.159.159,0,0,0-.158.158v.017a.159.159,0,0,0,.158.158h.335a.159.159,0,0,1,.158.158v.009a.159.159,0,0,1-.158.158h-.661a.158.158,0,0,1-.158-.158v-.677a.159.159,0,0,1,.158-.158h.986a.159.159,0,0,0,.158-.158v-.352A.158.158,0,0,1-7.273-18h.009a.159.159,0,0,1,.158.158v1.02a.158.158,0,0,0,.158.158h.009a.158.158,0,0,0,.158-.158v-1.02A.158.158,0,0,1-6.621-18h.008a.158.158,0,0,1,.158.158v1.02a.159.159,0,0,0,.158.158h.013a.158.158,0,0,0,.158-.158v-1.02A.159.159,0,0,1-5.966-18h0a.158.158,0,0,1,.158.158V-16.5a.157.157,0,0,1-.158.158Zm-3.262,0a.158.158,0,0,1-.158-.158v-.343A.159.159,0,0,0-10.851-17h-.665a.159.159,0,0,0-.158.158v.343a.157.157,0,0,1-.158.158h-.008A.158.158,0,0,1-12-16.5v-.677a.158.158,0,0,1,.158-.158h1.316a.159.159,0,0,1,.158.158v.351a.157.157,0,0,0,.158.158h.661a.159.159,0,0,0,.158-.158v-.017A.159.159,0,0,0-9.548-17h-.335a.158.158,0,0,1-.158-.158v-.017a.159.159,0,0,1,.158-.158h.66a.158.158,0,0,1,.158.158v.677a.157.157,0,0,1-.158.158Zm-.652,0a.159.159,0,0,1-.158-.158v-.009a.159.159,0,0,1,.158-.158h.009a.159.159,0,0,1,.158.158v.009a.158.158,0,0,1-.158.158Zm51.535-1.328a.159.159,0,0,1-.158-.158v-.018A.159.159,0,0,1,40.349-18h3.922a.159.159,0,0,1,.158.158v.018a.159.159,0,0,1-.158.158Zm-6.522,0a.159.159,0,0,1-.158-.158v-.018A.159.159,0,0,1,33.826-18h3.93a.159.159,0,0,1,.158.158v.018a.159.159,0,0,1-.158.158Zm-6.527,0a.158.158,0,0,1-.158-.158v-.018A.158.158,0,0,1,27.3-18h3.926a.159.159,0,0,1,.158.158v.018a.159.159,0,0,1-.158.158Zm-6.523,0a.159.159,0,0,1-.158-.158v-.018A.159.159,0,0,1,20.777-18H24.7a.158.158,0,0,1,.158.158v.018a.158.158,0,0,1-.158.158Zm-6.523,0a.159.159,0,0,1-.158-.158v-.018A.159.159,0,0,1,14.253-18H18.18a.159.159,0,0,1,.158.158v.018a.159.159,0,0,1-.158.158Zm-6.522,0a.159.159,0,0,1-.158-.158v-.018A.159.159,0,0,1,7.731-18h3.922a.159.159,0,0,1,.158.158v.018a.159.159,0,0,1-.158.158Zm-6.523,0a.159.159,0,0,1-.158-.158v-.018A.159.159,0,0,1,1.208-18H5.135a.159.159,0,0,1,.158.158v.018a.159.159,0,0,1-.158.158Zm-6.522,0a.159.159,0,0,1-.158-.158v-.018A.159.159,0,0,1-5.315-18h3.921a.158.158,0,0,1,.158.158v.018a.158.158,0,0,1-.158.158Zm-6.527,0A.158.158,0,0,1-12-17.824v-.018A.158.158,0,0,1-11.841-18h3.926a.159.159,0,0,1,.158.158v.018a.159.159,0,0,1-.158.158Z" transform="translate(-3296.845 10180.635)" fill="#fff"/>
      <path id="Path_17216" data-name="Path 17216" d="M.158,197.844H2.777a.158.158,0,0,0,.158-.158v-.351a.158.158,0,0,0-.158-.158H.158a.158.158,0,0,0-.158.158v.351A.158.158,0,0,0,.158,197.844Zm3.266,0H6.039a.158.158,0,0,0,.158-.158v-.351a.158.158,0,0,0-.158-.158H3.424a.158.158,0,0,0-.158.158v.351A.158.158,0,0,0,3.424,197.844Z" transform="translate(-3308.845 9967.463)" fill="#fff"/>
      <path id="Path_17217" data-name="Path 17217" d="M57.387,197.844H60a.158.158,0,0,0,.158-.158v-.351a.158.158,0,0,0-.158-.158H57.387a.158.158,0,0,0-.158.158v.351A.159.159,0,0,0,57.387,197.844Zm3.257,0h2.623a.158.158,0,0,0,.158-.158v-.351a.158.158,0,0,0-.158-.158H60.645a.158.158,0,0,0-.158.158v.351A.158.158,0,0,0,60.645,197.844Z" transform="translate(-3359.547 9967.463)" fill="#fff"/>
      <path id="Path_17218" data-name="Path 17218" d="M114.583,197.844H117.2a.158.158,0,0,0,.158-.158v-.351a.158.158,0,0,0-.158-.158h-2.619a.158.158,0,0,0-.158.158v.351A.158.158,0,0,0,114.583,197.844Zm3.261,0h2.619a.158.158,0,0,0,.158-.158v-.351a.158.158,0,0,0-.158-.158h-2.619a.158.158,0,0,0-.158.158v.351A.159.159,0,0,0,117.845,197.844Z" transform="translate(-3410.22 9967.463)" fill="#fff"/>
      <path id="Path_17219" data-name="Path 17219" d="M171.776,197.844H174.4a.158.158,0,0,0,.158-.158v-.351a.158.158,0,0,0-.158-.158h-2.619a.158.158,0,0,0-.158.158v.351A.159.159,0,0,0,171.776,197.844Zm3.257,0h2.623a.158.158,0,0,0,.158-.158v-.351a.158.158,0,0,0-.158-.158h-2.623a.158.158,0,0,0-.158.158v.351A.158.158,0,0,0,175.034,197.844Z" transform="translate(-3460.891 9967.463)" fill="#fff"/>
      <path id="Path_17220" data-name="Path 17220" d="M228.969,197.844h2.619a.158.158,0,0,0,.158-.158v-.351a.158.158,0,0,0-.158-.158h-2.619a.158.158,0,0,0-.158.158v.351A.158.158,0,0,0,228.969,197.844Zm3.261,0h2.619a.158.158,0,0,0,.158-.158v-.351a.158.158,0,0,0-.158-.158h-2.619a.158.158,0,0,0-.158.158v.351A.158.158,0,0,0,232.231,197.844Z" transform="translate(-3511.561 9967.463)" fill="#fff"/>
      <path id="Path_17221" data-name="Path 17221" d="M286.164,197.844h2.619a.158.158,0,0,0,.158-.158v-.351a.158.158,0,0,0-.158-.158h-2.619a.158.158,0,0,0-.158.158v.351A.158.158,0,0,0,286.164,197.844Zm3.266,0h2.615a.158.158,0,0,0,.158-.158v-.351a.158.158,0,0,0-.158-.158H289.43a.158.158,0,0,0-.158.158v.351A.158.158,0,0,0,289.43,197.844Z" transform="translate(-3562.233 9967.463)" fill="#fff"/>
      <path id="Path_17222" data-name="Path 17222" d="M343.358,197.844h2.619a.158.158,0,0,0,.158-.158v-.351a.158.158,0,0,0-.158-.158h-2.619a.158.158,0,0,0-.158.158v.351A.158.158,0,0,0,343.358,197.844Zm3.266,0h2.615a.158.158,0,0,0,.158-.158v-.351a.158.158,0,0,0-.158-.158h-2.615a.158.158,0,0,0-.158.158v.351A.158.158,0,0,0,346.624,197.844Z" transform="translate(-3612.904 9967.463)" fill="#fff"/>
      <path id="Path_17223" data-name="Path 17223" d="M400.589,197.844H403.2a.158.158,0,0,0,.158-.158v-.351a.158.158,0,0,0-.158-.158h-2.615a.158.158,0,0,0-.158.158v.351A.158.158,0,0,0,400.589,197.844Zm3.261,0h2.619a.158.158,0,0,0,.158-.158v-.351a.158.158,0,0,0-.158-.158h-2.619a.158.158,0,0,0-.158.158v.351A.158.158,0,0,0,403.851,197.844Z" transform="translate(-3663.608 9967.463)" fill="#fff"/>
      <path id="Path_17224" data-name="Path 17224" d="M457.782,197.844H460.4a.158.158,0,0,0,.158-.158v-.351a.158.158,0,0,0-.158-.158h-2.619a.158.158,0,0,0-.158.158v.351A.159.159,0,0,0,457.782,197.844Zm3.262,0h2.623a.158.158,0,0,0,.158-.158v-.351a.158.158,0,0,0-.158-.158h-2.623a.158.158,0,0,0-.158.158v.351A.158.158,0,0,0,461.044,197.844Z" transform="translate(-3714.279 9967.463)" fill="#fff"/>
      <path id="Path_17278" data-name="Path 17278" d="M-6.114-6.4l-.349-.678a5.4,5.4,0,0,1-2.757-.1A.065.065,0,0,1-9.2-7.308a6,6,0,0,0,2.121-.337,5.424,5.424,0,0,1-2.453-2.733,5.477,5.477,0,0,1,1.287-5.981.065.065,0,0,1,.1.083,5.913,5.913,0,0,0,1.486,7.79l-.113-7.46a.334.334,0,0,1,.121-.26l.391-.319a.329.329,0,0,1,.416,0l.4.319a.33.33,0,0,1,.122.262l-.116,7.455a5.905,5.905,0,0,0,1.481-7.787.065.065,0,0,1,.1-.083A5.472,5.472,0,0,1-2.58-10.378,5.424,5.424,0,0,1-5.034-7.645a6.026,6.026,0,0,0,2.126.337.065.065,0,0,1,.018.128,5.4,5.4,0,0,1-2.757.1L-6-6.4a.064.064,0,0,1-.058.035A.064.064,0,0,1-6.114-6.4Zm3.852-2.222a5.892,5.892,0,0,0-1.021-8.018.066.066,0,0,1,.066-.112,4.626,4.626,0,0,1,2.541,2.18A4.659,4.659,0,0,1-2.561-8.251C-2.461-8.363-2.357-8.5-2.262-8.626Zm-9.171-5.95A4.63,4.63,0,0,1-8.9-16.754a.066.066,0,0,1,.066.112A5.891,5.891,0,0,0-9.848-8.626a3.5,3.5,0,0,0,.3.374A4.651,4.651,0,0,1-11.433-14.576Zm4.543-2.372A.861.861,0,0,1-7.506-18c.016.024.04.056.052.08a1.01,1.01,0,0,0,1.4.2c.02.016.051.031.076.048A.993.993,0,0,0-4.6-18a.864.864,0,0,1-.236.837.868.868,0,0,1-1.214-.016.865.865,0,0,1-.617.26A.858.858,0,0,1-6.89-16.948Z" transform="translate(-3273.593 10183.538)" fill="red"/>
    </g>
  </g>
</svg>
