<svg xmlns="http://www.w3.org/2000/svg" width="33.56" height="19.582" viewBox="0 0 33.56 19.582">
  <g id="zh" transform="translate(-3704 -518)">
    <rect id="Rectangle_5" data-name="Rectangle 5" width="33.56" height="19.582" transform="translate(3704 518)" fill="#d80027"/>
    <g id="Group_41368" data-name="Group 41368" transform="translate(3710.703 522.995)">
      <path id="Path_11050" data-name="Path 11050" d="M120.4,189.567l.841,2.588h2.721l-2.2,1.6.841,2.588-2.2-1.6-2.2,1.6.841-2.588-2.2-1.6h2.721Z" transform="translate(-116.837 -188.582)" fill="#ffda44"/>
      <path id="Path_11051" data-name="Path 11051" d="M235.789,297.848l-.826-.6-.825.6.315-.97-.825-.6h1.02l.315-.97.315.97h1.02l-.826.6Z" transform="translate(-226.928 -288.256)" fill="#ffda44"/>
      <path id="Path_11052" data-name="Path 11052" d="M264.944,262.127h-1.02l-.315.97-.315-.97h-1.02l.826-.6-.315-.97.826.6.825-.6-.315.97Z" transform="translate(-253.93 -255.499)" fill="#ffda44"/>
      <path id="Path_11053" data-name="Path 11053" d="M264.944,208.117l-.825.6.315.97-.825-.6-.826.6.315-.971-.826-.6h1.02l.315-.97.315.97Z" transform="translate(-253.93 -205.153)" fill="#ffda44"/>
      <path id="Path_11054" data-name="Path 11054" d="M235.79,172.4l-.315.97.825.6h-1.02l-.315.971-.315-.971h-1.02l.825-.6-.315-.97.825.6Z" transform="translate(-226.929 -172.396)" fill="#ffda44"/>
    </g>
  </g>
</svg>
