<svg width="100" height="100" viewBox="0 0 100 100" fill="none" xmlns="http://www.w3.org/2000/svg">
<rect width="100" height="100" rx="12" fill="#E9ECF3"/>
<g clip-path="url(#clip0_161_294)">
<path d="M49.9998 21.9321L55.5658 23.3333H59.4669L58.1927 23.0124L57.6602 20.9061C57.6024 20.6734 57.4992 20.4544 57.3566 20.2617C57.2139 20.069 57.0346 19.9063 56.829 19.783C56.6233 19.6597 56.3954 19.5783 56.1582 19.5433C55.921 19.5083 55.6792 19.5205 55.4467 19.5791L49.9998 20.9503L44.5529 19.5791C44.3204 19.5205 44.0787 19.5083 43.8415 19.5433C43.6043 19.5783 43.3763 19.6597 43.1706 19.783C42.965 19.9063 42.7857 20.069 42.6431 20.2617C42.5004 20.4544 42.3972 20.6734 42.3394 20.9061L41.8069 23.0124L40.5327 23.3333H44.4339L49.9998 21.9321ZM55.6792 20.5027C55.7905 20.4746 55.9062 20.4687 56.0198 20.4856C56.1333 20.5024 56.2424 20.5416 56.3407 20.6008C56.439 20.66 56.5246 20.7381 56.5926 20.8305C56.6606 20.923 56.7095 21.028 56.7367 21.1395L57.1432 22.7483L51.9506 21.4413L55.6792 20.5027ZM43.2629 21.1395C43.2901 21.028 43.3391 20.923 43.407 20.8305C43.475 20.7381 43.5606 20.66 43.6589 20.6008C43.7573 20.5416 43.8663 20.5024 43.9798 20.4856C44.0934 20.4687 44.2091 20.4746 44.3204 20.5027L48.049 21.4413L42.8565 22.7483L43.2629 21.1395ZM28.5712 66.0686V62.1814L20.5029 30.2581C20.4744 30.1465 20.4682 30.0304 20.4848 29.9164C20.5014 29.8025 20.5405 29.693 20.5997 29.5942C20.6577 29.4965 20.7345 29.4113 20.8256 29.3434C20.9168 29.2756 21.0205 29.2266 21.1308 29.1992L28.5712 27.3263V26.3442L20.8982 28.2756C20.6661 28.3344 20.4477 28.4383 20.2558 28.5815C20.0638 28.7247 19.902 28.9043 19.7795 29.1101C19.6571 29.316 19.5764 29.5439 19.5422 29.7809C19.5079 30.018 19.5207 30.2594 19.5799 30.4915L28.5712 66.0686ZM79.1014 28.2756L71.4284 26.3442V27.3263L78.8693 29.1992C78.9795 29.2267 79.0831 29.2757 79.1742 29.3435C79.2653 29.4113 79.342 29.4965 79.3999 29.5942C79.4591 29.6929 79.4982 29.8025 79.5147 29.9164C79.5312 30.0304 79.5249 30.1465 79.4962 30.258L71.4284 62.181V66.0686L80.4197 30.4915C80.4789 30.2594 80.4917 30.018 80.4575 29.7809C80.4232 29.5439 80.3425 29.316 80.2201 29.1101C80.0976 28.9043 79.9358 28.7247 79.7438 28.5815C79.5519 28.4383 79.3335 28.3344 79.1014 28.2756ZM38.095 53.8095H61.9046C62.0309 53.8095 62.152 53.7593 62.2413 53.67C62.3306 53.5807 62.3808 53.4596 62.3808 53.3333C62.3808 53.207 62.3306 53.0859 62.2413 52.9966C62.152 52.9073 62.0309 52.8571 61.9046 52.8571H38.095C37.9688 52.8571 37.8476 52.9073 37.7583 52.9966C37.669 53.0859 37.6189 53.207 37.6189 53.3333C37.6189 53.4596 37.669 53.5807 37.7583 53.67C37.8476 53.7593 37.9688 53.8095 38.095 53.8095ZM38.095 57.619H61.9046C62.0309 57.619 62.152 57.5689 62.2413 57.4796C62.3306 57.3903 62.3808 57.2691 62.3808 57.1428C62.3808 57.0165 62.3306 56.8954 62.2413 56.8061C62.152 56.7168 62.0309 56.6666 61.9046 56.6666H38.095C37.9688 56.6666 37.8476 56.7168 37.7583 56.8061C37.669 56.8954 37.6189 57.0165 37.6189 57.1428C37.6189 57.2691 37.669 57.3903 37.7583 57.4796C37.8476 57.5689 37.9688 57.619 38.095 57.619ZM38.095 61.4285H61.9046C62.0309 61.4285 62.152 61.3784 62.2413 61.2891C62.3306 61.1998 62.3808 61.0787 62.3808 60.9524C62.3808 60.8261 62.3306 60.7049 62.2413 60.6156C62.152 60.5263 62.0309 60.4762 61.9046 60.4762H38.095C37.9688 60.4762 37.8476 60.5263 37.7583 60.6156C37.669 60.7049 37.6189 60.8261 37.6189 60.9524C37.6189 61.0787 37.669 61.1998 37.7583 61.2891C37.8476 61.3784 37.9688 61.4285 38.095 61.4285ZM38.095 69.0476H61.9046C62.0309 69.0476 62.152 68.9974 62.2413 68.9081C62.3306 68.8188 62.3808 68.6977 62.3808 68.5714C62.3808 68.4451 62.3306 68.324 62.2413 68.2347C62.152 68.1454 62.0309 68.0952 61.9046 68.0952H38.095C37.9688 68.0952 37.8476 68.1454 37.7583 68.2347C37.669 68.324 37.6189 68.4451 37.6189 68.5714C37.6189 68.6977 37.669 68.8188 37.7583 68.9081C37.8476 68.9974 37.9688 69.0476 38.095 69.0476ZM38.095 72.8571H61.9046C62.0309 72.8571 62.152 72.8069 62.2413 72.7176C62.3306 72.6283 62.3808 72.5072 62.3808 72.3809C62.3808 72.2546 62.3306 72.1335 62.2413 72.0442C62.152 71.9549 62.0309 71.9047 61.9046 71.9047H38.095C37.9688 71.9047 37.8476 71.9549 37.7583 72.0442C37.669 72.1335 37.6189 72.2546 37.6189 72.3809C37.6189 72.5072 37.669 72.6283 37.7583 72.7176C37.8476 72.8069 37.9688 72.8571 38.095 72.8571ZM38.095 76.6666H61.9046C62.0309 76.6666 62.152 76.6165 62.2413 76.5272C62.3306 76.4379 62.3808 76.3167 62.3808 76.1905C62.3808 76.0642 62.3306 75.943 62.2413 75.8537C62.152 75.7644 62.0309 75.7143 61.9046 75.7143H38.095C37.9688 75.7143 37.8476 75.7644 37.7583 75.8537C37.669 75.943 37.6189 76.0642 37.6189 76.1905C37.6189 76.3167 37.669 76.4379 37.7583 76.5272C37.8476 76.6165 37.9688 76.6666 38.095 76.6666ZM41.9217 50H51.4284C51.4909 50 51.5528 49.9877 51.6106 49.9638C51.6684 49.9398 51.7209 49.9048 51.7651 49.8605C51.8093 49.8163 51.8444 49.7638 51.8683 49.706C51.8923 49.6483 51.9046 49.5863 51.9046 49.5238V43.3333C51.9046 43.2708 51.8923 43.2088 51.8683 43.1511C51.8444 43.0933 51.8093 43.0408 51.7651 42.9966C51.7209 42.9523 51.6684 42.9173 51.6106 42.8933C51.5528 42.8694 51.4909 42.8571 51.4284 42.8571H46.6665C46.6039 42.8571 46.542 42.8694 46.4842 42.8933C46.4264 42.9173 46.3739 42.9523 46.3297 42.9966C46.2855 43.0408 46.2504 43.0933 46.2265 43.1511C46.2026 43.2088 46.1903 43.2708 46.1903 43.3333V46.7164C46.1903 46.8427 46.2405 46.9638 46.3298 47.0531C46.4191 47.1424 46.5402 47.1926 46.6665 47.1926C46.7928 47.1926 46.9139 47.1424 47.0032 47.0531C47.0925 46.9638 47.1427 46.8427 47.1427 46.7164V43.8095H50.9522V49.0476H41.9217C41.7876 49.044 41.6604 48.9875 41.5679 48.8903C41.4754 48.7931 41.4253 48.6632 41.4284 48.5291V38.5883C41.443 38.3909 41.515 38.202 41.6358 38.045L49.6343 29.1985C49.674 29.1527 49.7228 29.1157 49.7775 29.0897C49.8323 29.0637 49.8918 29.0494 49.9524 29.0476C50.0701 29.0517 50.1824 29.0981 50.2686 29.1785L58.3629 38.0687C58.4828 38.2172 58.5553 38.3982 58.5712 38.5883V48.5291C58.5743 48.6632 58.5242 48.7931 58.4317 48.8903C58.3392 48.9875 58.212 49.044 58.0779 49.0476H54.7896C54.6633 49.0476 54.5422 49.0978 54.4529 49.1871C54.3636 49.2764 54.3134 49.3975 54.3134 49.5238C54.3134 49.6501 54.3636 49.7712 54.4529 49.8605C54.5422 49.9498 54.6633 50 54.7896 50H58.0779C58.4645 49.9961 58.8338 49.8391 59.1048 49.5634C59.3758 49.2877 59.5265 48.9157 59.5236 48.5291V38.5883C59.509 38.1559 59.3445 37.742 59.0582 37.4176L50.9629 28.527C50.8299 28.3893 50.6703 28.2801 50.4938 28.2059C50.3173 28.1317 50.1275 28.0941 49.9361 28.0954C49.745 28.0989 49.5566 28.1419 49.383 28.2219C49.2094 28.3018 49.0542 28.417 48.9274 28.56L40.9294 37.4058C40.6504 37.7382 40.4908 38.1546 40.476 38.5883V48.5291C40.4732 48.9157 40.6238 49.2877 40.8948 49.5634C41.1658 49.8391 41.5351 49.9961 41.9217 50ZM88.095 23.5714C87.9067 23.5714 87.7225 23.6273 87.5659 23.7319C87.4093 23.8366 87.2872 23.9853 87.2152 24.1593C87.1431 24.3334 87.1242 24.5248 87.161 24.7096C87.1977 24.8943 87.2884 25.064 87.4216 25.1972C87.5548 25.3304 87.7245 25.4211 87.9092 25.4579C88.094 25.4946 88.2855 25.4758 88.4595 25.4037C88.6335 25.3316 88.7823 25.2095 88.8869 25.0529C88.9916 24.8963 89.0474 24.7122 89.0474 24.5238C89.0471 24.2713 88.9467 24.0292 88.7682 23.8507C88.5896 23.6721 88.3475 23.5717 88.095 23.5714ZM88.095 25C88.0009 25 87.9088 24.972 87.8305 24.9197C87.7522 24.8674 87.6911 24.793 87.6551 24.706C87.6191 24.619 87.6096 24.5233 87.628 24.4309C87.6464 24.3385 87.6917 24.2537 87.7583 24.1871C87.8249 24.1205 87.9098 24.0751 88.0021 24.0567C88.0945 24.0384 88.1903 24.0478 88.2773 24.0838C88.3643 24.1199 88.4387 24.1809 88.491 24.2592C88.5433 24.3375 88.5712 24.4296 88.5712 24.5238C88.5711 24.65 88.5209 24.7711 88.4316 24.8604C88.3423 24.9496 88.2213 24.9999 88.095 25ZM64.7617 21.1905C65.0443 21.1905 65.3205 21.1067 65.5554 20.9497C65.7903 20.7927 65.9734 20.5696 66.0815 20.3086C66.1897 20.0475 66.218 19.7603 66.1628 19.4832C66.1077 19.2061 65.9717 18.9515 65.7719 18.7517C65.5721 18.5519 65.3175 18.4159 65.0404 18.3608C64.7633 18.3056 64.4761 18.3339 64.215 18.4421C63.954 18.5502 63.7309 18.7333 63.5739 18.9682C63.4169 19.2031 63.3331 19.4793 63.3331 19.7619C63.3336 20.1406 63.4842 20.5037 63.752 20.7716C64.0199 21.0394 64.383 21.19 64.7617 21.1905ZM64.7617 19.0476C64.903 19.0476 65.0411 19.0895 65.1586 19.168C65.276 19.2465 65.3676 19.358 65.4216 19.4885C65.4757 19.6191 65.4898 19.7627 65.4623 19.9012C65.4347 20.0398 65.3667 20.1671 65.2668 20.267C65.1669 20.3669 65.0396 20.4349 64.9011 20.4624C64.7625 20.49 64.6189 20.4759 64.4884 20.4218C64.3578 20.3677 64.2463 20.2762 64.1678 20.1587C64.0893 20.0413 64.0474 19.9032 64.0474 19.7619C64.0476 19.5725 64.1229 19.3909 64.2568 19.257C64.3908 19.1231 64.5723 19.0478 64.7617 19.0476ZM43.3331 15C43.5215 15 43.7056 14.9441 43.8623 14.8395C44.0189 14.7348 44.1409 14.5861 44.213 14.4121C44.2851 14.238 44.304 14.0465 44.2672 13.8618C44.2305 13.6771 44.1398 13.5074 44.0066 13.3742C43.8734 13.241 43.7037 13.1503 43.5189 13.1135C43.3342 13.0768 43.1427 13.0956 42.9687 13.1677C42.7947 13.2398 42.6459 13.3619 42.5413 13.5185C42.4366 13.6751 42.3808 13.8592 42.3808 14.0476C42.381 14.3001 42.4815 14.5422 42.66 14.7207C42.8386 14.8993 43.0806 14.9997 43.3331 15ZM43.3331 13.5714C43.4273 13.5714 43.5194 13.5993 43.5977 13.6517C43.676 13.704 43.737 13.7784 43.7731 13.8654C43.8091 13.9524 43.8186 14.0481 43.8002 14.1405C43.7818 14.2329 43.7365 14.3177 43.6699 14.3843C43.6033 14.4509 43.5184 14.4963 43.426 14.5146C43.3337 14.533 43.2379 14.5236 43.1509 14.4875C43.0639 14.4515 42.9895 14.3905 42.9372 14.3122C42.8849 14.2338 42.8569 14.1418 42.8569 14.0476C42.8571 13.9213 42.9073 13.8003 42.9966 13.711C43.0858 13.6217 43.2069 13.5715 43.3331 13.5714ZM83.3331 36.9047C83.1448 36.9047 82.9606 36.9606 82.804 37.0652C82.6474 37.1699 82.5253 37.3186 82.4533 37.4927C82.3812 37.6667 82.3623 37.8582 82.3991 38.0429C82.4358 38.2277 82.5265 38.3974 82.6597 38.5306C82.7929 38.6637 82.9626 38.7545 83.1473 38.7912C83.3321 38.8279 83.5236 38.8091 83.6976 38.737C83.8716 38.6649 84.0204 38.5429 84.125 38.3862C84.2297 38.2296 84.2855 38.0455 84.2855 37.8571C84.2852 37.6046 84.1848 37.3625 84.0063 37.184C83.8277 37.0055 83.5856 36.905 83.3331 36.9047ZM83.3331 38.3333C83.239 38.3333 83.1469 38.3054 83.0686 38.2531C82.9903 38.2007 82.9292 38.1264 82.8932 38.0394C82.8572 37.9523 82.8477 37.8566 82.8661 37.7642C82.8845 37.6718 82.9298 37.587 82.9964 37.5204C83.063 37.4538 83.1479 37.4085 83.2402 37.3901C83.3326 37.3717 83.4284 37.3811 83.5154 37.4172C83.6024 37.4532 83.6768 37.5143 83.7291 37.5926C83.7814 37.6709 83.8093 37.7629 83.8093 37.8571C83.8092 37.9834 83.759 38.1044 83.6697 38.1937C83.5804 38.283 83.4594 38.3332 83.3331 38.3333Z" fill="#2068FF"/>
<path d="M82.3809 79.7619H70.0471C70.3231 79.4248 70.4746 79.0029 70.4761 78.5672V26.1947C70.4774 25.6897 70.278 25.2049 69.9218 24.8469C69.5657 24.4889 69.0819 24.287 68.5769 24.2857H31.4229C31.1729 24.2863 30.9254 24.3362 30.6946 24.4325C30.4638 24.5288 30.2543 24.6696 30.0779 24.8468C29.9016 25.0241 29.7619 25.2344 29.6668 25.4656C29.5717 25.6969 29.5231 25.9446 29.5237 26.1947V78.5672C29.5252 79.0029 29.6767 79.4247 29.9526 79.7619H17.619C17.4927 79.7619 17.3715 79.8121 17.2822 79.9014C17.1929 79.9907 17.1428 80.1118 17.1428 80.2381C17.1428 80.3644 17.1929 80.4855 17.2822 80.5748C17.3715 80.6641 17.4927 80.7143 17.619 80.7143H82.3809C82.5072 80.7143 82.6283 80.6641 82.7176 80.5748C82.8069 80.4855 82.8571 80.3644 82.8571 80.2381C82.8571 80.1118 82.8069 79.9907 82.7176 79.9014C82.6283 79.8121 82.5072 79.7619 82.3809 79.7619ZM30.4761 26.1947C30.4751 25.9423 30.5742 25.6999 30.7517 25.5206C30.9292 25.3413 31.1706 25.2397 31.4229 25.2381H68.5769C68.8292 25.2397 69.0706 25.3413 69.2481 25.5206C69.4256 25.6999 69.5247 25.9423 69.5237 26.1947V78.5672C69.5247 78.8195 69.4256 79.062 69.2481 79.2413C69.0706 79.4206 68.8292 79.5222 68.5769 79.5238H31.4229C31.1706 79.5222 30.9292 79.4206 30.7517 79.2413C30.5742 79.062 30.4751 78.8195 30.4761 78.5672V26.1947ZM15.238 79.7619H12.857C12.7308 79.7619 12.6096 79.8121 12.5203 79.9014C12.431 79.9907 12.3809 80.1118 12.3809 80.2381C12.3809 80.3644 12.431 80.4855 12.5203 80.5748C12.6096 80.6641 12.7308 80.7143 12.857 80.7143H15.238C15.3643 80.7143 15.4854 80.6641 15.5747 80.5748C15.664 80.4855 15.7142 80.3644 15.7142 80.2381C15.7142 80.1118 15.664 79.9907 15.5747 79.9014C15.4854 79.8121 15.3643 79.7619 15.238 79.7619Z" fill="#061A46"/>
<path d="M10.4762 80.7143C10.7392 80.7143 10.9524 80.5011 10.9524 80.2381C10.9524 79.9751 10.7392 79.7619 10.4762 79.7619C10.2132 79.7619 10 79.9751 10 80.2381C10 80.5011 10.2132 80.7143 10.4762 80.7143Z" fill="#061A46"/>
<path d="M87.1423 79.7619H84.7613C84.6351 79.7619 84.5139 79.8121 84.4246 79.9014C84.3353 79.9907 84.2852 80.1118 84.2852 80.2381C84.2852 80.3644 84.3353 80.4855 84.4246 80.5748C84.5139 80.6641 84.6351 80.7143 84.7613 80.7143H87.1423C87.2686 80.7143 87.3897 80.6641 87.479 80.5748C87.5683 80.4855 87.6185 80.3644 87.6185 80.2381C87.6185 80.1118 87.5683 79.9907 87.479 79.9014C87.3897 79.8121 87.2686 79.7619 87.1423 79.7619Z" fill="#061A46"/>
<path d="M89.5231 80.7143C89.7861 80.7143 89.9993 80.5011 89.9993 80.2381C89.9993 79.9751 89.7861 79.7619 89.5231 79.7619C89.2601 79.7619 89.0469 79.9751 89.0469 80.2381C89.0469 80.5011 89.2601 80.7143 89.5231 80.7143Z" fill="#061A46"/>
<path d="M38.0953 65.2381H61.9049C62.0311 65.2381 62.1523 65.1879 62.2416 65.0986C62.3309 65.0093 62.381 64.8882 62.381 64.7619C62.381 64.6356 62.3309 64.5145 62.2416 64.4252C62.1523 64.3359 62.0311 64.2857 61.9049 64.2857H38.0953C37.969 64.2857 37.8479 64.3359 37.7586 64.4252C37.6693 64.5145 37.6191 64.6356 37.6191 64.7619C37.6191 64.8882 37.6693 65.0093 37.7586 65.0986C37.8479 65.1879 37.969 65.2381 38.0953 65.2381Z" fill="#061A46"/>
<path d="M17.897 44.0529L18.605 43.1219L18.1579 42.8686L17.7036 43.9114H17.6884L17.2265 42.8757L16.7717 43.1367L17.4722 44.0457V44.0605L16.377 43.9191V44.4257L17.4798 44.2843V44.2991L16.7717 45.2076L17.1965 45.4762L17.6812 44.4257H17.6955L18.1427 45.4686L18.6122 45.2005L17.897 44.3062V44.2914L19.0217 44.4257V43.9191L17.897 44.0676V44.0529Z" fill="#2068FF"/>
<path d="M24.8948 13.9376L25.3024 13.4015L25.0452 13.2557L24.7833 13.8562H24.7748L24.5091 13.2595L24.2467 13.41L24.6505 13.9334V13.9419L24.0195 13.8605V14.1524L24.6548 14.071V14.0795L24.2467 14.6029L24.4914 14.7572L24.7705 14.1524H24.7791L25.0362 14.7529L25.3067 14.5986L24.8948 14.0834V14.0748L25.5424 14.1524V13.8605L24.8948 13.9462V13.9376Z" fill="#2068FF"/>
<path d="M12.7058 22.5934L13.4006 21.68L12.962 21.4315L12.5163 22.4543H12.501L12.0482 21.4386L11.602 21.6948L12.2891 22.5862V22.601L11.2148 22.4619V22.9586L12.2963 22.82V22.8348L11.602 23.7262L12.0187 23.9896L12.4939 22.9586H12.5082L12.9467 23.9819L13.4072 23.7191L12.7058 22.8419V22.8272L13.8091 22.9586V22.4619L12.7058 22.6081V22.5934Z" fill="#2068FF"/>
<path d="M78.7811 13.2133V12.7847L77.8292 12.9105V12.8981L78.4282 12.11L78.0501 11.8957L77.6653 12.7781H77.653L77.262 11.9019L76.8773 12.1228L77.4701 12.8919V12.9043L76.543 12.7847V13.2133L77.4763 13.0933V13.1062L76.8773 13.8752L77.2363 14.1024L77.6468 13.2133H77.6587L78.0373 14.0957L78.4344 13.869L77.8292 13.1124V13.0995L78.7811 13.2133Z" fill="#2068FF"/>
<path d="M60.0003 82.619H40.0003C39.874 82.619 39.7529 82.6692 39.6636 82.7585C39.5743 82.8478 39.5241 82.9689 39.5241 83.0952C39.5241 83.2215 39.5743 83.3426 39.6636 83.4319C39.7529 83.5212 39.874 83.5714 40.0003 83.5714H48.5717V84.5238H43.8098C43.6835 84.5238 43.5624 84.574 43.4731 84.6633C43.3838 84.7526 43.3336 84.8737 43.3336 85C43.3336 85.1263 43.3838 85.2474 43.4731 85.3367C43.5624 85.426 43.6835 85.4762 43.8098 85.4762H56.6669C56.7932 85.4762 56.9144 85.426 57.0037 85.3367C57.093 85.2474 57.1431 85.1263 57.1431 85C57.1431 84.8737 57.093 84.7526 57.0037 84.6633C56.9144 84.574 56.7932 84.5238 56.6669 84.5238H51.4289V83.5714H60.0003C60.1266 83.5714 60.2477 83.5212 60.337 83.4319C60.4263 83.3426 60.4765 83.2215 60.4765 83.0952C60.4765 82.9689 60.4263 82.8478 60.337 82.7585C60.2477 82.6692 60.1266 82.619 60.0003 82.619ZM66.6669 82.619H61.905C61.7787 82.619 61.6576 82.6692 61.5683 82.7585C61.479 82.8478 61.4288 82.9689 61.4288 83.0952C61.4288 83.2215 61.479 83.3426 61.5683 83.4319C61.6576 83.5212 61.7787 83.5714 61.905 83.5714H66.6669C66.7932 83.5714 66.9144 83.5212 67.0037 83.4319C67.093 83.3426 67.1431 83.2215 67.1431 83.0952C67.1431 82.9689 67.093 82.8478 67.0037 82.7585C66.9144 82.6692 66.7932 82.619 66.6669 82.619ZM38.0955 82.619H33.3336C33.2073 82.619 33.0862 82.6692 32.9969 82.7585C32.9076 82.8478 32.8574 82.9689 32.8574 83.0952C32.8574 83.2215 32.9076 83.3426 32.9969 83.4319C33.0862 83.5212 33.2073 83.5714 33.3336 83.5714H38.0955C38.2218 83.5714 38.3429 83.5212 38.4322 83.4319C38.5215 83.3426 38.5717 83.2215 38.5717 83.0952C38.5717 82.9689 38.5215 82.8478 38.4322 82.7585C38.3429 82.6692 38.2218 82.619 38.0955 82.619Z" fill="#061A46"/>
</g>
<defs>
<clipPath id="clip0_161_294">
<rect width="80" height="80" fill="white" transform="translate(10 10)"/>
</clipPath>
</defs>
</svg>
