<svg width="100" height="100" viewBox="0 0 100 100" fill="none" xmlns="http://www.w3.org/2000/svg">
<rect width="100" height="100" rx="12" fill="#E9ECF3"/>
<g clip-path="url(#clip0_161_293)">
<path d="M60.4769 34.3205V40.087C59.5791 40.3159 58.7967 40.8603 58.2763 41.6181C57.7559 42.3759 57.5332 43.2952 57.6501 44.2035C57.7669 45.1118 58.2152 45.9469 58.9109 46.5522C59.6066 47.1574 60.502 47.4914 61.4292 47.4914C62.3564 47.4914 63.2518 47.1574 63.9476 46.5522C64.6433 45.9469 65.0916 45.1118 65.2084 44.2035C65.3252 43.2952 65.1026 42.3759 64.5822 41.6181C64.0618 40.8603 63.2794 40.3159 62.3816 40.087V34.3205C62.3778 31.079 61.0722 27.9714 58.7511 25.6794C56.4301 23.3873 53.2831 22.098 50.0007 22.0943H48.5721C45.2896 22.098 42.1427 23.3873 39.8216 25.6794C37.5005 27.9714 36.1949 31.079 36.1911 34.3205V46.6704C35.2934 46.8993 34.511 47.4436 33.9906 48.2015C33.4702 48.9593 33.2475 49.8785 33.3644 50.7868C33.4812 51.6951 33.9295 52.5302 34.6252 53.1355C35.3209 53.7408 36.2163 54.0747 37.1435 54.0747C38.0707 54.0747 38.9661 53.7408 39.6618 53.1355C40.3576 52.5302 40.8058 51.6951 40.9227 50.7868C41.0395 49.8785 40.8169 48.9593 40.2965 48.2015C39.7761 47.4436 38.9937 46.8993 38.0959 46.6704V34.3205C38.099 31.5777 39.2038 28.9482 41.1678 27.0087C43.1318 25.0693 45.7946 23.9784 48.5721 23.9753H50.0007C52.7782 23.9784 55.441 25.0693 57.405 27.0087C59.369 28.9482 60.4737 31.5777 60.4769 34.3205ZM63.334 43.7253C63.3357 44.0558 63.2491 44.381 63.083 44.668C62.9169 44.955 62.6771 45.1937 62.3878 45.3601C62.0986 45.5265 61.77 45.6146 61.4352 45.6156C61.1005 45.6167 60.7714 45.5306 60.481 45.366C60.1907 45.2014 59.9494 44.9642 59.7815 44.6782C59.6136 44.3923 59.5249 44.0676 59.5245 43.7371C59.5241 43.4065 59.6119 43.0816 59.7791 42.7953C59.9463 42.5089 60.1869 42.271 60.4769 42.1058V43.7253C60.4769 43.9747 60.5772 44.2139 60.7558 44.3903C60.9344 44.5666 61.1766 44.6657 61.4292 44.6657C61.6818 44.6657 61.9241 44.5666 62.1027 44.3903C62.2813 44.2139 62.3816 43.9747 62.3816 43.7253V42.1058C62.6702 42.2696 62.9101 42.5054 63.0772 42.7897C63.2444 43.0739 63.3329 43.3966 63.334 43.7253ZM39.0483 50.3086C39.05 50.6392 38.9634 50.9643 38.7973 51.2513C38.6312 51.5383 38.3914 51.7771 38.1021 51.9434C37.8129 52.1098 37.4843 52.1979 37.1495 52.199C36.8148 52.2 36.4856 52.1139 36.1953 51.9493C35.905 51.7848 35.6637 51.5476 35.4958 51.2616C35.3278 50.9756 35.2392 50.651 35.2388 50.3204C35.2384 49.9898 35.3262 49.665 35.4934 49.3786C35.6606 49.0922 35.9012 48.8544 36.1911 48.6891V50.3086C36.1911 50.558 36.2915 50.7972 36.4701 50.9736C36.6487 51.15 36.8909 51.2491 37.1435 51.2491C37.3961 51.2491 37.6383 51.15 37.817 50.9736C37.9956 50.7972 38.0959 50.558 38.0959 50.3086V48.6891C38.3845 48.8529 38.6244 49.0887 38.7915 49.373C38.9587 49.6572 39.0472 49.9799 39.0483 50.3086Z" fill="#061A46"/>
<path d="M10.9524 82.2848C11.4784 82.2848 11.9048 81.8638 11.9048 81.3443C11.9048 80.8249 11.4784 80.4039 10.9524 80.4039C10.4264 80.4039 10 80.8249 10 81.3443C10 81.8638 10.4264 82.2848 10.9524 82.2848Z" fill="#061A46"/>
<path d="M15.2384 80.4039H13.8098C13.5572 80.4039 13.315 80.503 13.1364 80.6793C12.9578 80.8557 12.8574 81.0949 12.8574 81.3443C12.8574 81.5938 12.9578 81.833 13.1364 82.0094C13.315 82.1857 13.5572 82.2848 13.8098 82.2848H15.2384C15.491 82.2848 15.7332 82.1857 15.9118 82.0094C16.0904 81.833 16.1908 81.5938 16.1908 81.3443C16.1908 81.0949 16.0904 80.8557 15.9118 80.6793C15.7332 80.503 15.491 80.4039 15.2384 80.4039ZM86.1908 80.4039H84.7622C84.5096 80.4039 84.2674 80.503 84.0887 80.6793C83.9101 80.8557 83.8098 81.0949 83.8098 81.3443C83.8098 81.5938 83.9101 81.833 84.0887 82.0094C84.2674 82.1857 84.5096 82.2848 84.7622 82.2848H86.1908C86.4433 82.2848 86.6856 82.1857 86.8642 82.0094C87.0428 81.833 87.1431 81.5938 87.1431 81.3443C87.1431 81.0949 87.0428 80.8557 86.8642 80.6793C86.6856 80.503 86.4433 80.4039 86.1908 80.4039Z" fill="#061A46"/>
<path d="M89.0481 82.2848C89.5741 82.2848 90.0005 81.8638 90.0005 81.3443C90.0005 80.8249 89.5741 80.4039 89.0481 80.4039C88.5221 80.4039 88.0957 80.8249 88.0957 81.3443C88.0957 81.8638 88.5221 82.2848 89.0481 82.2848Z" fill="#061A46"/>
<path d="M66.2645 84.1658H62.3083C62.0685 84.1841 61.8445 84.2912 61.6811 84.4655C61.5177 84.6399 61.4269 84.8687 61.4269 85.1063C61.4269 85.3438 61.5177 85.5726 61.6811 85.747C61.8445 85.9213 62.0685 86.0284 62.3083 86.0467H66.2645C66.5043 86.0284 66.7283 85.9213 66.8917 85.747C67.0551 85.5726 67.1459 85.3438 67.1459 85.1063C67.1459 84.8687 67.0551 84.6399 66.8917 84.4655C66.7283 84.2912 66.5043 84.1841 66.2645 84.1658ZM37.6931 84.1658H33.7369C33.497 84.1841 33.273 84.2912 33.1096 84.4655C32.9462 84.6399 32.8555 84.8687 32.8555 85.1063C32.8555 85.3438 32.9462 85.5726 33.1096 85.747C33.273 85.9213 33.497 86.0284 33.7369 86.0467H37.6931C37.9329 86.0284 38.1569 85.9213 38.3203 85.747C38.4837 85.5726 38.5745 85.3438 38.5745 85.1063C38.5745 84.8687 38.4837 84.6399 38.3203 84.4655C38.1569 84.2912 37.9329 84.1841 37.6931 84.1658ZM59.5245 84.1658H40.4769C40.2243 84.1658 39.982 84.2649 39.8034 84.4412C39.6248 84.6176 39.5245 84.8568 39.5245 85.1063C39.5245 85.3557 39.6248 85.5949 39.8034 85.7713C39.982 85.9476 40.2243 86.0467 40.4769 86.0467H48.0674V86.9872H44.2864C44.0338 86.9872 43.7916 87.0863 43.613 87.2627C43.4344 87.439 43.334 87.6783 43.334 87.9277C43.334 88.1771 43.4344 88.4163 43.613 88.5927C43.7916 88.7691 44.0338 88.8682 44.2864 88.8682H56.1912C56.4438 88.8682 56.686 88.7691 56.8646 88.5927C57.0432 88.4163 57.1435 88.1771 57.1435 87.9277C57.1435 87.6783 57.0432 87.439 56.8646 87.2627C56.686 87.0863 56.4438 86.9872 56.1912 86.9872H51.934V86.0467H59.5245C59.7771 86.0467 60.0193 85.9476 60.1979 85.7713C60.3765 85.5949 60.4769 85.3557 60.4769 85.1063C60.4769 84.8568 60.3765 84.6176 60.1979 84.4412C60.0193 84.2649 59.7771 84.1658 59.5245 84.1658ZM32.8578 58.7729V70.9991C32.8585 71.4978 33.0593 71.9758 33.4164 72.3285C33.7735 72.6811 34.2576 72.8794 34.7626 72.8801H39.5245C40.0295 72.8794 40.5136 72.6811 40.8707 72.3285C41.2277 71.9758 41.4286 71.4978 41.4293 70.9991V58.7729C41.4286 58.2743 41.2277 57.7962 40.8707 57.4436C40.5136 57.091 40.0295 56.8926 39.5245 56.892H34.7626C34.2576 56.8926 33.7735 57.091 33.4164 57.4436C33.0593 57.7962 32.8585 58.2743 32.8578 58.7729ZM34.7626 58.7729H39.5245V70.9991H34.7626V58.7729Z" fill="#2068FF"/>
<path d="M81.7728 80.4038H62.4143L64.7662 76.7162C64.88 76.5291 64.9392 76.3146 64.9372 76.0963C64.9352 75.878 64.872 75.6645 64.7547 75.4795L63.0233 73.4185L64.7709 71.2182C64.9069 71.0472 64.9787 70.8348 64.974 70.6174C64.9693 70.4 64.8885 70.1909 64.7452 70.0257L63.0152 68.0328L64.7895 65.6506C64.9132 65.4846 64.9783 65.2832 64.9748 65.0772C64.9712 64.8712 64.8993 64.672 64.77 64.5103L63.0805 62.397L65.4257 60.154C65.5173 60.0662 65.5902 59.9612 65.6399 59.8451C65.6896 59.729 65.7153 59.6043 65.7152 59.4782V53.9934C67.4073 53.1527 68.8068 51.8323 69.7344 50.2014C70.6621 48.5706 71.0757 46.7034 70.9222 44.839C70.7688 42.9746 70.0553 41.1979 68.8732 39.7363C67.691 38.2748 66.094 37.1949 64.2866 36.635V38.6364C65.9258 39.2911 67.2832 40.4885 68.1264 42.0232C68.9696 43.5579 69.246 45.3344 68.9083 47.0483C68.5705 48.7622 67.6396 50.3067 66.2752 51.4172C64.9107 52.5276 63.1976 53.1349 61.4295 53.1349C59.6614 53.1349 57.9483 52.5276 56.5838 51.4172C55.2194 50.3067 54.2885 48.7622 53.9508 47.0483C53.613 45.3344 53.8894 43.5579 54.7326 42.0232C55.5758 40.4885 56.9333 39.2911 58.5724 38.6364V36.635C56.765 37.1949 55.168 38.2748 53.9858 39.7363C52.8037 41.1979 52.0902 42.9746 51.9368 44.839C51.7834 46.7034 52.1969 48.5706 53.1246 50.2014C54.0522 51.8323 55.4517 53.1527 57.1438 53.9934V77.2946C57.1437 77.4728 57.1949 77.6472 57.2914 77.7978L58.96 80.4038H43.229C43.8652 79.7924 44.3709 79.0612 44.7161 78.2536C45.0613 77.4459 45.2391 76.5781 45.239 75.7015V49.3681C45.2367 47.8681 44.7164 46.4138 43.7641 45.2453C42.8117 44.0767 41.4843 43.2638 40.0009 42.9409V44.8825C40.9669 45.1838 41.8106 45.7809 42.4099 46.5874C43.0092 47.3939 43.333 48.3678 43.3343 49.3681V74.2122C37.8581 77.1653 32.5324 74.9834 30.9533 74.1995V49.3681C30.9545 48.3677 31.2782 47.3937 31.8775 46.5871C32.4768 45.7806 33.3206 45.1834 34.2866 44.8821V42.9409C32.8033 43.2638 31.4758 44.0767 30.5235 45.2453C29.5711 46.4138 29.0509 47.8681 29.0486 49.3681V75.7015C29.0484 76.5781 29.2261 77.4459 29.5713 78.2535C29.9164 79.0612 30.422 79.7924 31.0581 80.4038H18.2295C18.094 80.3864 17.9563 80.3976 17.8256 80.4369C17.6949 80.4762 17.5741 80.5425 17.4714 80.6315C17.3687 80.7205 17.2865 80.8302 17.2301 80.9531C17.1737 81.076 17.1446 81.2094 17.1446 81.3443C17.1446 81.4792 17.1737 81.6126 17.2301 81.7355C17.2865 81.8585 17.3687 81.9681 17.4714 82.0571C17.5741 82.1461 17.6949 82.2125 17.8256 82.2517C17.9563 82.291 18.094 82.3023 18.2295 82.2848H81.7724C81.9079 82.3023 82.0456 82.291 82.1763 82.2517C82.307 82.2125 82.4278 82.1461 82.5304 82.0571C82.6331 81.9681 82.7154 81.8585 82.7718 81.7355C82.8281 81.6126 82.8573 81.4792 82.8573 81.3443C82.8573 81.2094 82.8281 81.076 82.7718 80.9531C82.7154 80.8302 82.6331 80.7205 82.5304 80.6315C82.4278 80.5425 82.307 80.4762 82.1763 80.4369C82.0456 80.3976 81.9083 80.3864 81.7728 80.4038ZM59.0486 54.7016C60.6084 55.1142 62.2507 55.1142 63.8105 54.7016V59.0795L61.1371 61.6376C60.9677 61.7996 60.8652 62.018 60.8495 62.2503C60.8337 62.4827 60.9059 62.7126 61.0519 62.8955L62.8252 65.1136L61.0324 67.5203C60.9049 67.6915 60.84 67.9003 60.848 68.1126C60.856 68.325 60.9366 68.5284 61.0766 68.6897L62.7909 70.6643L61.0505 72.8546C60.9162 73.0237 60.8446 73.233 60.8475 73.4478C60.8504 73.6627 60.9278 73.87 61.0666 74.0354L62.8619 76.1722L60.6871 79.5819L59.0486 77.0224V54.7016ZM35.7152 80.4038C34.5554 80.402 33.4361 79.9827 32.567 79.2244C31.6978 78.4661 31.1385 77.4209 30.9938 76.2845C33.0195 77.1331 35.1948 77.5789 37.3952 77.5965C39.4282 77.5984 41.4376 77.1669 43.2862 76.3316C43.1312 77.4582 42.5684 78.4912 41.7019 79.2398C40.8354 79.9884 39.7237 80.4019 38.5724 80.4038H35.7152ZM64.6043 18.8026C64.8868 18.8026 65.163 18.7199 65.3979 18.5649C65.6329 18.4099 65.816 18.1896 65.9241 17.9318C66.0322 17.674 66.0605 17.3904 66.0054 17.1167C65.9503 16.8431 65.8142 16.5917 65.6144 16.3944C65.4146 16.1971 65.1601 16.0628 64.883 16.0083C64.6059 15.9539 64.3186 15.9818 64.0576 16.0886C63.7965 16.1954 63.5734 16.3762 63.4165 16.6082C63.2595 16.8402 63.1757 17.1129 63.1757 17.3919C63.1761 17.766 63.3267 18.1246 63.5945 18.389C63.8624 18.6535 64.2255 18.8023 64.6043 18.8026ZM64.6043 16.6866C64.7455 16.6866 64.8836 16.7279 65.0011 16.8055C65.1186 16.883 65.2101 16.9931 65.2642 17.122C65.3182 17.2509 65.3324 17.3927 65.3048 17.5295C65.2773 17.6664 65.2092 17.792 65.1093 17.8907C65.0094 17.9893 64.8822 18.0565 64.7436 18.0837C64.6051 18.111 64.4614 18.097 64.3309 18.0436C64.2004 17.9902 64.0888 17.8998 64.0104 17.7838C63.9319 17.6678 63.89 17.5314 63.89 17.3919C63.8901 17.2049 63.9654 17.0256 64.0993 16.8933C64.2333 16.7611 64.4149 16.6867 64.6043 16.6866ZM86.9852 35.8878C86.7969 35.8878 86.6127 35.943 86.4561 36.0463C86.2995 36.1497 86.1774 36.2965 86.1053 36.4684C86.0333 36.6402 86.0144 36.8293 86.0511 37.0118C86.0879 37.1942 86.1786 37.3618 86.3118 37.4933C86.445 37.6248 86.6147 37.7144 86.7994 37.7507C86.9842 37.787 87.1757 37.7684 87.3497 37.6972C87.5237 37.626 87.6724 37.5054 87.7771 37.3508C87.8818 37.1961 87.9376 37.0143 87.9376 36.8283C87.9374 36.5789 87.8369 36.3399 87.6584 36.1635C87.4798 35.9872 87.2377 35.8881 86.9852 35.8878ZM86.9852 37.2985C86.891 37.2985 86.799 37.2709 86.7207 37.2193C86.6424 37.1676 86.5813 37.0942 86.5453 37.0082C86.5092 36.9223 86.4998 36.8278 86.5182 36.7365C86.5366 36.6453 86.5819 36.5615 86.6485 36.4958C86.7151 36.43 86.7999 36.3852 86.8923 36.3671C86.9847 36.3489 87.0804 36.3583 87.1674 36.3938C87.2545 36.4294 87.3288 36.4897 87.3812 36.567C87.4335 36.6444 87.4614 36.7353 87.4614 36.8283C87.4613 36.953 87.4111 37.0725 87.3218 37.1607C87.2325 37.2488 87.1115 37.2984 86.9852 37.2985ZM17.7786 13.1598C17.5902 13.1598 17.4061 13.2149 17.2494 13.3183C17.0928 13.4216 16.9708 13.5685 16.8987 13.7404C16.8266 13.9122 16.8077 14.1013 16.8445 14.2837C16.8812 14.4662 16.9719 14.6338 17.1051 14.7653C17.2383 14.8968 17.408 14.9864 17.5928 15.0227C17.7775 15.059 17.969 15.0403 18.143 14.9692C18.317 14.898 18.4658 14.7774 18.5704 14.6228C18.6751 14.4681 18.7309 14.2863 18.7309 14.1003C18.7307 13.8509 18.6303 13.6118 18.4517 13.4355C18.2732 13.2592 18.0311 13.16 17.7786 13.1598ZM17.7786 14.5705C17.6844 14.5705 17.5923 14.5429 17.514 14.4913C17.4357 14.4396 17.3747 14.3661 17.3386 14.2802C17.3026 14.1943 17.2931 14.0997 17.3115 14.0085C17.3299 13.9173 17.3752 13.8335 17.4418 13.7678C17.5084 13.702 17.5933 13.6572 17.6857 13.6391C17.778 13.6209 17.8738 13.6302 17.9608 13.6658C18.0478 13.7014 18.1222 13.7617 18.1745 13.839C18.2268 13.9163 18.2547 14.0073 18.2547 14.1003C18.2546 14.2249 18.2044 14.3445 18.1151 14.4326C18.0259 14.5208 17.9048 14.5704 17.7786 14.5705ZM85.3843 15.511C85.1959 15.511 85.0118 15.5661 84.8552 15.6695C84.6985 15.7728 84.5765 15.9197 84.5044 16.0916C84.4323 16.2634 84.4134 16.4525 84.4502 16.6349C84.4869 16.8174 84.5776 16.9849 84.7108 17.1165C84.844 17.248 85.0137 17.3376 85.1985 17.3739C85.3832 17.4102 85.5747 17.3915 85.7487 17.3203C85.9228 17.2492 86.0715 17.1286 86.1761 16.974C86.2808 16.8193 86.3366 16.6375 86.3366 16.4515C86.3364 16.2021 86.236 15.963 86.0574 15.7867C85.8789 15.6104 85.6368 15.5112 85.3843 15.511ZM85.3843 16.9217C85.2901 16.9217 85.198 16.8941 85.1197 16.8424C85.0414 16.7908 84.9804 16.7173 84.9443 16.6314C84.9083 16.5455 84.8989 16.4509 84.9172 16.3597C84.9356 16.2685 84.981 16.1847 85.0476 16.1189C85.1142 16.0532 85.199 16.0084 85.2914 15.9903C85.3837 15.9721 85.4795 15.9814 85.5665 16.017C85.6535 16.0526 85.7279 16.1129 85.7802 16.1902C85.8325 16.2675 85.8605 16.3585 85.8605 16.4515C85.8603 16.5761 85.8101 16.6957 85.7208 16.7838C85.6316 16.872 85.5105 16.9216 85.3843 16.9217ZM28.5724 37.4551C28.5724 37.2691 28.5165 37.0873 28.4119 36.9326C28.3072 36.778 28.1585 36.6574 27.9844 36.5862C27.8104 36.515 27.6189 36.4964 27.4342 36.5327C27.2494 36.569 27.0797 36.6586 26.9465 36.7901C26.8134 36.9216 26.7226 37.0892 26.6859 37.2716C26.6492 37.4541 26.668 37.6432 26.7401 37.815C26.8122 37.9869 26.9342 38.1338 27.0909 38.2371C27.2475 38.3404 27.4316 38.3956 27.62 38.3956C27.8725 38.3953 28.1146 38.2962 28.2931 38.1199C28.4717 37.9435 28.5721 37.7045 28.5724 37.4551ZM27.1438 37.4551C27.1438 37.3621 27.1717 37.2712 27.224 37.1939C27.2764 37.1165 27.3507 37.0563 27.4378 37.0207C27.5248 36.9851 27.6205 36.9758 27.7129 36.9939C27.8053 37.0121 27.8901 37.0568 27.9567 37.1226C28.0233 37.1884 28.0686 37.2722 28.087 37.3634C28.1054 37.4546 28.096 37.5491 28.0599 37.6351C28.0239 37.721 27.9628 37.7944 27.8845 37.8461C27.8062 37.8978 27.7142 37.9254 27.62 37.9254C27.4937 37.9252 27.3727 37.8756 27.2834 37.7875C27.1941 37.6993 27.1439 37.5798 27.1438 37.4551Z" fill="#061A46"/>
<path d="M13.2802 29.3096L13.9883 28.3903L13.5412 28.1402L13.0864 29.17H13.0717L12.6098 28.1472L12.155 28.4049L12.8555 29.3026V29.3172L11.7598 29.1775V29.6778L12.8626 29.5382V29.5527L12.155 30.45L12.5793 30.7152L13.0641 29.6778H13.0788L13.526 30.7077L13.9955 30.4429L13.2802 29.5598V29.5452L14.405 29.6778V29.1775L13.2802 29.3247V29.3096ZM33.0545 20.4339L32.6469 20.9507L32.8917 21.103L33.1707 20.5058H33.1788L33.4364 21.0988L33.7069 20.9464L33.295 20.4377V20.4292L33.9426 20.5058V20.2176L33.295 20.3022V20.2938L33.7026 19.7643L33.4455 19.6204L33.1836 20.2133H33.175L32.9088 19.6241L32.6469 19.7727L33.0502 20.2895V20.298L32.4193 20.2176V20.5058L33.0545 20.4254V20.4339ZM76.5926 27.6135V27.1226L75.4893 27.2669V27.2523L76.1836 26.3504L75.745 26.1054L75.2993 27.1155H75.2845L74.8317 26.1125L74.3855 26.365L75.0726 27.2453V27.2599L73.9979 27.1226V27.6135L75.0798 27.4766V27.4908L74.3855 28.371L74.8017 28.6311L75.2774 27.6135H75.2917L75.7302 28.6236L76.1907 28.364L75.4893 27.4978V27.4837L76.5926 27.6135ZM51.3088 13.1217L51.9079 12.3434L51.5293 12.1318L51.145 13.0032H51.1321L50.7417 12.1379L50.3564 12.3561L50.9493 13.1156V13.1278L50.0226 13.0098V13.433L50.9555 13.315V13.3272L50.3564 14.0866L50.716 14.3109L51.126 13.433H51.1383L51.5169 14.3043L51.914 14.0805L51.3088 13.3333V13.3211L52.2602 13.433V13.0098L51.3088 13.1339V13.1217Z" fill="#2068FF"/>
</g>
<defs>
<clipPath id="clip0_161_293">
<rect width="80" height="79" fill="white" transform="translate(10 11)"/>
</clipPath>
</defs>
</svg>
