<svg width="100" height="100" viewBox="0 0 100 100" fill="none" xmlns="http://www.w3.org/2000/svg">
<rect width="100" height="100" rx="12" fill="#E9ECF3"/>
<g clip-path="url(#clip0_161_291)">
<path d="M21.2186 52.0638L49.0229 22.1923C50.0683 21.1119 51.1821 21.1852 51.8312 21.738L79.7778 52.2296C79.8621 52.3213 79.9794 52.3758 80.1038 52.3811C80.2283 52.3864 80.3498 52.3421 80.4417 52.2579C80.5335 52.1738 80.5882 52.0566 80.5937 51.9321C80.5993 51.8077 80.5552 51.6861 80.4712 51.5941L70.8172 41.061C70.8313 41.0209 70.8397 40.9791 70.8423 40.9368V29.5096C70.8423 29.3849 70.7927 29.2653 70.7045 29.1771C70.6164 29.0889 70.4968 29.0394 70.372 29.0394H65.609C65.4843 29.0394 65.3647 29.089 65.2766 29.1771C65.1884 29.2653 65.1388 29.3849 65.1388 29.5096V34.8655L52.5062 21.0825C52.4947 21.0699 52.4824 21.058 52.4695 21.0467C51.5196 20.2135 49.824 20.0112 48.3407 21.545L20.5303 51.4233C20.4882 51.4685 20.4555 51.5215 20.4339 51.5794C20.4123 51.6372 20.4024 51.6987 20.4046 51.7604C20.4068 51.8221 20.4212 51.8828 20.4468 51.939C20.4725 51.9951 20.509 52.0457 20.5542 52.0877C20.5994 52.1298 20.6524 52.1625 20.7102 52.1841C20.7681 52.2057 20.8296 52.2156 20.8913 52.2134C20.953 52.2112 21.0137 52.1968 21.0698 52.1712C21.126 52.1455 21.1766 52.109 21.2186 52.0638ZM66.0793 35.8666V29.9799H69.9018V40.0622L66.0751 35.8872C66.0754 35.8799 66.0793 35.8739 66.0793 35.8666Z" fill="#061A46"/>
<path d="M47.2086 42.9775H49.3582C49.4829 42.9775 49.6025 42.928 49.6907 42.8398C49.7789 42.7516 49.8284 42.632 49.8284 42.5073C49.8284 42.3826 49.7789 42.263 49.6907 42.1748C49.6025 42.0866 49.4829 42.0371 49.3582 42.0371H47.2086C47.0839 42.0371 46.9643 42.0866 46.8761 42.1748C46.7879 42.263 46.7383 42.3826 46.7383 42.5073C46.7383 42.632 46.7879 42.7516 46.8761 42.8398C46.9643 42.928 47.0839 42.9775 47.2086 42.9775ZM52.5828 42.9775H54.7324C54.8571 42.9775 54.9767 42.928 55.0649 42.8398C55.1531 42.7516 55.2026 42.632 55.2026 42.5073C55.2026 42.3826 55.1531 42.263 55.0649 42.1748C54.9767 42.0866 54.8571 42.0371 54.7324 42.0371H52.5828C52.4581 42.0371 52.3385 42.0866 52.2503 42.1748C52.1621 42.263 52.1126 42.3826 52.1126 42.5073C52.1126 42.632 52.1621 42.7516 52.2503 42.8398C52.3385 42.928 52.4581 42.9775 52.5828 42.9775ZM47.2086 45.799H49.3582C49.4829 45.799 49.6025 45.7494 49.6907 45.6612C49.7789 45.5731 49.8284 45.4535 49.8284 45.3287C49.8284 45.204 49.7789 45.0844 49.6907 44.9962C49.6025 44.908 49.4829 44.8585 49.3582 44.8585H47.2086C47.0839 44.8585 46.9643 44.908 46.8761 44.9962C46.7879 45.0844 46.7383 45.204 46.7383 45.3287C46.7383 45.4535 46.7879 45.5731 46.8761 45.6612C46.9643 45.7494 47.0839 45.799 47.2086 45.799ZM52.5828 45.799H54.7324C54.8571 45.799 54.9767 45.7494 55.0649 45.6612C55.1531 45.5731 55.2026 45.4535 55.2026 45.3287C55.2026 45.204 55.1531 45.0844 55.0649 44.9962C54.9767 44.908 54.8571 44.8585 54.7324 44.8585H52.5828C52.4581 44.8585 52.3385 44.908 52.2503 44.9962C52.1621 45.0844 52.1126 45.204 52.1126 45.3287C52.1126 45.4535 52.1621 45.5731 52.2503 45.6612C52.3385 45.7494 52.4581 45.799 52.5828 45.799ZM34.9932 69.7442C34.8684 69.7442 34.7488 69.7937 34.6607 69.8819C34.5725 69.9701 34.5229 70.0897 34.5229 70.2144V75.5916C34.5229 75.7163 34.5725 75.8359 34.6607 75.9241C34.7488 76.0123 34.8684 76.0619 34.9932 76.0619C35.1179 76.0619 35.2375 76.0123 35.3257 75.9241C35.4139 75.8359 35.4634 75.7163 35.4634 75.5916V70.2144C35.4634 70.0897 35.4139 69.9701 35.3257 69.8819C35.2375 69.7937 35.1179 69.7442 34.9932 69.7442ZM65.5479 69.7442C65.4232 69.7442 65.3036 69.7937 65.2154 69.8819C65.1272 69.9701 65.0776 70.0897 65.0776 70.2144V75.5916C65.0776 75.7163 65.1272 75.8359 65.2154 75.9241C65.3036 76.0123 65.4232 76.0619 65.5479 76.0619C65.6726 76.0619 65.7922 76.0123 65.8804 75.9241C65.9686 75.8359 66.0181 75.7163 66.0181 75.5916V70.2144C66.0181 70.0897 65.9685 69.9701 65.8804 69.8819C65.7922 69.7937 65.6726 69.7442 65.5479 69.7442ZM38.8435 53.8766H36.4337L35.6691 51.5904C35.4884 51.0517 35.161 50.9713 34.9819 50.9713C34.8028 50.9713 34.4754 51.0517 34.2947 51.5908L33.5303 53.8766H31.1204C30.5456 53.8766 30.3654 54.163 30.3091 54.3338C30.2531 54.5041 30.2274 54.8408 30.6868 55.1801L32.6341 56.6172L31.8941 58.8589C31.8392 58.9831 31.8154 59.1189 31.8249 59.2544C31.8344 59.3899 31.8768 59.521 31.9485 59.6363C32.1616 59.931 32.574 59.9706 33.0002 59.6731L34.9929 58.2775L36.9645 59.6901C37.1257 59.82 37.324 59.8954 37.5308 59.9055C37.6253 59.9067 37.7188 59.8852 37.8034 59.8428C37.888 59.8005 37.9612 59.7385 38.0168 59.662C38.0882 59.547 38.1305 59.4162 38.1398 59.281C38.1492 59.1459 38.1254 59.0105 38.0706 58.8867L37.3292 56.6305L39.28 55.1808C39.7376 54.8405 39.7112 54.5039 39.6549 54.3335C39.5984 54.163 39.4177 53.8766 38.8435 53.8766ZM36.2239 56.2801L36.9643 58.5331L34.9989 57.1249L32.9933 58.5299L33.7409 56.265L31.7784 54.8169H34.2077L34.9819 52.501L35.7569 54.8169H38.1927L36.2239 56.2801ZM49.1889 53.8766H46.7792L46.0146 51.5906C45.8339 51.052 45.5065 50.9713 45.3274 50.9713C45.1483 50.9713 44.8209 51.0519 44.6402 51.5911L43.8758 53.8766H41.4659C40.8911 53.8766 40.7109 54.1631 40.6547 54.334C40.5986 54.5043 40.5729 54.8407 41.0323 55.1801L42.9796 56.6172L42.2396 58.8589C42.1846 58.9831 42.1609 59.1189 42.1704 59.2544C42.1798 59.3899 42.2223 59.521 42.294 59.6363C42.5071 59.931 42.9197 59.9706 43.3456 59.6731L45.3384 58.2775L47.31 59.6901C47.4712 59.82 47.6695 59.8954 47.8762 59.9055C47.9708 59.9067 48.0643 59.8852 48.1489 59.8428C48.2335 59.8005 48.3066 59.7385 48.3623 59.662C48.4337 59.5469 48.4759 59.4161 48.4853 59.281C48.4947 59.1459 48.4709 59.0105 48.4161 58.8867L47.6747 56.6305L49.6256 55.1808C50.083 54.84 50.0566 54.5037 50.0004 54.3335C49.9437 54.163 49.7632 53.8766 49.1889 53.8766ZM46.5693 56.2801L47.3098 58.5331L45.3444 57.1249L43.3388 58.5299L44.0864 56.265L42.1244 54.8171H44.5531L45.3274 52.5013L46.1023 54.8171H48.5382L46.5693 56.2801ZM59.5339 53.8766H57.1244L56.3596 51.5904C56.1789 51.0517 55.8515 50.9713 55.6724 50.9713C55.4932 50.9713 55.1656 51.052 54.9854 51.5911L54.221 53.8766H51.8108C51.2363 53.8766 51.0561 54.1632 50.9999 54.3338C50.9438 54.5041 50.9181 54.8405 51.3773 55.1801L53.3248 56.6172L52.5848 58.8591C52.5299 58.9834 52.5062 59.1192 52.5158 59.2547C52.5254 59.3902 52.5679 59.5213 52.6397 59.6366C52.8524 59.9309 53.2656 59.97 53.6906 59.6733L55.6834 58.2775L57.655 59.6901C57.8162 59.82 58.0145 59.8954 58.2212 59.9055C58.3158 59.9067 58.4093 59.8852 58.4939 59.8429C58.5785 59.8005 58.6517 59.7385 58.7073 59.662C58.7788 59.547 58.821 59.4162 58.8304 59.281C58.8398 59.1459 58.816 59.0105 58.7611 58.8867L58.0199 56.6305L59.9711 55.1806C60.4283 54.8398 60.4018 54.5035 60.3453 54.3333C60.2889 54.1627 60.1082 53.8766 59.5339 53.8766ZM56.9151 56.2801L57.6551 58.5331L55.6898 57.1249L53.684 58.5296L54.4316 56.265L52.4694 54.8171H54.8984L55.6726 52.5013L56.4476 54.8171H58.8835L56.9151 56.2801ZM69.8792 53.8766H67.4697L66.7048 51.5904C66.5241 51.0517 66.1967 50.9713 66.0176 50.9713C65.8385 50.9713 65.5109 51.052 65.3306 51.5911L64.5663 53.8766H62.1561C61.5816 53.8766 61.4013 54.1632 61.3451 54.3338C61.2891 54.5041 61.2634 54.8405 61.7225 55.1801L63.6701 56.6172L62.9301 58.8591C62.8752 58.9834 62.8515 59.1192 62.861 59.2547C62.8706 59.3902 62.9131 59.5213 62.985 59.6366C63.1976 59.9309 63.6109 59.97 64.0359 59.6733L66.0286 58.2775L68.0003 59.6901C68.1614 59.82 68.3597 59.8954 68.5665 59.9055C68.6611 59.9067 68.7546 59.8852 68.8391 59.8429C68.9237 59.8005 68.9969 59.7385 69.0526 59.662C69.124 59.547 69.1662 59.4162 69.1756 59.281C69.185 59.1459 69.1612 59.0105 69.1063 58.8867L68.3651 56.6305L70.3163 55.1805C70.7735 54.8398 70.7471 54.5035 70.6906 54.3333C70.6342 54.1627 70.4534 53.8766 69.8792 53.8766ZM67.2603 56.2801L68.0003 58.5331L66.0351 57.1249L64.0292 58.5296L64.7769 56.265L62.8146 54.8171H65.2436L66.0179 52.5013L66.7928 54.8171H69.2287L67.2603 56.2801ZM80.5955 32.3958C80.7815 32.3958 80.9634 32.3407 81.118 32.2373C81.2727 32.134 81.3932 31.9871 81.4644 31.8152C81.5356 31.6434 81.5542 31.4543 81.5179 31.2719C81.4816 31.0894 81.3921 30.9218 81.2605 30.7903C81.129 30.6588 80.9614 30.5692 80.779 30.5329C80.5966 30.4966 80.4075 30.5153 80.2356 30.5865C80.0638 30.6576 79.9169 30.7782 79.8135 30.9328C79.7102 31.0875 79.655 31.2693 79.655 31.4553C79.6553 31.7047 79.7545 31.9437 79.9308 32.12C80.1071 32.2964 80.3462 32.3955 80.5955 32.3958ZM80.5955 30.9851C80.6885 30.9851 80.7794 31.0127 80.8568 31.0643C80.9341 31.116 80.9944 31.1895 81.03 31.2754C81.0656 31.3613 81.0749 31.4559 81.0567 31.5471C81.0386 31.6383 80.9938 31.7221 80.928 31.7878C80.8623 31.8536 80.7785 31.8984 80.6873 31.9165C80.596 31.9347 80.5015 31.9254 80.4156 31.8898C80.3296 31.8542 80.2562 31.7939 80.2045 31.7166C80.1529 31.6393 80.1253 31.5483 80.1253 31.4553C80.1254 31.3307 80.175 31.2111 80.2631 31.123C80.3513 31.0348 80.4708 30.9852 80.5955 30.9851ZM25.5777 16.4077C25.8567 16.4077 26.1294 16.325 26.3614 16.17C26.5934 16.015 26.7742 15.7946 26.881 15.5369C26.9878 15.2791 27.0157 14.9954 26.9613 14.7218C26.9068 14.4481 26.7725 14.1968 26.5752 13.9995C26.3779 13.8022 26.1265 13.6678 25.8529 13.6134C25.5792 13.559 25.2956 13.5869 25.0378 13.6937C24.78 13.8004 24.5597 13.9813 24.4047 14.2133C24.2497 14.4452 24.1669 14.718 24.1669 14.997C24.1674 15.371 24.3161 15.7296 24.5806 15.9941C24.8451 16.2585 25.2036 16.4073 25.5777 16.4077ZM25.5777 14.2916C25.7172 14.2916 25.8535 14.333 25.9695 14.4105C26.0855 14.488 26.1759 14.5982 26.2293 14.7271C26.2827 14.856 26.2967 14.9978 26.2695 15.1346C26.2422 15.2714 26.1751 15.3971 26.0764 15.4958C25.9778 15.5944 25.8521 15.6616 25.7153 15.6888C25.5784 15.716 25.4366 15.7021 25.3077 15.6487C25.1788 15.5953 25.0687 15.5049 24.9912 15.3889C24.9137 15.2729 24.8723 15.1365 24.8723 14.997C24.8725 14.81 24.9469 14.6307 25.0791 14.4984C25.2113 14.3662 25.3906 14.2918 25.5777 14.2916ZM31.6908 34.2768C31.8768 34.2768 32.0586 34.2216 32.2133 34.1183C32.3679 34.0149 32.4885 33.868 32.5596 33.6962C32.6308 33.5243 32.6495 33.3352 32.6132 33.1528C32.5769 32.9704 32.4873 32.8028 32.3558 32.6713C32.2242 32.5397 32.0567 32.4502 31.8742 32.4139C31.6918 32.3776 31.5027 32.3962 31.3309 32.4674C31.159 32.5386 31.0121 32.6591 30.9088 32.8138C30.8054 32.9685 30.7503 33.1503 30.7503 33.3363C30.7506 33.5856 30.8497 33.8247 31.0261 34.001C31.2024 34.1773 31.4414 34.2765 31.6908 34.2768ZM31.6908 32.8661C31.7838 32.8661 31.8747 32.8936 31.952 32.9453C32.0293 32.997 32.0896 33.0704 32.1252 33.1563C32.1608 33.2423 32.1701 33.3368 32.152 33.428C32.1338 33.5192 32.089 33.603 32.0233 33.6688C31.9575 33.7346 31.8737 33.7793 31.7825 33.7975C31.6913 33.8156 31.5967 33.8063 31.5108 33.7707C31.4249 33.7351 31.3514 33.6749 31.2998 33.5975C31.2481 33.5202 31.2205 33.4293 31.2205 33.3363C31.2206 33.2116 31.2702 33.0921 31.3584 33.0039C31.4465 32.9158 31.5661 32.8662 31.6908 32.8661ZM54.2622 14.5268C54.4482 14.5268 54.63 14.4716 54.7847 14.3683C54.9393 14.2649 55.0599 14.118 55.1311 13.9462C55.2023 13.7743 55.2209 13.5852 55.1846 13.4028C55.1483 13.2204 55.0587 13.0528 54.9272 12.9213C54.7957 12.7897 54.6281 12.7002 54.4457 12.6639C54.2632 12.6276 54.0741 12.6462 53.9023 12.7174C53.7304 12.7886 53.5835 12.9091 53.4802 13.0638C53.3769 13.2184 53.3217 13.4003 53.3217 13.5863C53.322 13.8356 53.4212 14.0747 53.5975 14.251C53.7738 14.4273 54.0128 14.5265 54.2622 14.5268ZM54.2622 13.1161C54.3552 13.1161 54.4461 13.1436 54.5234 13.1953C54.6008 13.247 54.661 13.3204 54.6966 13.4063C54.7322 13.4923 54.7415 13.5868 54.7234 13.678C54.7052 13.7692 54.6605 13.853 54.5947 13.9188C54.5289 13.9846 54.4451 14.0293 54.3539 14.0475C54.2627 14.0656 54.1682 14.0563 54.0822 14.0207C53.9963 13.9851 53.9229 13.9249 53.8712 13.8475C53.8195 13.7702 53.7919 13.6793 53.7919 13.5863C53.7921 13.4616 53.8417 13.3421 53.9298 13.2539C54.018 13.1658 54.1375 13.1162 54.2622 13.1161ZM16.1729 35.2172C15.9869 35.2172 15.8051 35.2724 15.6504 35.3757C15.4957 35.4791 15.3752 35.626 15.304 35.7978C15.2328 35.9697 15.2142 36.1588 15.2505 36.3412C15.2868 36.5236 15.3764 36.6912 15.5079 36.8227C15.6394 36.9543 15.807 37.0438 15.9894 37.0801C16.1719 37.1164 16.361 37.0978 16.5328 37.0266C16.7047 36.9554 16.8515 36.8349 16.9549 36.6802C17.0582 36.5256 17.1134 36.3437 17.1134 36.1577C17.1131 35.9084 17.0139 35.6693 16.8376 35.493C16.6613 35.3167 16.4222 35.2175 16.1729 35.2172ZM16.1729 36.628C16.0799 36.628 15.989 36.6004 15.9116 36.5487C15.8343 36.497 15.774 36.4236 15.7385 36.3377C15.7029 36.2517 15.6936 36.1572 15.7117 36.066C15.7298 35.9748 15.7746 35.891 15.8404 35.8252C15.9062 35.7594 15.9899 35.7147 16.0812 35.6965C16.1724 35.6784 16.2669 35.6877 16.3529 35.7233C16.4388 35.7589 16.5122 35.8191 16.5639 35.8965C16.6156 35.9738 16.6431 36.0647 16.6431 36.1577C16.643 36.2824 16.5934 36.4019 16.5053 36.4901C16.4171 36.5782 16.2976 36.6278 16.1729 36.628Z" fill="#2068FF"/>
<path d="M82.4766 79.6548H74.1136C74.6512 79.0986 74.952 78.3554 74.9527 77.5819V52.1468C74.9083 51.2199 74.544 50.3371 73.9218 49.6486L52.4798 26.9194C52.2022 26.6382 51.8704 26.4161 51.5045 26.2667C51.1386 26.1173 50.7462 26.0436 50.351 26.0501C49.9559 26.0567 49.5661 26.1433 49.2054 26.3048C48.8446 26.4662 48.5204 26.6991 48.2522 26.9895L27.0482 49.6209C26.4442 50.3288 26.0923 51.2172 26.048 52.1468V77.5819C26.0486 78.3554 26.3495 79.0986 26.8871 79.6548H18.5242C18.3995 79.6548 18.2799 79.7043 18.1917 79.7925C18.1035 79.8807 18.0539 80.0003 18.0539 80.125C18.0539 80.2497 18.1035 80.3693 18.1917 80.4575C18.2799 80.5457 18.3995 80.5952 18.5242 80.5952H82.4766C82.6013 80.5952 82.7209 80.5457 82.8091 80.4575C82.8973 80.3693 82.9468 80.2497 82.9468 80.125C82.9468 80.0003 82.8973 79.8807 82.8091 79.7925C82.7209 79.7043 82.6013 79.6548 82.4766 79.6548ZM74.0122 77.5819C74.0081 78.1349 73.7848 78.6637 73.3913 79.0523C72.9978 79.4409 72.4662 79.6576 71.9131 79.6548H57.5539V68.2483C57.5539 66.5 56.2853 65.0781 54.726 65.0781H46.2749C44.7154 65.0781 43.4468 66.5 43.4468 68.2483V74.6686C43.4468 74.7933 43.4963 74.9129 43.5845 75.0011C43.6727 75.0893 43.7923 75.1388 43.917 75.1388C44.0417 75.1388 44.1613 75.0893 44.2495 75.0011C44.3377 74.9129 44.3872 74.7933 44.3872 74.6686V68.2483C44.3872 67.0187 45.234 66.0183 46.2749 66.0183H54.726C55.7669 66.0183 56.6134 67.0187 56.6134 68.2483V79.6548H44.3872V76.9594C44.3872 76.8347 44.3377 76.7151 44.2495 76.6269C44.1613 76.5387 44.0417 76.4892 43.917 76.4892C43.7923 76.4892 43.6727 76.5387 43.5845 76.6269C43.4963 76.7151 43.4468 76.8347 43.4468 76.9594V79.6548H29.0878C28.5347 79.6576 28.0031 79.441 27.6095 79.0524C27.216 78.6638 26.9926 78.1349 26.9884 77.5819V52.1468C27.0328 51.4562 27.294 50.7973 27.7347 50.2638L48.9392 27.6319C49.1212 27.434 49.3414 27.2751 49.5866 27.1648C49.8317 27.0545 50.0968 26.9952 50.3656 26.9904C50.6327 26.9836 50.8985 27.032 51.1461 27.1325C51.3938 27.233 51.618 27.3835 51.805 27.5745L73.247 50.3034C73.6982 50.8168 73.9672 51.4648 74.0122 52.1468V77.5819ZM16.173 79.6548H13.8218C13.6971 79.6548 13.5775 79.7043 13.4893 79.7925C13.4011 79.8807 13.3516 80.0003 13.3516 80.125C13.3516 80.2497 13.4011 80.3693 13.4893 80.4575C13.5775 80.5457 13.6971 80.5952 13.8218 80.5952H16.173C16.2977 80.5952 16.4173 80.5457 16.5055 80.4575C16.5937 80.3693 16.6432 80.2497 16.6432 80.125C16.6432 80.0003 16.5937 79.8807 16.5055 79.7925C16.4173 79.7043 16.2977 79.6548 16.173 79.6548Z" fill="#061A46"/>
<path d="M11.4702 80.5953C11.7299 80.5953 11.9405 80.3847 11.9405 80.125C11.9405 79.8653 11.7299 79.6548 11.4702 79.6548C11.2105 79.6548 11 79.8653 11 80.125C11 80.3847 11.2105 80.5953 11.4702 80.5953Z" fill="#061A46"/>
<path d="M87.1789 79.6548H84.8277C84.7029 79.6548 84.5833 79.7043 84.4952 79.7925C84.407 79.8807 84.3574 80.0003 84.3574 80.125C84.3574 80.2497 84.407 80.3693 84.4952 80.4575C84.5833 80.5457 84.7029 80.5953 84.8277 80.5953H87.1789C87.3036 80.5953 87.4232 80.5457 87.5114 80.4575C87.5995 80.3693 87.6491 80.2497 87.6491 80.125C87.6491 80.0003 87.5995 79.8807 87.5114 79.7925C87.4232 79.7043 87.3036 79.6548 87.1789 79.6548Z" fill="#061A46"/>
<path d="M89.5288 80.5953C89.7885 80.5953 89.9991 80.3847 89.9991 80.125C89.9991 79.8653 89.7885 79.6548 89.5288 79.6548C89.2691 79.6548 89.0586 79.8653 89.0586 80.125C89.0586 80.3847 89.2691 80.5953 89.5288 80.5953Z" fill="#061A46"/>
<path d="M34.9937 68.8398C35.2534 68.8398 35.4639 68.6292 35.4639 68.3695C35.4639 68.1098 35.2534 67.8993 34.9937 67.8993C34.734 67.8993 34.5234 68.1098 34.5234 68.3695C34.5234 68.6292 34.734 68.8398 34.9937 68.8398Z" fill="#2068FF"/>
<path d="M65.5484 68.8398C65.8081 68.8398 66.0186 68.6292 66.0186 68.3695C66.0186 68.1098 65.8081 67.8993 65.5484 67.8993C65.2887 67.8993 65.0781 68.1098 65.0781 68.3695C65.0781 68.6292 65.2887 68.8398 65.5484 68.8398Z" fill="#2068FF"/>
<path d="M43.3078 18.0667L42.6086 18.9639L43.028 19.2291L43.5067 18.1918H43.5208L43.9624 19.2216L44.426 18.9569L43.7198 18.0738V18.0592L44.8305 18.1918V17.6915L43.7198 17.8382V17.8236L44.419 16.9043L43.9774 16.6541L43.5288 17.6839H43.5138L43.0577 16.6612L42.6086 16.9189L43.3003 17.8165V17.8311L42.2188 17.6915V18.1918L43.3078 18.0521V18.0667Z" fill="#2068FF"/>
<path d="M27.5909 26.1741L27.9934 25.6446L27.7395 25.5007L27.4808 26.0937H27.4724L27.21 25.5045L26.9509 25.6531L27.3496 26.1699V26.1783L26.7266 26.0979V26.3862L27.3539 26.3058V26.3142L26.9509 26.831L27.1926 26.9834L27.4681 26.3862H27.4766L27.7305 26.9792L27.9976 26.8268L27.5909 26.318V26.3095L28.2304 26.3862V26.0979L27.5909 26.1826V26.1741Z" fill="#2068FF"/>
<path d="M79.4862 13.6898V13.4015L78.8467 13.4862V13.4777L79.2492 12.9482L78.9953 12.8043L78.7367 13.3973H78.7282L78.4658 12.8081L78.2067 12.9567L78.6055 13.4735V13.4819L77.9824 13.4015V13.6898L78.6097 13.6094V13.6178L78.2067 14.1346L78.4484 14.287L78.724 13.6898H78.7325L78.9864 14.2827L79.2535 14.1304L78.8467 13.6216V13.6131L79.4862 13.6898Z" fill="#2068FF"/>
<path d="M64.523 22.2636L63.8374 23.1439L64.2488 23.4039L64.7181 22.3859H64.7322L65.1653 23.3964L65.6201 23.1368L64.9274 22.2707V22.2561L66.0169 22.3859V21.8954L64.9274 22.0398V22.0252L65.6135 21.1233L65.1804 20.8778L64.7402 21.8879H64.7252L64.278 20.8849L63.8374 21.1378L64.5159 22.0181V22.0327L63.4551 21.8954V22.3859L64.523 22.249V22.2636Z" fill="#2068FF"/>
<path d="M13.5592 26.5583L14.1507 25.78L13.7774 25.5684L13.3974 26.4398H13.3852L12.9991 25.5745L12.6192 25.7927L13.2046 26.5522V26.5644L12.2891 26.4464V26.8696L13.2107 26.7511V26.7638L12.6192 27.5232L12.9737 27.7475L13.3791 26.8696H13.3908L13.7647 27.7409L14.1568 27.5171L13.5592 26.7699V26.7572L14.4992 26.8696V26.4464L13.5592 26.5705V26.5583Z" fill="#2068FF"/>
<path d="M60.3758 82.4762H40.6258C40.5011 82.4762 40.3815 82.5257 40.2933 82.6139C40.2051 82.7021 40.1556 82.8217 40.1556 82.9464C40.1556 83.0711 40.2051 83.1908 40.2933 83.2789C40.3815 83.3671 40.5011 83.4167 40.6258 83.4167H49.0901V84.3571H44.3877C44.263 84.3571 44.1434 84.4067 44.0552 84.4949C43.967 84.5831 43.9175 84.7027 43.9175 84.8274C43.9175 84.9521 43.967 85.0717 44.0552 85.1599C44.1434 85.2481 44.263 85.2976 44.3877 85.2976H57.0842C57.2089 85.2976 57.3285 85.2481 57.4167 85.1599C57.5049 85.0717 57.5544 84.9521 57.5544 84.8274C57.5544 84.7027 57.5049 84.5831 57.4167 84.4949C57.3285 84.4067 57.2089 84.3571 57.0842 84.3571H51.9116V83.4167H60.3758C60.5006 83.4167 60.6202 83.3671 60.7083 83.2789C60.7965 83.1908 60.8461 83.0711 60.8461 82.9464C60.8461 82.8217 60.7965 82.7021 60.7083 82.6139C60.6202 82.5257 60.5006 82.4762 60.3758 82.4762ZM66.9592 82.4762H62.2568C62.1321 82.4762 62.0125 82.5257 61.9243 82.6139C61.8361 82.7021 61.7866 82.8217 61.7866 82.9464C61.7866 83.0711 61.8361 83.1908 61.9243 83.2789C62.0125 83.3671 62.1321 83.4167 62.2568 83.4167H66.9592C67.0839 83.4167 67.2035 83.3671 67.2917 83.2789C67.3799 83.1908 67.4294 83.0711 67.4294 82.9464C67.4294 82.8217 67.3799 82.7021 67.2917 82.6139C67.2035 82.5257 67.0839 82.4762 66.9592 82.4762ZM38.7449 82.4762H34.0425C33.9178 82.4762 33.7982 82.5257 33.71 82.6139C33.6218 82.7021 33.5723 82.8217 33.5723 82.9464C33.5723 83.0711 33.6218 83.1908 33.71 83.2789C33.7982 83.3671 33.9178 83.4167 34.0425 83.4167H38.7449C38.8696 83.4167 38.9892 83.3671 39.0774 83.2789C39.1656 83.1908 39.2151 83.0711 39.2151 82.9464C39.2151 82.8217 39.1656 82.7021 39.0774 82.6139C38.9892 82.5257 38.8696 82.4762 38.7449 82.4762Z" fill="#2068FF"/>
</g>
<defs>
<clipPath id="clip0_161_291">
<rect width="79" height="79" fill="white" transform="translate(11 11)"/>
</clipPath>
</defs>
</svg>
