<svg xmlns="http://www.w3.org/2000/svg" viewBox="0 0 32 32">
    <g fill="none" fill-rule="evenodd">
        <g>
            <g transform="translate(-351 -284) translate(351 284)">
                <circle cx="16" cy="16" r="15" stroke="#E1E1E1" stroke-width="2"></circle>
                <path fill="#C7C7C7"
                      d="M16.908 10.268c.478-.384 1.171-.354 1.611.082L24 15.78l-5.498 5.446c-.479.474-1.243.47-1.718.002l.04.036-.053-.059c-.36-.44-.359-1.063-.004-1.499l.088-.097 2.525-2.503H9c-.552 0-1-.447-1-1v-.143c0-.552.448-1 1-1h10.896l-3.017-2.989c-.434-.43-.464-1.123-.081-1.596l.049-.056z">
                </path>
            </g>
        </g>
    </g>
</svg>
