<svg width="24" height="24" viewBox="0 0 24 24" fill="none" xmlns="http://www.w3.org/2000/svg">
<path d="M17.8662 21H6.13967C5.30698 21 4.50839 20.6876 3.91959 20.1315C3.33079 19.5754 3 18.8212 3 18.0348V6.95967C3.00156 6.17421 3.33304 5.42142 3.92167 4.86653C4.51031 4.31164 5.308 4 6.13967 4H17.8662C18.2778 4 18.6853 4.07655 19.0655 4.22529C19.4457 4.37403 19.7911 4.59204 20.0821 4.86687C20.3731 5.1417 20.604 5.46797 20.7615 5.82705C20.9189 6.18614 21 6.571 21 6.95967V18.0348C21 18.8202 20.67 19.5736 20.0825 20.1295C19.495 20.6855 18.6979 20.9985 17.8662 21ZM6.13967 5.39344C5.9214 5.39271 5.70512 5.43268 5.50323 5.51106C5.30135 5.58944 5.11784 5.70469 4.96322 5.85021C4.8086 5.99572 4.68592 6.16862 4.60221 6.35901C4.5185 6.5494 4.47541 6.75352 4.47541 6.95967V18.0348C4.47541 18.4516 4.65075 18.8514 4.96286 19.1462C5.27497 19.441 5.69828 19.6066 6.13967 19.6066H17.8662C18.0845 19.6066 18.3006 19.5659 18.5022 19.4868C18.7038 19.4077 18.8869 19.2919 19.041 19.1458C19.195 18.9998 19.3171 18.8265 19.4001 18.6358C19.483 18.4452 19.5254 18.2409 19.5246 18.0348V6.95967C19.5246 6.54428 19.3499 6.14591 19.0389 5.85218C18.7279 5.55846 18.3061 5.39344 17.8662 5.39344H6.13967Z" fill="#2068FF"/>
<path d="M9.82432 12.8199C9.61992 12.8193 9.41804 12.7792 9.23222 12.7023C8.97234 12.5957 8.75231 12.4233 8.59886 12.206C8.4454 11.9887 8.36512 11.7359 8.36775 11.4782V4.66817C8.36775 4.49096 8.44573 4.32101 8.58453 4.1957C8.72333 4.0704 8.91159 4 9.10788 4C9.30417 4 9.49243 4.0704 9.63123 4.1957C9.77003 4.32101 9.84801 4.49096 9.84801 4.66817V11.4782L11.2394 10.3664C11.5009 10.1556 11.8392 10.0391 12.1898 10.0391C12.5403 10.0391 12.8786 10.1556 13.1401 10.3664L14.5671 11.4836L14.5197 4.66817C14.5197 4.49096 14.5977 4.32101 14.7365 4.1957C14.8753 4.0704 15.0635 4 15.2598 4C15.4561 4 15.6444 4.0704 15.7832 4.1957C15.922 4.32101 15.9999 4.49096 15.9999 4.66817V11.4782C16.0026 11.7359 15.9223 11.9887 15.7688 12.206C15.6154 12.4233 15.3954 12.5957 15.1355 12.7023C14.8833 12.807 14.6028 12.843 14.3284 12.806C14.0539 12.769 13.7973 12.6605 13.5901 12.4938L12.1809 11.3927L10.7717 12.4992C10.5099 12.707 10.1729 12.821 9.82432 12.8199ZM13.069 17H7.74013C7.54383 17 7.35558 16.9296 7.21678 16.8043C7.07798 16.679 7 16.509 7 16.3318C7 16.1546 7.07798 15.9847 7.21678 15.8594C7.35558 15.734 7.54383 15.6637 7.74013 15.6637H13.069C13.2653 15.6637 13.4536 15.734 13.5924 15.8594C13.7312 15.9847 13.8092 16.1546 13.8092 16.3318C13.8092 16.509 13.7312 16.679 13.5924 16.8043C13.4536 16.9296 13.2653 17 13.069 17Z" fill="#2068FF"/>
</svg>
