<svg width="24" height="24" viewBox="0 0 24 24" fill="none" xmlns="http://www.w3.org/2000/svg">
<path d="M6 4H18C20.2091 4 22 5.79086 22 8V13C22 15.2091 20.2091 17 18 17H10C7.79086 17 6 15.2091 6 13V4ZM6 4C6 2.89543 5.10457 2 4 2H2" stroke="#2068FF" stroke-width="1.5" stroke-linecap="round" stroke-linejoin="round"/>
<path d="M11 20.5C11 21.3284 10.3284 22 9.5 22C8.67157 22 8 21.3284 8 20.5C8 19.6716 8.67157 19 9.5 19C10.3284 19 11 19.6716 11 20.5Z" stroke="#2068FF" stroke-width="1.5"/>
<path d="M20 20.5C20 21.3284 19.3284 22 18.5 22C17.6716 22 17 21.3284 17 20.5C17 19.6716 17.6716 19 18.5 19C19.3284 19 20 19.6716 20 20.5Z" stroke="#2068FF" stroke-width="1.5"/>
<path d="M11 8.5H17" stroke="#2068FF" stroke-width="1.5" stroke-linecap="round" stroke-linejoin="round"/>
<path d="M11 12.5H17" stroke="#2068FF" stroke-width="1.5" stroke-linecap="round" stroke-linejoin="round"/>
</svg>
