<svg class="text-white" style="width:20px;height:13px;" viewBox="0 0 20 13" version="1.1"
     xmlns="http://www.w3.org/2000/svg" xmlns:xlink="http://www.w3.org/1999/xlink">
    <g id="Page-1" stroke="none" stroke-width="1" fill="none" fill-rule="evenodd">
        <g id="Group" fill="currentColor" fill-rule="nonzero">
            <path
                    d="M10,3 C8.07,3 6.5,4.57 6.5,6.5 C6.5,8.43 8.07,10 10,10 C11.93,10 13.5,8.43 13.5,6.5 C13.5,4.57 11.93,3 10,3 Z M10,8 C9.173,8 8.5,7.327 8.5,6.5 C8.5,5.673 9.173,5 10,5 C10.827,5 11.5,5.673 11.5,6.5 C11.5,7.327 10.827,8 10,8 Z M19.616,5.961 C17,2.5 13,0 10,0 C7,0 3,2.5 0.384,5.961 L0,6.5 L0.383,7.039 C3,10.5 7,13 10,13 C13,13 17,10.5 19.616,7.039 L20,6.5 L19.616,5.961 Z M10,11 C6.688,11 4.25,9.356 2,6.5 C4.25,3.644 6.688,2 10,2 C13.312,2 15.75,3.644 18,6.5 C15.75,9.356 13.312,11 10,11 Z"
                    id="Shape"></path>
        </g>
    </g>
</svg>
