<svg width="24" height="24" viewBox="0 0 24 24" fill="none" xmlns="http://www.w3.org/2000/svg">
<path d="M12.2851 20.7488C12.199 20.8003 12.1005 20.8275 12.0001 20.8275C11.8997 20.8275 11.8012 20.8003 11.7151 20.7488C11.2351 20.4675 -0.0636568 13.77 2.17509 7.58253C3.31884 4.42878 5.28009 3.48378 6.72384 3.24378C7.67601 3.11877 8.64409 3.20847 9.55708 3.50631C10.4701 3.80415 11.3048 4.30258 12.0001 4.96503C12.6954 4.30258 13.5301 3.80415 14.4431 3.50631C15.3561 3.20847 16.3242 3.11877 17.2763 3.24378C18.7201 3.48378 20.6813 4.42878 21.8251 7.58253C24.0638 13.77 12.7651 20.4675 12.2851 20.7488Z" stroke="#2068FF" stroke-width="1.5"/>
</svg>
