<svg xmlns="http://www.w3.org/2000/svg" viewBox="0 0 18 18">
    <g fill="none" fill-rule="evenodd">
        <g>
            <g>
                <g>
                    <g>
                        <g>
                            <path fill="#4285F4"
                                  d="M17.476 7.364H9v3.481h4.844c-.209 1.125-.843 2.078-1.796 2.716v2.259h2.908c1.702-1.567 2.684-6.615 2.684-6.615 0-.639-.057-1.252-.164-1.841z"
                                  transform="translate(-640 -225) translate(432 140) translate(84 69) translate(114) translate(10 16)">
                            </path>
                            <path fill="#34A853"
                                  d="M14.956 15.82l-2.908-2.259c-.806.54-1.837.86-3.048.86-2.344 0-4.328-1.584-5.036-3.711H.957v2.332C2.438 15.983 5.482 18 9 18c2.43 0 4.467-.806 5.956-2.18z"
                                  transform="translate(-640 -225) translate(432 140) translate(84 69) translate(114) translate(10 16)">
                            </path>
                            <path fill="#FBBC05"
                                  d="M3.682 9c0-.593.102-1.17.282-1.71V4.958H.957C.347 6.173 0 7.548 0 9s.348 2.827.957 4.042l3.007-2.332c-.18-.54-.282-1.117-.282-1.71z"
                                  transform="translate(-640 -225) translate(432 140) translate(84 69) translate(114) translate(10 16)">
                            </path>
                            <path fill="#EA4335"
                                  d="M12.44 4.925l2.582-2.58C13.463.891 11.426 0 9 0 5.482 0 2.438 2.017.957 4.958L3.964 7.29C4.672 5.163 6.656 3.58 9 3.58c1.321 0 2.508.454 3.44 1.345z"
                                  transform="translate(-640 -225) translate(432 140) translate(84 69) translate(114) translate(10 16)">
                            </path>
                        </g>
                    </g>
                </g>
            </g>
        </g>
    </g>
</svg>
