<svg width="44" height="44" viewBox="0 0 44 44" fill="none" xmlns="http://www.w3.org/2000/svg">
<circle cx="22" cy="22" r="22" fill="#2068FF"/>
<path d="M10 12.7879C10 11.9798 10.2703 11.3131 10.8108 10.7879C11.3513 10.2626 12.0541 10 12.9189 10C13.7683 10 14.4556 10.2586 14.9807 10.7758C15.5212 11.3091 15.7915 12.004 15.7915 12.8606C15.7915 13.6364 15.529 14.2828 15.0039 14.8C14.4633 15.3333 13.7529 15.6 12.8726 15.6H12.8494C12 15.6 11.3127 15.3333 10.7876 14.8C10.2625 14.2667 10 13.5959 10 12.7879ZM10.3012 34V17.806H15.444V34H10.3012ZM18.2934 34H23.4363V24.9576C23.4363 24.3919 23.4981 23.9555 23.6216 23.6485C23.8378 23.099 24.166 22.6343 24.6062 22.2545C25.0463 21.8747 25.5984 21.6848 26.2625 21.6848C27.9923 21.6848 28.8571 22.905 28.8571 25.3454V34H34V24.7151C34 22.3232 33.4595 20.5091 32.3784 19.2727C31.2973 18.0364 29.8687 17.4182 28.0927 17.4182C26.1004 17.4182 24.5483 18.3151 23.4363 20.1091V20.1576H23.4131L23.4363 20.1091V17.806H18.2934C18.3243 18.3232 18.3398 19.9313 18.3398 22.6303C18.3398 25.3293 18.3243 29.1191 18.2934 34Z" fill="white"/>
</svg>
