<svg width="18" height="17" viewBox="0 0 18 17" fill="none" xmlns="http://www.w3.org/2000/svg">
<path d="M12.7096 11.0759L13.5683 11.9345L17.0028 8.49996L13.5683 5.06543L12.7096 5.92408L14.6784 7.89282H6.07422V9.1071H14.6784L12.7096 11.0759Z" fill="#7D879B"/>
<path d="M13.6414 13.6518C12.2654 15.0279 10.436 15.7857 8.48998 15.7857C6.54382 15.7857 4.71409 15.0279 3.33792 13.6518C1.96172 12.2757 1.21429 10.4461 1.21429 8.5C1.21429 6.55407 1.96172 4.72452 3.33796 3.34835C4.71416 1.97219 6.54386 1.21429 8.48998 1.21429C10.4358 1.21429 12.2653 1.97219 13.6414 3.34832C13.7368 3.44395 13.8296 3.54217 13.9197 3.64286H15.4653C13.9294 1.4409 11.3781 0 8.48998 0C3.79544 0 0 3.80595 0 8.5C0 13.1945 3.79544 17 8.48998 17C11.3782 17 13.9296 15.5592 15.4654 13.3571H13.9198C13.8297 13.4579 13.7369 13.5562 13.6414 13.6518Z" fill="#7D879B"/>
</svg>
