<svg class="text-white" style="width:10px;height:18px;" viewBox="0 0 10 18" version="1.1"
     xmlns="http://www.w3.org/2000/svg" xmlns:xlink="http://www.w3.org/1999/xlink">
    <g id="Page-1" stroke="none" fill="none" fill-rule="evenodd">
        <g id="Group" transform="translate(-11.000000, -7.000000)" fill-rule="nonzero">
            <circle id="Oval" cx="15.5" cy="15.5" r="15.5"></circle>
            <path
                    d="M20.953,13.149 C20.873,12.969 20.698,12.855 20.508,12.855 L17.55,12.855 L20.64,7.785 C20.736,7.628 20.742,7.429 20.656,7.265 C20.57,7.102 20.405,7 20.225,7 L15.717,7 C15.529,7 15.361,7.109 15.277,7.283 L11.052,16.063 C10.975,16.223 10.982,16.408 11.073,16.561 C11.164,16.713 11.32,16.803 11.491,16.803 L14.071,16.803 L11.038,24.291 C10.943,24.524 11.025,24.791 11.237,24.927 C11.314,24.975 11.402,25 11.491,25 C11.636,25 11.774,24.934 11.868,24.818 L20.883,13.695 C21.007,13.544 21.034,13.329 20.953,13.149 L20.953,13.149 Z"
                    id="Path" fill="currentColor"></path>
        </g>
    </g>
</svg>
