<svg width="44" height="44" viewBox="0 0 44 44" fill="none" xmlns="http://www.w3.org/2000/svg">
<circle cx="22" cy="22" r="22" fill="#2068FF"/>
<path d="M34 14.3675C33.0972 14.7714 32.1424 15.0398 31.165 15.1644C32.195 14.5377 32.9651 13.5453 33.3295 12.3752C32.365 12.9619 31.3098 13.375 30.2095 13.5967C29.5349 12.8579 28.6592 12.3443 27.6962 12.1226C26.7333 11.9008 25.7276 11.9812 24.8098 12.3534C23.892 12.7255 23.1045 13.3721 22.5496 14.2093C21.9948 15.0464 21.6982 16.0353 21.6985 17.0475C21.6985 17.4475 21.7315 17.8321 21.8125 18.1983C19.8551 18.0999 17.94 17.5788 16.1925 16.6692C14.4449 15.7596 12.9041 14.482 11.671 12.9198C11.0392 14.0304 10.8439 15.3461 11.1248 16.5992C11.4057 17.8523 12.1418 18.9484 13.183 19.6645C12.4041 19.643 11.6417 19.4299 10.96 19.0429V19.0983C10.9613 20.2636 11.354 21.3928 12.072 22.296C12.79 23.1991 13.7894 23.8209 14.902 24.0568C14.4811 24.1706 14.0473 24.2264 13.612 24.223C13.2994 24.2287 12.9871 24.1998 12.6805 24.1368C12.9984 25.1384 13.6112 26.0143 14.4346 26.6438C15.2579 27.2734 16.2513 27.6257 17.278 27.6522C15.5364 29.0492 13.3885 29.807 11.1775 29.8045C10.774 29.8045 10.387 29.7861 10 29.7353C12.2498 31.2223 14.8715 32.0089 17.548 31.9999C26.602 31.9999 31.552 24.3076 31.552 17.6398C31.552 17.4168 31.5445 17.2014 31.534 16.9875C32.5044 16.2752 33.3401 15.3873 34 14.3675Z" fill="white"/>
</svg>
