<svg width="50" height="50" viewBox="0 0 50 50" fill="none" xmlns="http://www.w3.org/2000/svg">
<rect width="50" height="50" rx="4" fill="#E9ECF3"/>
<path d="M29.25 18.75C29.25 21.0972 27.3472 23 25 23V24.5C28.1756 24.5 30.75 21.9256 30.75 18.75H29.25ZM25 23C22.6528 23 20.75 21.0972 20.75 18.75H19.25C19.25 21.9256 21.8244 24.5 25 24.5V23ZM20.75 18.75C20.75 16.4028 22.6528 14.5 25 14.5V13C21.8244 13 19.25 15.5744 19.25 18.75H20.75ZM25 14.5C27.3472 14.5 29.25 16.4028 29.25 18.75H30.75C30.75 15.5744 28.1756 13 25 13V14.5ZM33 31.875C33 32.646 32.3555 33.5459 30.8518 34.2978C29.3929 35.0272 27.3251 35.5 25 35.5V37C27.5074 37 29.8146 36.4934 31.5226 35.6394C33.1858 34.8078 34.5 33.5202 34.5 31.875H33ZM25 35.5C22.6749 35.5 20.6071 35.0272 19.1482 34.2978C17.6445 33.5459 17 32.646 17 31.875H15.5C15.5 33.5202 16.8142 34.8078 18.4774 35.6394C20.1854 36.4934 22.4926 37 25 37V35.5ZM17 31.875C17 31.104 17.6445 30.2041 19.1482 29.4522C20.6071 28.7228 22.6749 28.25 25 28.25V26.75C22.4926 26.75 20.1854 27.2566 18.4774 28.1106C16.8142 28.9422 15.5 30.2298 15.5 31.875H17ZM25 28.25C27.3251 28.25 29.3929 28.7228 30.8518 29.4522C32.3555 30.2041 33 31.104 33 31.875H34.5C34.5 30.2298 33.1858 28.9422 31.5226 28.1106C29.8146 27.2566 27.5074 26.75 25 26.75V28.25Z" fill="#2068FF"/>
</svg>
