<svg xmlns="http://www.w3.org/2000/svg" xmlns:xlink="http://www.w3.org/1999/xlink" width="33.563" height="19.578" viewBox="0 0 33.563 19.578">
  <defs>
    <clipPath id="clip-path">
      <rect id="Rectangle_3193" data-name="Rectangle 3193" width="33.563" height="19.578" transform="translate(616.873 476.805)" fill="none"/>
    </clipPath>
  </defs>
  <g id="IRAN" transform="translate(-616.873 -476.805)">
    <g id="Group_4994" data-name="Group 4994">
      <g id="Group_4993" data-name="Group 4993">
        <g id="Group_4992" data-name="Group 4992" clip-path="url(#clip-path)">
          <rect id="Rectangle_3189" data-name="Rectangle 3189" width="33.563" height="19.578" transform="translate(616.873 476.805)" fill="#fff"/>
          <rect id="Rectangle_3190" data-name="Rectangle 3190" width="33.563" height="6.543" transform="translate(616.873 476.805)" fill="#49a044"/>
          <rect id="Rectangle_3191" data-name="Rectangle 3191" width="33.563" height="6.539" transform="translate(616.873 489.844)" fill="#c7001b"/>
          <path id="Path_6836" data-name="Path 6836" d="M633.652,484.238l-.353.289.064,4.625.289.336.291-.336.066-4.625Z" fill="#c7001b"/>
          <g id="Group_4991" data-name="Group 4991">
            <g id="Group_4990" data-name="Group 4990" clip-path="url(#clip-path)">
              <path id="Path_6837" data-name="Path 6837" d="M634.365,483.746a.486.486,0,0,1-.674.16c-.011-.008-.027-.015-.037-.023a.5.5,0,0,1-.687-.1.437.437,0,0,0-.026-.039.712.712,0,1,0,1.424,0" fill="#c7001b"/>
              <path id="Path_6838" data-name="Path 6838" d="M634.543,484.391a2.888,2.888,0,0,1-2.668,4.582,2.68,2.68,0,0,0,2.668-4.582" fill="#c7001b"/>
              <path id="Path_6839" data-name="Path 6839" d="M632.762,484.391a2.888,2.888,0,0,0,2.67,4.582,2.68,2.68,0,0,1-2.67-4.582" fill="#c7001b"/>
              <path id="Path_6840" data-name="Path 6840" d="M634.875,484.3a2.89,2.89,0,0,1,.639,4.039c-.047.062-.1.129-.147.183a2.289,2.289,0,0,0-.492-4.222" fill="#c7001b"/>
              <path id="Path_6841" data-name="Path 6841" d="M632.43,484.3a2.89,2.89,0,0,0-.637,4.039,1.763,1.763,0,0,0,.148.183,2.289,2.289,0,0,1,.489-4.222" fill="#c7001b"/>
              <path id="Path_6842" data-name="Path 6842" d="M616.947,483.031h.153v-.308h.459v.308h.761v-.465h-.457v.157h.305v.156h-.457v-.313h-.764Zm.307,0h.152v-.152h-.152Zm-.307-.621h1.985v-.156h-1.985Zm1.985.621h-.457v-.465h.609v-.312h.152v.625h.153v-.625h.152v.625h.154v-.625h.151v.777h-.762v-.308h-.457v.156h.3Z" fill="#fff"/>
              <path id="Path_6843" data-name="Path 6843" d="M620,483.031h.154v-.308h.455v.308h.762v-.465h-.457v.157h.3v.156h-.457v-.313H620Zm.3,0h.152v-.152H620.3Zm-.3-.621h1.982v-.156H620Zm1.982.621h-.459v-.465h.61v-.312h.154v.625h.154v-.625h.151v.625h.154v-.625h.152v.777h-.765v-.308h-.455v.156h.3Z" fill="#fff"/>
              <path id="Path_6844" data-name="Path 6844" d="M623.051,483.031h.152v-.308h.457v.308h.764v-.465h-.457v.157h.3v.156h-.459v-.313h-.762Zm.3,0h.153v-.152h-.153Zm-.3-.621h1.984v-.156h-1.984Zm1.984.621h-.459v-.465h.609v-.312h.153v.625h.154v-.625h.155v.625h.15v-.625h.152v.777h-.764v-.308h-.456v.156h.306Z" fill="#fff"/>
              <path id="Path_6845" data-name="Path 6845" d="M626.1,483.031h.152v-.308h.457v.308h.764v-.465h-.459v.157h.3v.156h-.457v-.313H626.1Zm.3,0h.153v-.152h-.153Zm-.3-.621h1.982v-.156H626.1Zm1.982.621h-.459v-.465h.613v-.312h.153v.625h.15v-.625h.154v.625h.153v-.625H629v.777h-.762v-.308h-.459v.156h.3Z" fill="#fff"/>
              <path id="Path_6846" data-name="Path 6846" d="M629.152,483.031h.153v-.308h.457v.308h.763v-.465h-.459v.157h.307v.156h-.457v-.313h-.764Zm.307,0h.15v-.152h-.15Zm-.307-.621h1.985v-.156h-1.985Zm1.985.621h-.459v-.465h.611v-.312h.152v.625h.153v-.625h.152v.625h.152v-.625h.153v.777h-.762v-.308h-.459v.156h.307Z" fill="#fff"/>
              <path id="Path_6847" data-name="Path 6847" d="M632.2,483.031h.152v-.308h.458v.308h.763v-.465h-.457v.157h.3v.156h-.455v-.313H632.2Zm.307,0h.15v-.152h-.15Zm-.307-.621h1.985v-.156H632.2Zm1.985.621h-.458v-.465h.61v-.312h.152v.625h.153v-.625h.152v.625h.152v-.625h.153v.777h-.762v-.308h-.459v.156h.307Z" fill="#fff"/>
              <path id="Path_6848" data-name="Path 6848" d="M635.254,483.031h.152v-.308h.459v.308h.762v-.465h-.457v.157h.307v.156h-.461v-.313h-.762Zm.3,0h.154v-.152h-.154Zm-.3-.621h1.984v-.156h-1.984Zm1.984.621h-.457v-.465h.61v-.312h.152v.625h.152v-.625h.153v.625H638v-.625h.15v.777h-.761v-.308h-.456v.156h.3Z" fill="#fff"/>
              <path id="Path_6849" data-name="Path 6849" d="M638.307,483.031h.15v-.308h.457v.308h.764v-.465h-.455v.157h.3v.156h-.459v-.313h-.761Zm.3,0h.153v-.152h-.153Zm-.3-.621h1.986v-.156h-1.986Zm1.986.621h-.461v-.465h.609v-.312h.155v.625h.152v-.625h.15v.625h.155v-.625h.152v.777h-.764v-.308h-.457v.156h.309Z" fill="#fff"/>
              <path id="Path_6850" data-name="Path 6850" d="M641.357,483.031h.153v-.308h.457v.308h.763v-.465h-.455v.157h.3v.156h-.461v-.313h-.762Zm.3,0h.153v-.152h-.153Zm-.3-.621h1.983v-.156h-1.983Zm1.983.621h-.457v-.465h.613v-.312h.149v.625h.156v-.625h.148v.625h.153v-.625h.156v.777H643.5v-.308h-.461v.156h.305Z" fill="#fff"/>
              <path id="Path_6851" data-name="Path 6851" d="M644.41,483.031h.153v-.308h.457v.308h.761v-.465h-.457v.157h.305v.156h-.457v-.313h-.762Zm.305,0h.152v-.152h-.152Zm-.305-.621h1.983v-.156H644.41Zm1.983.621h-.459v-.465h.611v-.312h.152v.625h.153v-.625H647v.625h.152v-.625h.153v.777h-.762v-.308h-.457v.156h.3Z" fill="#fff"/>
              <path id="Path_6852" data-name="Path 6852" d="M647.459,483.031h.156v-.308h.457v.308h.76v-.465h-.457v.157h.3v.156h-.457v-.313h-.764Zm.309,0h.148v-.152h-.148Zm-.309-.621h1.982v-.156h-1.982Zm1.982.621h-.457v-.465h.61v-.312h.156v.625h.148v-.625h.157v.625h.152v-.625h.152v.777h-.765v-.308h-.457v.156h.3Z" fill="#fff"/>
              <path id="Path_6853" data-name="Path 6853" d="M616.947,483.5h1.373v-.313h-1.373Zm1.528,0h1.371v-.313h-1.371Z" fill="#fff"/>
              <path id="Path_6854" data-name="Path 6854" d="M620,483.5h1.371v-.313H620Zm1.523,0H622.9v-.313h-1.375Z" fill="#fff"/>
              <path id="Path_6855" data-name="Path 6855" d="M623.051,483.5h1.373v-.313h-1.373Zm1.525,0h1.373v-.313h-1.373Z" fill="#fff"/>
              <path id="Path_6856" data-name="Path 6856" d="M626.1,483.5h1.373v-.313H626.1Zm1.523,0H629v-.313h-1.375Z" fill="#fff"/>
              <path id="Path_6857" data-name="Path 6857" d="M629.152,483.5h1.373v-.313h-1.373Zm1.526,0h1.373v-.313h-1.373Z" fill="#fff"/>
              <path id="Path_6858" data-name="Path 6858" d="M632.2,483.5h1.373v-.313H632.2Zm1.527,0H635.1v-.313H633.73Z" fill="#fff"/>
              <path id="Path_6859" data-name="Path 6859" d="M635.254,483.5h1.373v-.313h-1.373Zm1.527,0h1.371v-.313h-1.371Z" fill="#fff"/>
              <path id="Path_6860" data-name="Path 6860" d="M638.307,483.5h1.371v-.313h-1.371Zm1.525,0h1.373v-.313h-1.373Z" fill="#fff"/>
              <path id="Path_6861" data-name="Path 6861" d="M641.357,483.5h1.373v-.313h-1.373Zm1.526,0h1.375v-.313h-1.375Z" fill="#fff"/>
              <path id="Path_6862" data-name="Path 6862" d="M644.41,483.5h1.371v-.313H644.41Zm1.524,0h1.373v-.313h-1.373Z" fill="#fff"/>
              <path id="Path_6863" data-name="Path 6863" d="M647.459,483.5h1.373v-.313h-1.373Zm1.525,0h1.375v-.313h-1.375Z" fill="#fff"/>
              <path id="Path_6864" data-name="Path 6864" d="M616.947,490.934h.153v-.313h.459v.313h.761v-.469h-.457v.156h.305v.156h-.457v-.312h-.764Zm.307,0h.152v-.157h-.152Zm-.307-.621h1.985v-.157h-1.985Zm1.985.621h-.457v-.469h.609v-.309h.152v.621h.153v-.621h.152v.621h.154v-.621h.151v.778h-.762v-.313h-.457v.156h.3Z" fill="#fff"/>
              <path id="Path_6865" data-name="Path 6865" d="M620,490.934h.154v-.313h.455v.313h.762v-.469h-.457v.156h.3v.156h-.457v-.312H620Zm.3,0h.152v-.157H620.3Zm-.3-.621h1.982v-.157H620Zm1.982.621h-.459v-.469h.61v-.309h.154v.621h.154v-.621h.151v.621h.154v-.621h.152v.778h-.765v-.313h-.455v.156h.3Z" fill="#fff"/>
              <path id="Path_6866" data-name="Path 6866" d="M623.051,490.934h.152v-.313h.457v.313h.764v-.469h-.457v.156h.3v.156h-.459v-.312h-.762Zm.3,0h.153v-.157h-.153Zm-.3-.621h1.984v-.157h-1.984Zm1.984.621h-.459v-.469h.609v-.309h.153v.621h.154v-.621h.155v.621h.15v-.621h.152v.778h-.764v-.313h-.456v.156h.306Z" fill="#fff"/>
              <path id="Path_6867" data-name="Path 6867" d="M626.1,490.934h.152v-.313h.457v.313h.764v-.469h-.459v.156h.3v.156h-.457v-.312H626.1Zm.3,0h.153v-.157h-.153Zm-.3-.621h1.982v-.157H626.1Zm1.982.621h-.459v-.469h.613v-.309h.153v.621h.15v-.621h.154v.621h.153v-.621H629v.778h-.762v-.313h-.459v.156h.3Z" fill="#fff"/>
              <path id="Path_6868" data-name="Path 6868" d="M629.152,490.934h.153v-.313h.457v.313h.763v-.469h-.459v.156h.307v.156h-.457v-.312h-.764Zm.307,0h.15v-.157h-.15Zm-.307-.621h1.985v-.157h-1.985Zm1.985.621h-.459v-.469h.611v-.309h.152v.621h.153v-.621h.152v.621h.152v-.621h.153v.778h-.762v-.313h-.459v.156h.307Z" fill="#fff"/>
              <path id="Path_6869" data-name="Path 6869" d="M632.2,490.934h.152v-.313h.458v.313h.763v-.469h-.457v.156h.3v.156h-.455v-.312H632.2Zm.307,0h.15v-.157h-.15Zm-.307-.621h1.985v-.157H632.2Zm1.985.621h-.458v-.469h.61v-.309h.152v.621h.153v-.621h.152v.621h.152v-.621h.153v.778h-.762v-.313h-.459v.156h.307Z" fill="#fff"/>
              <path id="Path_6870" data-name="Path 6870" d="M635.254,490.934h.152v-.313h.459v.313h.762v-.469h-.457v.156h.307v.156h-.461v-.312h-.762Zm.3,0h.154v-.157h-.154Zm-.3-.621h1.984v-.157h-1.984Zm1.984.621h-.457v-.469h.61v-.309h.152v.621h.152v-.621h.153v.621H638v-.621h.15v.778h-.761v-.313h-.456v.156h.3Z" fill="#fff"/>
              <path id="Path_6871" data-name="Path 6871" d="M638.307,490.934h.15v-.313h.457v.313h.764v-.469h-.455v.156h.3v.156h-.459v-.312h-.761Zm.3,0h.153v-.157h-.153Zm-.3-.621h1.986v-.157h-1.986Zm1.986.621h-.461v-.469h.609v-.309h.155v.621h.152v-.621h.15v.621h.155v-.621h.152v.778h-.764v-.313h-.457v.156h.309Z" fill="#fff"/>
              <path id="Path_6872" data-name="Path 6872" d="M641.357,490.934h.153v-.313h.457v.313h.763v-.469h-.455v.156h.3v.156h-.461v-.312h-.762Zm.3,0h.153v-.157h-.153Zm-.3-.621h1.983v-.157h-1.983Zm1.983.621h-.457v-.469h.613v-.309h.149v.621h.156v-.621h.148v.621h.153v-.621h.156v.778H643.5v-.313h-.461v.156h.305Z" fill="#fff"/>
              <path id="Path_6873" data-name="Path 6873" d="M644.41,490.934h.153v-.313h.457v.313h.761v-.469h-.457v.156h.305v.156h-.457v-.312h-.762Zm.305,0h.152v-.157h-.152Zm-.305-.621h1.983v-.157H644.41Zm1.983.621h-.459v-.469h.611v-.309h.152v.621h.153v-.621H647v.621h.152v-.621h.153v.778h-.762v-.313h-.457v.156h.3Z" fill="#fff"/>
              <path id="Path_6874" data-name="Path 6874" d="M647.459,490.934h.156v-.313h.457v.313h.76v-.469h-.457v.156h.3v.156h-.457v-.312h-.764Zm.309,0h.148v-.157h-.148Zm-.309-.621h1.982v-.157h-1.982Zm1.982.621h-.457v-.469h.61v-.309h.156v.621h.148v-.621h.157v.621h.152v-.621h.152v.778h-.765v-.313h-.457v.156h.3Z" fill="#fff"/>
              <path id="Path_6875" data-name="Path 6875" d="M616.947,490h1.373v-.312h-1.373Zm1.528,0h1.371v-.312h-1.371Z" fill="#fff"/>
              <path id="Path_6876" data-name="Path 6876" d="M620,490h1.371v-.312H620Zm1.523,0H622.9v-.312h-1.375Z" fill="#fff"/>
              <path id="Path_6877" data-name="Path 6877" d="M623.051,490h1.373v-.312h-1.373Zm1.525,0h1.373v-.312h-1.373Z" fill="#fff"/>
              <path id="Path_6878" data-name="Path 6878" d="M626.1,490h1.373v-.312H626.1Zm1.523,0H629v-.312h-1.375Z" fill="#fff"/>
              <path id="Path_6879" data-name="Path 6879" d="M629.152,490h1.373v-.312h-1.373Zm1.526,0h1.373v-.312h-1.373Z" fill="#fff"/>
              <path id="Path_6880" data-name="Path 6880" d="M632.2,490h1.373v-.312H632.2Zm1.527,0H635.1v-.312H633.73Z" fill="#fff"/>
              <path id="Path_6881" data-name="Path 6881" d="M635.254,490h1.373v-.312h-1.373Zm1.527,0h1.371v-.312h-1.371Z" fill="#fff"/>
              <path id="Path_6882" data-name="Path 6882" d="M638.307,490h1.371v-.312h-1.371Zm1.525,0h1.373v-.312h-1.373Z" fill="#fff"/>
              <path id="Path_6883" data-name="Path 6883" d="M641.357,490h1.373v-.312h-1.373Zm1.526,0h1.375v-.312h-1.375Z" fill="#fff"/>
              <path id="Path_6884" data-name="Path 6884" d="M644.41,490h1.371v-.312H644.41Zm1.524,0h1.373v-.312h-1.373Z" fill="#fff"/>
              <path id="Path_6885" data-name="Path 6885" d="M647.459,490h1.373v-.312h-1.373Zm1.525,0h1.375v-.312h-1.375Z" fill="#fff"/>
            </g>
          </g>
        </g>
      </g>
    </g>
  </g>
</svg>
