<svg xmlns="http://www.w3.org/2000/svg" width="16.804" height="16.804" viewBox="0 0 16.804 16.804">
  <path id="date_1_" data-name="date (1)" d="M16.283,3.68H14.6V2.84a.84.84,0,1,0-1.68,0v.84H7.881V2.84a.84.84,0,0,0-1.68,0v.84H4.521A2.521,2.521,0,0,0,2,6.2V16.283A2.521,2.521,0,0,0,4.521,18.8H16.283A2.521,2.521,0,0,0,18.8,16.283V6.2A2.521,2.521,0,0,0,16.283,3.68Zm.84,12.6a.84.84,0,0,1-.84.84H4.521a.84.84,0,0,1-.84-.84V10.4H17.124Zm0-7.562H3.68V6.2a.84.84,0,0,1,.84-.84H6.2V6.2a.84.84,0,0,0,1.68,0v-.84h5.041V6.2a.84.84,0,0,0,1.68,0v-.84h1.68a.84.84,0,0,1,.84.84Z" transform="translate(-2 -2)" fill="#cf1406"/>
</svg>
