<svg id="desktop_pay" xmlns="http://www.w3.org/2000/svg" xmlns:xlink="http://www.w3.org/1999/xlink" width="263.939" height="19.219" viewBox="0 0 263.939 19.219">
  <defs>
    <radialGradient id="radial-gradient" cx="0.176" cy="0.175" r="1.344" gradientTransform="translate(0.054) scale(0.694 1)" gradientUnits="objectBoundingBox">
      <stop offset="0" stop-color="#9dd5f6"/>
      <stop offset="0.071" stop-color="#98d3f5"/>
      <stop offset="0.157" stop-color="#89cef3"/>
      <stop offset="0.252" stop-color="#70c6ef"/>
      <stop offset="0.351" stop-color="#4ebbea"/>
      <stop offset="0.455" stop-color="#23ade3"/>
      <stop offset="0.5" stop-color="#0da6e0"/>
      <stop offset="1" stop-color="#2e77bc"/>
    </radialGradient>
    <linearGradient id="linear-gradient" y1="0.5" x2="1" y2="0.5" gradientUnits="objectBoundingBox">
      <stop offset="0" stop-color="#1d1c45"/>
      <stop offset="1" stop-color="#174489"/>
    </linearGradient>
    <linearGradient id="linear-gradient-2" x1="0.903" y1="0.5" x2="0" y2="0.5" gradientUnits="objectBoundingBox">
      <stop offset="0" stop-color="#1e64ff"/>
      <stop offset="1" stop-color="#1e64ff" stop-opacity="0"/>
    </linearGradient>
  </defs>
  <g id="PWI_Method_02_FooterAlternatives">
    <g id="logo-band-iyzicoileode">
      <g id="Troy-Logo" transform="translate(227.64 1.846)">
        <g id="Group_1_" transform="translate(0.946 14.042)">
          <path id="Path_6_" d="M.531.623H.285A.06.06,0,0,0,.223.685V.746H.1V.623A.132.132,0,0,1,.223.5h.8c.062,0,.123,0,.062.123V.746H.961V.623H.654L.408,1.73H.285Z" transform="translate(-0.1 -0.254)" fill="#323e48" fill-rule="evenodd"/>
          <path id="Shape_5_" d="M1.709.992h0L1.586.931V.808h.123c.062,0,.123,0,.062.123l-.062.431c0,.123,0,.246.123.246A.4.4,0,0,0,2.2,1.238L2.263.808h.185l-.185.738v.062h.062V1.73H2.263c-.062,0-.123-.062-.062-.123V1.484h0a.415.415,0,0,1-.369.246c-.246,0-.308-.123-.246-.308ZM1.955.5h.123L2.017.685H1.955ZM2.2.5h.123V.685H2.2Z" transform="translate(-0.663 -0.254)" fill="#323e48"/>
          <path id="Path_7_" d="M3.323,1.185h0l-.062-.062V1h.123c.062,0,.123,0,.062.123v.123h0A.409.409,0,0,1,3.754,1h.062v.123H3.754a.409.409,0,0,0-.308.246c0,.062-.062.123-.062.185l-.062.369H3.2Z" transform="translate(-1.293 -0.446)" fill="#323e48" fill-rule="evenodd"/>
          <path id="Path_8_" d="M4.346.685h0L4.223.623V.5h.123c.062,0,.123,0,.062.123l-.062.554h.062c.062,0,.062,0,.123-.062L4.838.808h.123l-.308.369-.062.062h0l.062.062.062.308a.06.06,0,0,0,.062.062h.062v.123H4.715c-.062,0-.123,0-.123-.062L4.469,1.3a.06.06,0,0,0-.062-.062H4.346l-.123.492H4.1Z" transform="translate(-1.639 -0.254)" fill="#323e48" fill-rule="evenodd"/>
          <path id="Shape_6_" d="M5.893.992A.06.06,0,0,0,5.832.931H5.647L5.709.808h.308c.185,0,.246,0,.185.123l-.369.615a.06.06,0,0,0,.062.062h.185l-.062.123H5.77c-.185,0-.246-.062-.185-.123ZM6.139.5h.246L6.324.685H6.078Z" transform="translate(-2.202 -0.254)" fill="#323e48"/>
          <path id="Path_9_" d="M6.085,2.169c.062,0,.123-.062.185-.123l.062-.123-.123-.738a.06.06,0,0,0-.062-.062h0V1h.062c.062,0,.123,0,.123.062l.123.554v.123h0a.191.191,0,0,1,.062-.123l.308-.554C6.884,1,6.884,1,6.946,1h.062v.123h0a.06.06,0,0,0-.062.062l-.615.923a.47.47,0,0,1-.308.123c-.123,0-.123-.062-.123-.062l.062-.062s0,.062.123.062" transform="translate(-2.332 -0.446)" fill="#323e48" fill-rule="evenodd"/>
          <path id="Shape_7_" d="M8.185,1a.311.311,0,0,1,.308.431v.062H7.816c-.062.185.062.308.246.308a.471.471,0,0,0,.308-.123l.062.062a.539.539,0,0,1-.369.123.346.346,0,0,1-.369-.431A.522.522,0,0,1,8.185,1Zm.185.369c.062-.185-.062-.246-.185-.246a.506.506,0,0,0-.369.246Z" transform="translate(-3.017 -0.446)" fill="#323e48"/>
          <path id="Path_10_" d="M9.423.5h.123L9.423.808H9.3Z" transform="translate(-3.64 -0.254)" fill="#323e48" fill-rule="evenodd"/>
          <path id="Path_11_" d="M9.823,1.185h0l-.062-.062V1h.123c.062,0,.123,0,.062.123v.123h0c.062-.062.185-.246.369-.246.246,0,.246.123.246.308l-.062.431V1.8h.062v.123h-.123c-.062,0-.123-.062-.062-.123l.062-.431c0-.123.062-.246-.123-.246a.506.506,0,0,0-.369.246c0,.062,0,.062-.062.123l-.062.431H9.7Z" transform="translate(-3.794 -0.446)" fill="#323e48" fill-rule="evenodd"/>
          <path id="Shape_8_" d="M11.693.992a.06.06,0,0,0-.062-.062h-.185l.062-.123h.308c.185,0,.246,0,.185.123l-.308.615a.06.06,0,0,0,.062.062h.185l-.062.123H11.57c-.185,0-.246-.062-.185-.123ZM11.939.5h.246l-.062.123h-.246Z" transform="translate(-4.433 -0.254)" fill="#323e48"/>
          <path id="Path_12_" d="M12.185,1.185h0l-.123-.062V1h.123c.062,0,.123,0,.062.123v.123h0A.729.729,0,0,1,12.677,1c.185,0,.246.123.185.308l-.062.431V1.8h.062v.123h-.123c-.062,0-.123-.062-.062-.123l.062-.431c0-.123.062-.246-.123-.246a.506.506,0,0,0-.369.246c0,.062,0,.062-.062.123l-.123.431H12Z" transform="translate(-4.679 -0.446)" fill="#323e48" fill-rule="evenodd"/>
          <path id="Shape_9_" d="M15.331.346a.471.471,0,0,1,.492.615.78.78,0,0,1-.738.615.471.471,0,0,1-.492-.615A.731.731,0,0,1,15.331.346Zm-.308,1.107a.731.731,0,0,0,.615-.492.373.373,0,0,0-.369-.492.731.731,0,0,0-.615.492A.373.373,0,0,0,15.023,1.454ZM15.208.1h.123l-.062.123h-.123Zm.246,0h.123l-.062.123h-.123Z" transform="translate(-5.672 -0.1)" fill="#323e48"/>
          <path id="Shape_10_" d="M17.217.769a.274.274,0,0,1,.246.185h0V.892l.062-.308V.523h-.062V.4h.123c.062,0,.123,0,.062.123l-.185.923v.062h.062V1.63H17.4c-.062,0-.123-.062-.062-.123V1.446h0a.424.424,0,0,1-.308.185c-.246,0-.308-.185-.246-.431a.421.421,0,0,1,.431-.431m.185.492c.062-.185,0-.369-.185-.369a.446.446,0,0,0-.369.369c-.062.185.062.369.185.369a.547.547,0,0,0,.369-.369" transform="translate(-6.512 -0.215)" fill="#323e48"/>
          <path id="Shape_11_" d="M18.885,1c.246,0,.308.185.308.369v.062h-.677a.271.271,0,0,0,.246.369.471.471,0,0,0,.308-.123l.062.062a.78.78,0,0,1-.369.123.346.346,0,0,1-.369-.431A.475.475,0,0,1,18.885,1Zm.123.369c.062-.185-.062-.246-.185-.246a.383.383,0,0,0-.369.246Z" transform="translate(-7.134 -0.446)" fill="#323e48"/>
          <path id="Path_13_" d="M19.923,1.185c.062,0,0-.062,0,0L19.8,1.123V1h.123c.062,0,.123,0,.062.123v.123h0A.781.781,0,0,1,20.415,1c.185,0,.246.062.246.185h0A.526.526,0,0,1,21.03,1c.185,0,.246.123.185.308l-.062.431V1.8h.062v.123h-.123c-.062,0-.123-.062-.062-.123l.123-.431c.062-.123,0-.246-.123-.246a.409.409,0,0,0-.308.246c0,.062-.062.062-.062.123l-.062.431h-.123l.123-.492c0-.123.062-.246-.123-.246a.409.409,0,0,0-.308.246c0,.062-.062.062-.062.123l-.185.369H19.8Z" transform="translate(-7.68 -0.446)" fill="#323e48" fill-rule="evenodd"/>
          <path id="Shape_12_" d="M22.985,1c.246,0,.308.185.308.369v.062h-.677a.271.271,0,0,0,.246.369.471.471,0,0,0,.308-.123l.062.062a.78.78,0,0,1-.369.123.346.346,0,0,1-.369-.431A.475.475,0,0,1,22.985,1Zm.123.369c.062-.185-.062-.246-.185-.246a.383.383,0,0,0-.369.246Z" transform="translate(-8.711 -0.446)" fill="#323e48"/>
          <path id="Path_14_" d="M25.046,1.138,24.862.585A.06.06,0,0,0,24.8.523h0V.4h.062c.062,0,.123,0,.123.123l.123.308a.215.215,0,0,0,.062.123h0l.123-.123.246-.246c.062-.062.123-.123.185-.123h.062V.585h0c-.062,0-.062,0-.062.062l-.431.554-.123.492h-.246Z" transform="translate(-9.604 -0.215)" fill="#323e48" fill-rule="evenodd"/>
          <path id="Shape_13_" d="M26.546.808a.346.346,0,0,1,.369.431.591.591,0,0,1-.554.431.346.346,0,0,1-.369-.431A.681.681,0,0,1,26.546.808Zm-.185.8a.449.449,0,0,0,.431-.369c.062-.185-.062-.308-.246-.308a.463.463,0,0,0-.431.308C26.054,1.484,26.177,1.607,26.362,1.607ZM26.423.5h.123l-.062.123h-.123Zm.246,0h.123V.623h-.123Z" transform="translate(-10.058 -0.254)" fill="#323e48"/>
          <path id="Path_15_" d="M27.823,1.185h0L27.7,1.123V1h.185c.062,0,.123,0,.062.123v.123h0c.062-.062.185-.246.369-.246s.246.123.185.308l-.062.431A.06.06,0,0,0,28.5,1.8h.062v.123h-.123c-.062,0-.123-.062-.062-.123l.062-.431c0-.123.062-.246-.123-.246a.506.506,0,0,0-.369.246c-.062.062-.062.062-.062.123l-.062.431H27.7Z" transform="translate(-10.719 -0.446)" fill="#323e48" fill-rule="evenodd"/>
          <path id="Path_16_" d="M29.515.969h-.123V.846h.123L29.577.6H29.7l-.062.246h.246V.969h-.246l-.123.431c-.062.185.062.246.123.246H29.7v.123h-.062c-.123,0-.308-.062-.246-.308Z" transform="translate(-11.366 -0.292)" fill="#323e48" fill-rule="evenodd"/>
          <path id="Shape_14_" d="M30.785,1c.246,0,.308.185.308.369v.062h-.677a.271.271,0,0,0,.246.369.471.471,0,0,0,.308-.123l.062.062a.539.539,0,0,1-.369.123.346.346,0,0,1-.369-.431A.475.475,0,0,1,30.785,1Zm.185.369c.062-.185-.062-.246-.185-.246a.383.383,0,0,0-.369.246Z" transform="translate(-11.712 -0.446)" fill="#323e48"/>
          <path id="Path_17_" d="M31.923,1.185h0L31.8,1.123V1h.123c.062,0,.123,0,.062.123v.123h0c.123-.123.246-.246.369-.246.185,0,.246.062.246.185h0A.7.7,0,0,1,32.969,1q.277,0,.185.369l-.062.431v.062h.062v.123H33.03c-.062,0-.123-.062-.062-.123l.062-.431c.062-.123,0-.246-.123-.246a.409.409,0,0,0-.308.246c0,.062-.062.062-.062.123l-.062.431h-.123l.123-.492c0-.123.062-.246-.123-.246a.409.409,0,0,0-.308.246c0,.062,0,.062-.062.123l-.062.431H31.8Z" transform="translate(-12.297 -0.446)" fill="#323e48" fill-rule="evenodd"/>
          <path id="Shape_15_" d="M34.693.992a.06.06,0,0,0-.062-.062h-.185l.062-.123h.308c.185,0,.246,0,.185.123l-.308.615a.06.06,0,0,0,.062.062h.185l-.062.123H34.57c-.185,0-.246-.062-.185-.123ZM34.939.5h.246l-.062.123h-.246Z" transform="translate(-13.283 -0.254)" fill="#323e48"/>
        </g>
        <g id="Group_2_">
          <g id="Path_18_">
            <path id="Path" d="M47.536,4.4a1.506,1.506,0,0,0-1.292.8l-2.338,5.353L43.045,5.2a.943.943,0,0,0-.984-.8H39.046l2.584,8.921a.854.854,0,0,1,0,.554,1.637,1.637,0,0,1-1.538,1.354H38.43c-.431,0-.677.246-.861.861L37.2,18.3h2.953a5.2,5.2,0,0,0,4.553-2.892L50.612,4.4Z" transform="translate(-14.313 -1.693)" fill="#323e48" fill-rule="evenodd"/>
            <path id="Path-2" data-name="Path" d="M4.184,0c.861,0,1.292.369,1.169,1.23L5.107,2.646h2.03L6.706,5.168H4.614L4.061,8.306c-.185,1.107.861,1.23,1.538,1.23h.308L5.414,12.3c-.123,0-.308.062-.615.062-1.538,0-4.43-.431-3.876-3.63l.615-3.568H0L.431,2.646H1.907L2.4,0Z" fill="#323e48" fill-rule="evenodd"/>
            <g id="Group" transform="translate(14.883 2.582)">
              <path id="Path-3" data-name="Path" d="M9.361.3,8.807,3.253A2,2,0,0,1,9.915,4.976,1.989,1.989,0,0,1,8.192,6.945L7.7,9.9h.308A4.936,4.936,0,0,0,12.93,4.976,5.085,5.085,0,0,0,9.361.3Z" transform="translate(-2.963 -0.115)" fill="#00adbb" fill-rule="evenodd"/>
              <path id="Path-4" data-name="Path" d="M4.061,6.645A2,2,0,0,1,2.953,4.922,1.989,1.989,0,0,1,4.676,2.953L5.23,0H4.922A4.9,4.9,0,0,0,3.507,9.6Z" fill="#00adbb" fill-rule="evenodd"/>
            </g>
            <path id="Path-5" data-name="Path" d="M12.423,4.323h1.723c.861,0,1.292.369,1.169,1.23L15.13,6.6a4.249,4.249,0,0,1,3.507-2.4,1.341,1.341,0,0,1,.369.062l-.554,3.2a3.31,3.31,0,0,0-3.507,1.6,3.976,3.976,0,0,0-.369,1.292l-.615,3.568H10.7Z" transform="translate(-4.117 -1.616)" fill="#323e48" fill-rule="evenodd"/>
          </g>
          <path id="Shape_16_" d="M57.692,20.046a1.05,1.05,0,1,1-.308-.738A1.019,1.019,0,0,1,57.692,20.046Zm-.185,0a.841.841,0,1,0-.246.615A.79.79,0,0,0,57.507,20.046Zm-.431.554h-.185l-.246-.492h-.185V20.6h-.185V19.492h.369a.435.435,0,0,1,.369.369c0,.185-.062.246-.246.308Zm-.185-.8c0-.062,0-.123-.062-.123s-.123-.062-.185-.062h-.185v.369h.185a.226.226,0,0,0,.185-.062A.215.215,0,0,0,56.892,19.8Z" transform="translate(-21.393 -7.31)" fill="#323e48"/>
        </g>
      </g>
      <g id="American_Express" transform="translate(180.881)">
        <path id="Path_5_" d="M26.578,0H0V18.457H26.578V12.366" fill-rule="evenodd" fill="url(#radial-gradient)"/>
        <g id="Group-2" data-name="Group" transform="translate(0.062 4.122)">
          <path id="Shape_3_" d="M2.438,2.5l-.492-1.23L1.454,2.5Zm11.136-.492a.78.78,0,0,1-.369.062h-.861V1.392h.923a.78.78,0,0,1,.369.062c.123.062.185.123.185.246A.614.614,0,0,1,13.574,2.007Zm6.4.492-.492-1.23L18.988,2.5ZM8.037,3.853H7.3V1.392L6.252,3.853H5.576L4.53,1.392V3.853H2.992l-.246-.677H1.207L.9,3.853H.1L1.392.715H2.5L3.73,3.668V.715H4.96l.984,2.092L6.806.715h1.23Zm3.015,0H8.59V.715h2.461v.677H9.329v.554H10.99v.615H9.329v.615h1.723Zm3.507-2.276a.81.81,0,0,1-.492.8.946.946,0,0,1,.369.246.827.827,0,0,1,.123.554v.615H13.82V3.422a1.109,1.109,0,0,0-.123-.615c-.123-.123-.246-.123-.554-.123h-.8V3.791h-.738V.715h1.723a2.1,2.1,0,0,1,.923.123A.922.922,0,0,1,14.558,1.577Zm1.169,2.276h-.738V.715h.738Zm8.736,0H23.418L22,1.515V3.853H20.526l-.308-.677H18.68l-.308.677h-.861a1.3,1.3,0,0,1-1.046-.369A1.566,1.566,0,0,1,16.1,2.315a1.728,1.728,0,0,1,.369-1.23A1.5,1.5,0,0,1,17.573.715h.738v.677h-.677a.752.752,0,0,0-.554.185.99.99,0,0,0-.185.677,1.312,1.312,0,0,0,.185.738.7.7,0,0,0,.492.185h.308L18.926.715h1.107l1.23,2.953V.715h1.107l1.292,2.153V.715H24.4l.062,3.138ZM.1,4.468H1.33l.308-.677h.615l.308.677H5.022V3.915l.246.554H6.56l.246-.554v.554h6.152V3.361h.123c.062,0,.123,0,.123.123v.984h3.2V4.222a2.762,2.762,0,0,0,1.169.246h1.354l.308-.677h.615l.308.677h2.584V3.791l.369.677H25.2V.1h-2.03V.654L22.8.1H20.711V.654L20.465.162h-2.83A2.44,2.44,0,0,0,16.4.408V.1H14.435V.346A1.413,1.413,0,0,0,13.574.1h-7.2L5.945,1.207,5.453.1H3.176V.654L2.93.1H1.023L.1,2.192Z" transform="translate(-0.1 -0.1)" fill="#fff"/>
          <path id="Shape_4_" d="M29.641,10.092H28.288a.461.461,0,0,0-.308.062.32.32,0,0,0-.123.246c0,.123.062.185.185.246a2.665,2.665,0,0,0,.308.062h.369a1.113,1.113,0,0,1,.861.246l.062.062Zm0,2.092a1.211,1.211,0,0,1-.984.369H27.242v-.677h1.415a.461.461,0,0,0,.308-.062.226.226,0,0,0,.062-.185.62.62,0,0,0-.062-.185c-.062-.062-.123-.062-.246-.062-.677,0-1.538,0-1.538-.984a.94.94,0,0,1,1.046-.923H29.7V8.862H28.349a1.66,1.66,0,0,0-.923.246V8.8H25.4a1.3,1.3,0,0,0-.861.246V8.8H20.9v.246A2.3,2.3,0,0,0,19.92,8.8H17.459v.246A1.565,1.565,0,0,0,16.414,8.8H13.768l-.615.677L12.6,8.8h-4v4.368h3.876l.615-.677.615.677h2.4V12.122h.246A3.227,3.227,0,0,0,17.4,12v1.169h1.969V12.061h.123c.123,0,.123,0,.123.123v.984h6.029a1.565,1.565,0,0,0,.984-.308v.308h1.907a3.218,3.218,0,0,0,1.107-.185v-.8Zm-2.953-1.292a.984.984,0,0,1,.246.677c0,.677-.431.984-1.169.984H24.35v-.677h1.415a.461.461,0,0,0,.308-.062.226.226,0,0,0,.062-.185.62.62,0,0,0-.062-.185c-.062-.062-.123-.062-.246-.062-.677,0-1.538,0-1.538-.984a.94.94,0,0,1,1.046-.923h1.477v.677H25.458a.461.461,0,0,0-.308.062.32.32,0,0,0-.123.246c0,.123.062.185.185.246a2.665,2.665,0,0,0,.308.062h.369A.843.843,0,0,1,26.688,10.892Zm-6.645-.185a.78.78,0,0,1-.369.062h-.923v-.677h.923a.78.78,0,0,1,.369.062c.123.062.123.123.123.308A.32.32,0,0,1,20.044,10.707Zm.431.369a.946.946,0,0,1,.369.246c.123.123.123.308.123.554v.615h-.738v-.369c0-.185,0-.492-.123-.615s-.246-.123-.554-.123h-.8v1.107h-.738V9.415h1.723a1.825,1.825,0,0,1,.861.123.652.652,0,0,1,.369.677A.844.844,0,0,1,20.474,11.076ZM21.4,9.415h2.461v.615H22.135v.554H23.8V11.2H22.135v.615h1.723v.677H21.4Zm-4.983,1.477h-.923v-.8h.984c.246,0,.431.123.431.369A.439.439,0,0,1,16.414,10.892Zm-1.661,1.354-1.107-1.292,1.107-1.23ZM11.8,11.876H10.015v-.615h1.6v-.615h-1.6v-.554h1.846l.8.923Zm5.845-1.415c0,.861-.615,1.046-1.292,1.046h-.923v1.046H14.014l-.861-1.046-.923,1.046H9.277V9.415H12.23l.923,1.046.923-1.046h2.338C17.029,9.415,17.644,9.6,17.644,10.461Z" transform="translate(-3.37 -3.447)" fill="#fff"/>
        </g>
      </g>
      <g id="visa" transform="translate(123.048 2.461)">
        <path id="Fill-1" d="M18.888.246,16.365,12.12H13.289L15.812.246ZM31.87,7.875l1.6-4.491.923,4.491Zm3.445,4.245h2.83L35.684.246H33.039a1.359,1.359,0,0,0-1.292.861L27.071,12.12h3.261l.615-1.784h3.938Zm-8.06-3.876c0-3.138-4.368-3.322-4.307-4.737,0-.431.431-.861,1.292-.984a5.354,5.354,0,0,1,3.015.554L27.809.554A7.31,7.31,0,0,0,24.917,0c-3.076,0-5.168,1.6-5.23,3.938,0,1.723,1.538,2.646,2.707,3.261,1.23.554,1.6.984,1.6,1.477,0,.8-.984,1.169-1.846,1.169a6.849,6.849,0,0,1-3.138-.738l-.554,2.584A9.6,9.6,0,0,0,21.9,12.3C25.1,12.3,27.255,10.705,27.255,8.244Zm-12.8-8L9.475,12.12H6.214L3.753,2.646A1.259,1.259,0,0,0,3.015,1.6,10.212,10.212,0,0,0,0,.615L.062.246h5.23a1.392,1.392,0,0,1,1.415,1.23L8,8.367,11.2.246Z" fill-rule="evenodd" fill="url(#linear-gradient)"/>
      </g>
      <g id="mastercard-seeklogo.com" transform="translate(79.366)">
        <path id="Shape" d="M5.138,28.207v-1.23a.743.743,0,0,0-.8-.8.713.713,0,0,0-.677.369.707.707,0,0,0-.677-.369.589.589,0,0,0-.554.308v-.246H2v1.969h.431V27.1c0-.369.185-.492.492-.492s.431.185.431.492v1.107h.431V27.1c0-.369.185-.492.492-.492s.431.185.431.492v1.107Zm6.4-1.969h-.677v-.615h-.431v.615H10v.369h.369v.923c0,.431.185.738.677.738a1.8,1.8,0,0,0,.554-.123l-.123-.369a.874.874,0,0,1-.369.123.291.291,0,0,1-.308-.308V26.73h.677v-.492Zm3.63-.062a.487.487,0,0,0-.492.308v-.246h-.431v1.969h.431V27.1c0-.308.123-.492.431-.492a.37.37,0,0,1,.246.062l.123-.431A.461.461,0,0,0,15.166,26.177Zm-5.537.185a1.539,1.539,0,0,0-.8-.185c-.492,0-.8.246-.8.615,0,.308.246.492.677.554h.185q.369.092.369.185c0,.123-.185.246-.431.246a1.784,1.784,0,0,1-.677-.185l-.185.308a1.413,1.413,0,0,0,.861.246c.554,0,.923-.246.923-.615s-.246-.554-.677-.615H8.891c-.185,0-.308-.062-.308-.185s.123-.246.369-.246a1.457,1.457,0,0,1,.615.185Zm11.505-.185a.487.487,0,0,0-.492.308v-.246h-.431v1.969h.431V27.1c0-.308.123-.492.431-.492a.37.37,0,0,1,.246.062l.123-.431A.669.669,0,0,0,21.134,26.177ZM15.6,27.223a1,1,0,0,0,1.046,1.046.84.84,0,0,0,.677-.246l-.123-.369a.818.818,0,0,1-.492.185.615.615,0,1,1,0-1.23.7.7,0,0,1,.492.185l.185-.369a.925.925,0,0,0-.677-.246A1.018,1.018,0,0,0,15.6,27.223Zm4,0v-.984h-.431v.246a.757.757,0,0,0-.615-.308,1.048,1.048,0,0,0,0,2.092.679.679,0,0,0,.615-.308v.246H19.6Zm-1.538,0a.615.615,0,1,1,.615.615A.581.581,0,0,1,18.058,27.223ZM12.89,26.177a1.048,1.048,0,0,0,0,2.092,1.237,1.237,0,0,0,.8-.246l-.185-.369a.992.992,0,0,1-.554.185.586.586,0,0,1-.615-.492h1.477v-.185A.922.922,0,0,0,12.89,26.177Zm0,.369c.246,0,.431.185.492.492H12.336A.539.539,0,0,1,12.89,26.546Zm10.705.677V25.5h-.431v1.046a.757.757,0,0,0-.615-.308,1.048,1.048,0,0,0,0,2.092.679.679,0,0,0,.615-.308v.246h.431Zm-1.6,0a.615.615,0,1,1,.615.615A.617.617,0,0,1,22,27.223Zm-14.458,0v-.984H7.107v.246a.757.757,0,0,0-.615-.308,1.048,1.048,0,0,0,0,2.092.679.679,0,0,0,.615-.308v.246h.431Zm-1.6,0a.581.581,0,0,1,.615-.615.615.615,0,0,1,0,1.23A.617.617,0,0,1,5.938,27.223Z" transform="translate(-0.77 -9.811)"/>
        <rect id="Rectangle" width="6.46" height="11.505" transform="translate(8.736 1.538)" fill="#ff5f00"/>
        <path id="Path-6" data-name="Path" d="M9.167,7.321A7.349,7.349,0,0,1,12,1.538,7.982,7.982,0,0,0,7.383,0a7.322,7.322,0,1,0,0,14.643A7.649,7.649,0,0,0,11.936,13.1,7.483,7.483,0,0,1,9.167,7.321Z" fill="#eb001b" fill-rule="evenodd"/>
        <path id="Path_1_" d="M31.536,7.321a7.352,7.352,0,0,1-7.383,7.321A7.649,7.649,0,0,1,19.6,13.1a7.324,7.324,0,0,0,0-11.567A7.327,7.327,0,0,1,24.091,0,7.405,7.405,0,0,1,31.536,7.321Z" transform="translate(-7.541)" fill="#f79e1b" fill-rule="evenodd"/>
      </g>
      <g id="Group-3" data-name="Group" transform="translate(0 0.469)">
        <path id="Combined-Shape" d="M51,2.432a.76.76,0,0,1,1.015.314h0L53.63,5.8l1.614-3.05a.76.76,0,0,1,1.015-.314.73.73,0,0,1,.32.995h0L53.147,9.916a.762.762,0,0,1-1.016.313.73.73,0,0,1-.32-.995h0l.97-1.837-2.1-3.97A.73.73,0,0,1,51,2.432Zm18.059-.181a3.059,3.059,0,0,1,2.154.874.726.726,0,0,1,0,1.043.764.764,0,0,1-1.064,0,1.564,1.564,0,0,0-2.18,0,1.489,1.489,0,0,0,0,2.136,1.564,1.564,0,0,0,2.18,0,.763.763,0,0,1,1.064,0,.726.726,0,0,1,0,1.043,3.092,3.092,0,0,1-4.309,0,2.943,2.943,0,0,1,0-4.222A3.059,3.059,0,0,1,69.059,2.251Zm6.086,0a3.02,3.02,0,0,1,3.047,2.985,3.047,3.047,0,0,1-6.094,0A3.02,3.02,0,0,1,75.145,2.251Zm-26.2.1a.745.745,0,0,1,.753.737h0V7.4a.753.753,0,0,1-1.505,0h0V3.086A.745.745,0,0,1,48.95,2.349Zm12.7,0a.76.76,0,0,1,.509.172.728.728,0,0,1,.093,1.039h0l-2.656,3.1h2.08a.738.738,0,1,1,0,1.475H57.977a.759.759,0,0,1-.484-.172A.727.727,0,0,1,57.4,6.925h0l2.657-3.1H58.32a.737.737,0,1,1,0-1.475h3.326Zm2.628,0a.745.745,0,0,1,.753.737h0V7.4a.753.753,0,0,1-1.505,0h0V3.086A.745.745,0,0,1,64.273,2.349ZM75.145,3.726a1.511,1.511,0,1,0,1.541,1.51A1.528,1.528,0,0,0,75.145,3.726ZM48.95,0a.824.824,0,0,1,.832.815.832.832,0,0,1-1.663,0A.823.823,0,0,1,48.95,0ZM64.273,0A.824.824,0,0,1,65.1.815a.832.832,0,0,1-1.663,0A.824.824,0,0,1,64.273,0Z" transform="translate(-18.514 0)" fill="#1e64ff" fill-rule="evenodd"/>
        <path id="Combined-Shape-2" data-name="Combined-Shape" d="M59.556,19.619a2.616,2.616,0,1,1-2.532,2.615A2.589,2.589,0,0,1,59.556,19.619Zm6.36-.051a.4.4,0,0,1,.393.388v4.5a.4.4,0,0,1-.393.388.389.389,0,0,1-.386-.388v-.4a1.175,1.175,0,0,1-1.193.791,1.824,1.824,0,0,1-1.775-1.955,1.835,1.835,0,0,1,1.775-1.949,1.277,1.277,0,0,1,1.193.7v-.293a.249.249,0,0,1,.007-.073V19.956A.388.388,0,0,1,65.915,19.567Zm-17.484,1.4a.307.307,0,0,1,.3.308v3.252a.3.3,0,1,1-.6,0V21.274A.309.309,0,0,1,48.431,20.967Zm1.411-1.4a.306.306,0,0,1,.3.3v4.658a.3.3,0,1,1-.6,0V19.868A.307.307,0,0,1,49.842,19.568Zm2.816,1.377a1.839,1.839,0,0,1,1.826,1.846c0,.234-.138.344-.385.344l-2.677-.015a1.264,1.264,0,0,0,1.317,1.208,1.329,1.329,0,0,0,.844-.279.463.463,0,0,1,.255-.11.214.214,0,0,1,.226.227.363.363,0,0,1-.16.271,1.791,1.791,0,0,1-1.179.4A1.855,1.855,0,0,1,50.8,22.9,1.881,1.881,0,0,1,52.658,20.945Zm16.189,0a1.834,1.834,0,0,1,1.826,1.824c0,.3-.167.418-.48.418l-2.437-.008A1.129,1.129,0,0,0,68.949,24.2a1.271,1.271,0,0,0,.728-.212.668.668,0,0,1,.305-.117.259.259,0,0,1,.269.278.416.416,0,0,1-.2.329,1.782,1.782,0,0,1-1.135.359A1.865,1.865,0,0,1,66.963,22.9,1.9,1.9,0,0,1,68.848,20.945Zm-4.388.666a1.3,1.3,0,0,0,0,2.571,1.158,1.158,0,0,0,1.106-1.289A1.147,1.147,0,0,0,64.46,21.611Zm-4.9-1.245a1.871,1.871,0,1,0,1.71,1.868A1.779,1.779,0,0,0,59.556,20.366Zm-6.9,1.114a1.229,1.229,0,0,0-1.237,1.186h2.473A1.225,1.225,0,0,0,52.658,21.48Zm16.189.139a1.068,1.068,0,0,0-1.091,1h2.168A1.051,1.051,0,0,0,68.848,21.618ZM48.431,19.494a.308.308,0,1,1-.313.308A.313.313,0,0,1,48.431,19.494Zm12.02-1.209a.418.418,0,1,1-.422.418A.422.422,0,0,1,60.451,18.286Zm-1.789,0a.418.418,0,1,1-.422.418A.422.422,0,0,1,58.661,18.286Z" transform="translate(-18.514 -7.036)" fill="#495057" fill-rule="evenodd"/>
        <g id="Group-3-2" data-name="Group-3" transform="translate(0 0)">
          <path id="Fill-1-2" data-name="Fill-1" d="M2.326,0A2.335,2.335,0,0,0,0,2.344V16.406A2.335,2.335,0,0,0,2.326,18.75H19.887a2.323,2.323,0,0,0,2.063-1.261l3.633-7.031A2.36,2.36,0,0,0,25.845,9.4v-.04a2.359,2.359,0,0,0-.263-1.062L21.95,1.261A2.324,2.324,0,0,0,19.887,0Z" fill-rule="evenodd" fill="url(#linear-gradient-2)"/>
        </g>
      </g>
    </g>
  </g>
</svg>
