<svg xmlns="http://www.w3.org/2000/svg" width="17.057" height="19.97" viewBox="0 0 17.057 19.97">
  <path id="Union_9" data-name="Union 9" d="M-2601.585-100.421a20.589,20.589,0,0,1-5.225-4.9,10.61,10.61,0,0,1-2.19-6.119c0-.01,0-.02,0-.029v-.026a8.479,8.479,0,0,1,2.509-6.016,8.471,8.471,0,0,1,6.019-2.487h.029a8.538,8.538,0,0,1,8.5,8.557v.1c-.063,3.329-2.053,6.115-3.712,7.864l0,.005a21.079,21.079,0,0,1-3.7,3.053,1.781,1.781,0,0,1-1.112.391A1.78,1.78,0,0,1-2601.585-100.421Zm-5.715-11.074v.008a8.925,8.925,0,0,0,1.842,5.133l.005.007a18.918,18.918,0,0,0,4.836,4.528.761.761,0,0,1,.092.069.08.08,0,0,0,.105,0,.933.933,0,0,1,.1-.071,19.339,19.339,0,0,0,3.437-2.829c1.45-1.531,3.188-3.937,3.243-6.718v-.078a6.836,6.836,0,0,0-6.8-6.854h-.023A6.84,6.84,0,0,0-2607.3-111.495Zm3.517.145a3.315,3.315,0,0,1,3.311-3.311,3.314,3.314,0,0,1,3.31,3.311,3.315,3.315,0,0,1-3.31,3.311A3.315,3.315,0,0,1-2603.783-111.35Zm1.7,0a1.613,1.613,0,0,0,1.611,1.611,1.613,1.613,0,0,0,1.611-1.611,1.613,1.613,0,0,0-1.611-1.611A1.613,1.613,0,0,0-2602.083-111.35Z" transform="translate(2609 120)" fill="#cf1406"/>
</svg>
