<svg xmlns="http://www.w3.org/2000/svg" width="15" height="15" viewBox="0 0 21.648 25.969">
    <path id="location" d="M12.691-.1h.065A10.838,10.838,0,0,1,20.367,3a10.522,10.522,0,0,1,3.181,7.509,11.28,11.28,0,0,1-3.155,7.883l-6.876,7.142a1.1,1.1,0,0,1-1.585,0l-6.875-7.14A11.283,11.283,0,0,1,1.9,10.5,10.523,10.523,0,0,1,5.084,3,10.835,10.835,0,0,1,12.691-.1Zm.033,2.2h-.033A8.649,8.649,0,0,0,6.617,4.573,8.315,8.315,0,0,0,4.1,10.508a9.094,9.094,0,0,0,2.543,6.359l6.081,6.316,6.082-6.317a9.091,9.091,0,0,0,2.542-6.354,8.315,8.315,0,0,0-2.515-5.936A8.652,8.652,0,0,0,12.756,2.1h-.033Zm-.005,4.283h.007a4.341,4.341,0,0,1,0,8.683h-.006a4.341,4.341,0,0,1,0-8.683Zm.01,6.483a2.123,2.123,0,0,0,1.511-.626,2.143,2.143,0,0,0-1.516-3.656h-.005a2.136,2.136,0,0,0-2.136,2.139,2.145,2.145,0,0,0,2.141,2.144Z" transform="translate(-1.9 0.1)"/>
</svg>