<svg id="mobil_pay" xmlns="http://www.w3.org/2000/svg" xmlns:xlink="http://www.w3.org/1999/xlink" width="175.36" height="12.769" viewBox="0 0 175.36 12.769">
  <defs>
    <radialGradient id="radial-gradient" cx="0.176" cy="0.175" r="1.344" gradientTransform="translate(0.054) scale(0.694 1)" gradientUnits="objectBoundingBox">
      <stop offset="0" stop-color="#9dd5f6"/>
      <stop offset="0.071" stop-color="#98d3f5"/>
      <stop offset="0.157" stop-color="#89cef3"/>
      <stop offset="0.252" stop-color="#70c6ef"/>
      <stop offset="0.351" stop-color="#4ebbea"/>
      <stop offset="0.455" stop-color="#23ade3"/>
      <stop offset="0.5" stop-color="#0da6e0"/>
      <stop offset="1" stop-color="#2e77bc"/>
    </radialGradient>
    <linearGradient id="linear-gradient" y1="0.5" x2="1" y2="0.5" gradientUnits="objectBoundingBox">
      <stop offset="0" stop-color="#1d1c45"/>
      <stop offset="1" stop-color="#174489"/>
    </linearGradient>
    <linearGradient id="linear-gradient-2" x1="0.903" y1="0.5" x2="0" y2="0.5" gradientUnits="objectBoundingBox">
      <stop offset="0" stop-color="#1e64ff"/>
      <stop offset="1" stop-color="#1e64ff" stop-opacity="0"/>
    </linearGradient>
  </defs>
  <g id="PWI_Method_02_FooterAlternatives">
    <g id="logo-band-iyzicoileode">
      <g id="Troy-Logo" transform="translate(151.243 1.226)">
        <g id="Group_1_" transform="translate(0.628 9.33)">
          <path id="Path_6_" d="M.386.582H.223A.04.04,0,0,0,.182.623V.664H.1V.582A.088.088,0,0,1,.182.5H.713C.754.5.795.5.754.582V.664H.672V.582h-.2L.3,1.318H.223Z" transform="translate(-0.1 -0.336)" fill="#323e48" fill-rule="evenodd"/>
          <path id="Shape_5_" d="M1.66.827h0L1.579.786V.7H1.66C1.7.7,1.742.7,1.7.786l-.041.286c0,.082,0,.164.082.164A.264.264,0,0,0,1.987.991L2.028.7h.123l-.123.491v.041h.041v.082H2.028c-.041,0-.082-.041-.041-.082V1.154h0a.276.276,0,0,1-.245.164c-.164,0-.2-.082-.164-.2ZM1.824.5h.082L1.865.623H1.824Zm.164,0h.082V.623H1.987Z" transform="translate(-0.966 -0.336)" fill="#323e48"/>
          <path id="Path_7_" d="M3.282,1.123h0l-.041-.041V1h.082c.041,0,.082,0,.041.082v.082h0A.272.272,0,0,1,3.568,1h.041v.082H3.568a.272.272,0,0,0-.2.164c0,.041-.041.082-.041.123l-.041.245H3.2Z" transform="translate(-1.933 -0.632)" fill="#323e48" fill-rule="evenodd"/>
          <path id="Path_8_" d="M4.264.623h0L4.182.582V.5h.082C4.3.5,4.345.5,4.3.582L4.264.95H4.3c.041,0,.041,0,.082-.041l.2-.2h.082l-.2.245L4.427.991h0l.041.041.041.2a.04.04,0,0,0,.041.041h.041v.082H4.509c-.041,0-.082,0-.082-.041l-.082-.286A.04.04,0,0,0,4.3.991H4.264l-.082.327H4.1Z" transform="translate(-2.465 -0.336)" fill="#323e48" fill-rule="evenodd"/>
          <path id="Shape_6_" d="M5.782.827A.04.04,0,0,0,5.741.786H5.619L5.66.7h.2c.123,0,.164,0,.123.082l-.245.409a.04.04,0,0,0,.041.041H5.9l-.041.082H5.7c-.123,0-.164-.041-.123-.082ZM5.946.5h.164L6.068.623H5.9Z" transform="translate(-3.33 -0.336)" fill="#323e48"/>
          <path id="Path_9_" d="M6.023,1.777c.041,0,.082-.041.123-.082l.041-.082L6.1,1.123a.04.04,0,0,0-.041-.041h0V1H6.1c.041,0,.082,0,.082.041l.082.368v.082h0a.127.127,0,0,1,.041-.082l.2-.368C6.554,1,6.554,1,6.595,1h.041v.082h0a.04.04,0,0,0-.041.041l-.409.613a.312.312,0,0,1-.2.082c-.082,0-.082-.041-.082-.041l.041-.041s0,.041.082.041" transform="translate(-3.529 -0.632)" fill="#323e48" fill-rule="evenodd"/>
          <path id="Shape_7_" d="M8.016,1a.207.207,0,0,1,.2.286v.041H7.77c-.041.123.041.2.164.2a.313.313,0,0,0,.2-.082l.041.041a.358.358,0,0,1-.245.082.23.23,0,0,1-.245-.286A.347.347,0,0,1,8.016,1Zm.123.245c.041-.123-.041-.164-.123-.164a.336.336,0,0,0-.245.164Z" transform="translate(-4.582 -0.632)" fill="#323e48"/>
          <path id="Path_10_" d="M9.382.5h.082L9.382.7H9.3Z" transform="translate(-5.539 -0.336)" fill="#323e48" fill-rule="evenodd"/>
          <path id="Path_11_" d="M9.782,1.123h0l-.041-.041V1h.082c.041,0,.082,0,.041.082v.082h0C9.9,1.123,9.986,1,10.109,1c.164,0,.164.082.164.2l-.041.286v.041h.041v.082h-.082c-.041,0-.082-.041-.041-.082l.041-.286c0-.082.041-.164-.082-.164a.336.336,0,0,0-.245.164c0,.041,0,.041-.041.082l-.041.286H9.7Z" transform="translate(-5.776 -0.632)" fill="#323e48" fill-rule="evenodd"/>
          <path id="Shape_8_" d="M11.582.827a.04.04,0,0,0-.041-.041h-.123L11.46.7h.2c.123,0,.164,0,.123.082l-.2.409a.04.04,0,0,0,.041.041h.123l-.041.082h-.2c-.123,0-.164-.041-.123-.082ZM11.746.5h.164l-.041.082H11.7Z" transform="translate(-6.759 -0.336)" fill="#323e48"/>
          <path id="Path_12_" d="M12.123,1.123h0l-.082-.041V1h.082c.041,0,.082,0,.041.082v.082h0A.484.484,0,0,1,12.45,1c.123,0,.164.082.123.2l-.041.286v.041h.041v.082h-.082c-.041,0-.082-.041-.041-.082l.041-.286c0-.082.041-.164-.082-.164a.336.336,0,0,0-.245.164c0,.041,0,.041-.041.082l-.082.286H12Z" transform="translate(-7.136 -0.632)" fill="#323e48" fill-rule="evenodd"/>
          <path id="Shape_9_" d="M15.079.264a.313.313,0,0,1,.327.409.518.518,0,0,1-.491.409.313.313,0,0,1-.327-.409A.486.486,0,0,1,15.079.264Zm-.2.736a.485.485,0,0,0,.409-.327.248.248,0,0,0-.245-.327.485.485,0,0,0-.409.327A.248.248,0,0,0,14.875,1ZM15,.1h.082l-.041.082h-.082Zm.164,0h.082L15.2.182H15.12Z" transform="translate(-8.662 -0.1)" fill="#323e48"/>
          <path id="Shape_10_" d="M17.065.645a.182.182,0,0,1,.164.123h0V.727l.041-.2V.482h-.041V.4h.082c.041,0,.082,0,.041.082l-.123.613v.041h.041v.082h-.082c-.041,0-.082-.041-.041-.082V1.095h0a.282.282,0,0,1-.2.123c-.164,0-.2-.123-.164-.286a.279.279,0,0,1,.286-.286m.123.327c.041-.123,0-.245-.123-.245a.3.3,0,0,0-.245.245c-.041.123.041.245.123.245a.364.364,0,0,0,.245-.245" transform="translate(-9.952 -0.277)" fill="#323e48"/>
          <path id="Shape_11_" d="M18.716,1c.164,0,.2.123.2.245v.041h-.45a.18.18,0,0,0,.164.245.313.313,0,0,0,.2-.082l.041.041a.518.518,0,0,1-.245.082.23.23,0,0,1-.245-.286A.316.316,0,0,1,18.716,1Zm.082.245c.041-.123-.041-.164-.123-.164a.254.254,0,0,0-.245.164Z" transform="translate(-10.908 -0.632)" fill="#323e48"/>
          <path id="Path_13_" d="M19.882,1.123c.041,0,0-.041,0,0L19.8,1.082V1h.082c.041,0,.082,0,.041.082v.082h0A.519.519,0,0,1,20.209,1c.123,0,.164.041.164.123h0A.349.349,0,0,1,20.618,1c.123,0,.164.082.123.2l-.041.286v.041h.041v.082h-.082c-.041,0-.082-.041-.041-.082l.082-.286c.041-.082,0-.164-.082-.164a.272.272,0,0,0-.2.164c0,.041-.041.041-.041.082l-.041.286H20.25l.082-.327c0-.082.041-.164-.082-.164a.272.272,0,0,0-.2.164c0,.041-.041.041-.041.082l-.123.245H19.8Z" transform="translate(-11.747 -0.632)" fill="#323e48" fill-rule="evenodd"/>
          <path id="Shape_12_" d="M22.816,1c.164,0,.2.123.2.245v.041h-.45a.18.18,0,0,0,.164.245.313.313,0,0,0,.2-.082l.041.041a.518.518,0,0,1-.245.082.23.23,0,0,1-.245-.286A.316.316,0,0,1,22.816,1Zm.082.245c.041-.123-.041-.164-.123-.164a.254.254,0,0,0-.245.164Z" transform="translate(-13.332 -0.632)" fill="#323e48"/>
          <path id="Path_14_" d="M24.964.891,24.841.523A.04.04,0,0,0,24.8.482h0V.4h.041c.041,0,.082,0,.082.082l.082.2a.143.143,0,0,0,.041.082h0l.082-.082.164-.164c.041-.041.082-.082.123-.082h.041V.523h0c-.041,0-.041,0-.041.041l-.286.368-.082.327h-.164Z" transform="translate(-14.704 -0.277)" fill="#323e48" fill-rule="evenodd"/>
          <path id="Shape_13_" d="M26.356.7A.23.23,0,0,1,26.6.991a.393.393,0,0,1-.368.286.23.23,0,0,1-.245-.286A.453.453,0,0,1,26.356.7Zm-.123.531A.3.3,0,0,0,26.52.991c.041-.123-.041-.2-.164-.2a.307.307,0,0,0-.286.2C26.029,1.154,26.111,1.236,26.234,1.236ZM26.275.5h.082l-.041.082h-.082Zm.164,0h.082V.582h-.082Z" transform="translate(-15.402 -0.336)" fill="#323e48"/>
          <path id="Path_15_" d="M27.782,1.123h0L27.7,1.082V1h.123c.041,0,.082,0,.041.082v.082h0c.041-.041.123-.164.245-.164s.164.082.123.2l-.041.286a.04.04,0,0,0,.041.041h.041v.082h-.082c-.041,0-.082-.041-.041-.082l.041-.286c0-.082.041-.164-.082-.164a.336.336,0,0,0-.245.164c-.041.041-.041.041-.041.082l-.041.286H27.7Z" transform="translate(-16.418 -0.632)" fill="#323e48" fill-rule="evenodd"/>
          <path id="Path_16_" d="M29.47.845h-.082V.764h.082L29.511.6h.082l-.041.164h.164V.845h-.164l-.082.286c-.041.123.041.164.082.164h.041v.082h-.041c-.082,0-.2-.041-.164-.2Z" transform="translate(-17.411 -0.396)" fill="#323e48" fill-rule="evenodd"/>
          <path id="Shape_14_" d="M30.616,1c.164,0,.2.123.2.245v.041h-.45a.18.18,0,0,0,.164.245.313.313,0,0,0,.2-.082l.041.041a.358.358,0,0,1-.245.082.23.23,0,0,1-.245-.286A.316.316,0,0,1,30.616,1Zm.123.245c.041-.123-.041-.164-.123-.164a.254.254,0,0,0-.245.164Z" transform="translate(-17.944 -0.632)" fill="#323e48"/>
          <path id="Path_17_" d="M31.882,1.123h0L31.8,1.082V1h.082c.041,0,.082,0,.041.082v.082h0C32,1.082,32.086,1,32.168,1c.123,0,.164.041.164.123h0A.466.466,0,0,1,32.577,1q.184,0,.123.245l-.041.286v.041H32.7v.082h-.082c-.041,0-.082-.041-.041-.082l.041-.286c.041-.082,0-.164-.082-.164a.272.272,0,0,0-.2.164c0,.041-.041.041-.041.082l-.041.286h-.082l.082-.327c0-.082.041-.164-.082-.164a.272.272,0,0,0-.2.164c0,.041,0,.041-.041.082l-.041.286H31.8Z" transform="translate(-18.842 -0.632)" fill="#323e48" fill-rule="evenodd"/>
          <path id="Shape_15_" d="M34.582.827a.04.04,0,0,0-.041-.041h-.123L34.46.7h.2c.123,0,.164,0,.123.082l-.2.409a.04.04,0,0,0,.041.041h.123l-.041.082h-.2c-.123,0-.164-.041-.123-.082ZM34.746.5h.164l-.041.082H34.7Z" transform="translate(-20.357 -0.336)" fill="#323e48"/>
        </g>
        <g id="Group_2_">
          <g id="Path_18_">
            <path id="Path" d="M44.067,4.4a1,1,0,0,0-.858.531L41.656,8.488l-.572-3.556a.626.626,0,0,0-.654-.531h-2l1.717,5.927a.567.567,0,0,1,0,.368,1.087,1.087,0,0,1-1.022.9h-1.1c-.286,0-.45.164-.572.572L37.2,13.638h1.962a3.453,3.453,0,0,0,3.025-1.921L46.111,4.4Z" transform="translate(-21.994 -2.601)" fill="#323e48" fill-rule="evenodd"/>
            <path id="Path-2" data-name="Path" d="M2.78,0c.572,0,.858.245.777.818l-.164.94H4.742L4.456,3.434H3.066L2.7,5.518c-.123.736.572.818,1.022.818h.2L3.6,8.175c-.082,0-.2.041-.409.041C2.166,8.216.245,7.93.613,5.8l.409-2.371H0L.286,1.758h.981L1.594,0Z" fill="#323e48" fill-rule="evenodd"/>
            <g id="Group" transform="translate(9.888 1.715)">
              <path id="Path-3" data-name="Path" d="M8.8.3,8.436,2.262a1.331,1.331,0,0,1,.736,1.145A1.322,1.322,0,0,1,8.027,4.715L7.7,6.677h.2a3.28,3.28,0,0,0,3.27-3.27A3.378,3.378,0,0,0,8.8.3Z" transform="translate(-4.553 -0.177)" fill="#00adbb" fill-rule="evenodd"/>
              <path id="Path-4" data-name="Path" d="M2.7,4.415A1.331,1.331,0,0,1,1.962,3.27,1.322,1.322,0,0,1,3.107,1.962L3.475,0h-.2a3.256,3.256,0,0,0-.94,6.377Z" fill="#00adbb" fill-rule="evenodd"/>
            </g>
            <path id="Path-5" data-name="Path" d="M11.845,4.282h1.145c.572,0,.858.245.777.818l-.123.695A2.823,2.823,0,0,1,15.973,4.2a.891.891,0,0,1,.245.041L15.85,6.366a2.2,2.2,0,0,0-2.33,1.063,2.642,2.642,0,0,0-.245.858l-.409,2.371H10.7Z" transform="translate(-6.326 -2.483)" fill="#323e48" fill-rule="evenodd"/>
          </g>
          <path id="Shape_16_" d="M56.99,19.695a.7.7,0,1,1-.2-.491A.677.677,0,0,1,56.99,19.695Zm-.123,0a.559.559,0,1,0-.164.409A.525.525,0,0,0,56.867,19.695Zm-.286.368h-.123l-.164-.327h-.123v.327H56.05v-.736h.245a.289.289,0,0,1,.245.245c0,.123-.041.164-.164.2Zm-.123-.531c0-.041,0-.082-.041-.082s-.082-.041-.123-.041h-.123v.245h.123a.15.15,0,0,0,.123-.041A.143.143,0,0,0,56.458,19.531Z" transform="translate(-32.873 -11.233)" fill="#323e48"/>
        </g>
      </g>
      <g id="American_Express" transform="translate(120.177)">
        <path id="Path_5_" d="M17.659,0H0V12.263H17.659V8.216" fill-rule="evenodd" fill="url(#radial-gradient)"/>
        <g id="Group-2" data-name="Group" transform="translate(0.041 2.739)">
          <path id="Shape_3_" d="M1.653,1.694,1.326.877,1,1.694Zm7.4-.327a.518.518,0,0,1-.245.041H8.234V.958h.613A.518.518,0,0,1,9.093,1c.082.041.123.082.123.164A.408.408,0,0,1,9.052,1.367Zm4.251.327L12.976.877l-.327.818Zm-7.93.9H4.883V.958L4.188,2.593h-.45L3.043.958V2.593H2.021l-.164-.45H.836l-.2.45H.1L.958.509h.736l.818,1.962V.509h.818L3.983,1.9,4.556.509h.818Zm2,0H5.741V.509H7.376v.45H6.231v.368h1.1v.409h-1.1v.409H7.376Zm2.33-1.512a.538.538,0,0,1-.327.531.629.629,0,0,1,.245.164.55.55,0,0,1,.082.368v.409H9.215V2.307A.737.737,0,0,0,9.134,1.9c-.082-.082-.164-.082-.368-.082H8.234v.736H7.744V.509H8.888A1.4,1.4,0,0,1,9.5.591.612.612,0,0,1,9.706,1.081Zm.777,1.512H9.992V.509h.491Zm5.8,0h-.695l-.94-1.553V2.593h-.981l-.2-.45H12.445l-.2.45h-.572a.864.864,0,0,1-.695-.245,1.041,1.041,0,0,1-.245-.777,1.148,1.148,0,0,1,.245-.818,1,1,0,0,1,.736-.245H12.2v.45h-.45a.5.5,0,0,0-.368.123.658.658,0,0,0-.123.45.872.872,0,0,0,.123.491.464.464,0,0,0,.327.123h.2L12.608.509h.736l.818,1.962V.509H14.9l.858,1.431V.509h.491l.041,2.085ZM.1,3H.918l.2-.45h.409l.2.45H3.37V2.634L3.534,3h.858l.164-.368V3H8.643V2.266h.082c.041,0,.082,0,.082.082V3h2.126V2.839A1.835,1.835,0,0,0,11.709,3h.9l.2-.45h.409l.2.45h1.717v-.45l.245.45h1.39V.1H15.429V.468L15.183.1h-1.39V.468L13.63.141H11.75A1.621,1.621,0,0,0,10.932.3V.1H9.624V.264A.938.938,0,0,0,9.052.1H4.269L3.983.836,3.656.1H2.144V.468L1.98.1H.713L.1,1.49Z" transform="translate(-0.1 -0.1)" fill="#fff"/>
          <path id="Shape_4_" d="M22.58,9.658h-.9a.306.306,0,0,0-.2.041.212.212,0,0,0-.082.164c0,.082.041.123.123.164a1.77,1.77,0,0,0,.2.041h.245a.74.74,0,0,1,.572.164l.041.041Zm0,1.39a.8.8,0,0,1-.654.245h-.94v-.45h.94a.306.306,0,0,0,.2-.041.15.15,0,0,0,.041-.123.412.412,0,0,0-.041-.123c-.041-.041-.082-.041-.164-.041-.45,0-1.022,0-1.022-.654a.625.625,0,0,1,.695-.613h.981V8.841h-.9A1.1,1.1,0,0,0,21.108,9V8.8H19.759a.865.865,0,0,0-.572.164V8.8H16.775v.164a1.525,1.525,0,0,0-.654-.164H14.486v.164a1.04,1.04,0,0,0-.695-.164H12.034l-.409.45-.368-.45H8.6v2.9h2.575l.409-.45.409.45h1.594v-.695h.164a2.144,2.144,0,0,0,.695-.082V11.7h1.308v-.736h.082c.082,0,.082,0,.082.082V11.7h4.006a1.04,1.04,0,0,0,.654-.2v.2h1.267a2.138,2.138,0,0,0,.736-.123v-.531Zm-1.962-.858a.654.654,0,0,1,.164.45c0,.45-.286.654-.777.654h-.94v-.45H20a.306.306,0,0,0,.2-.041.15.15,0,0,0,.041-.123.412.412,0,0,0-.041-.123c-.041-.041-.082-.041-.164-.041-.45,0-1.022,0-1.022-.654a.625.625,0,0,1,.695-.613H20.7V9.7h-.9a.306.306,0,0,0-.2.041.212.212,0,0,0-.082.164c0,.082.041.123.123.164a1.771,1.771,0,0,0,.2.041h.245A.56.56,0,0,1,20.618,10.19ZM16.2,10.067a.518.518,0,0,1-.245.041h-.613v-.45h.613A.518.518,0,0,1,16.2,9.7c.082.041.082.082.082.2A.212.212,0,0,1,16.2,10.067Zm.286.245a.629.629,0,0,1,.245.164c.082.082.082.2.082.368v.409h-.491v-.245c0-.123,0-.327-.082-.409s-.164-.082-.368-.082h-.531v.736h-.491V9.209H16a1.212,1.212,0,0,1,.572.082.433.433,0,0,1,.245.45A.561.561,0,0,1,16.489,10.312Zm.613-1.1h1.635v.409H17.593v.368h1.1v.409h-1.1V10.8h1.145v.45H17.1Zm-3.311.981h-.613V9.658h.654c.164,0,.286.082.286.245A.292.292,0,0,1,13.791,10.19Zm-1.1.9-.736-.858.736-.818Zm-1.962-.245H9.54v-.409H10.6v-.409H9.54V9.658h1.226l.531.613Zm3.883-.94c0,.572-.409.695-.858.695h-.613v.695H12.2l-.572-.695-.613.695H9.05V9.209h1.962l.613.695.613-.695h1.553C14.2,9.209,14.609,9.331,14.609,9.9Z" transform="translate(-5.125 -5.244)" fill="#fff"/>
        </g>
      </g>
      <g id="visa" transform="translate(81.753 1.635)">
        <path id="Fill-1" d="M12.549.164,10.873,8.053H8.829L10.505.164Zm8.625,5.069,1.063-2.984.613,2.984Zm2.289,2.82h1.88L23.708.164H21.951a.9.9,0,0,0-.858.572L17.986,8.053h2.166l.409-1.185h2.616ZM18.108,5.477c0-2.085-2.9-2.207-2.861-3.147,0-.286.286-.572.858-.654a3.557,3.557,0,0,1,2,.368L18.476.368A4.857,4.857,0,0,0,16.555,0c-2.044,0-3.434,1.063-3.475,2.616,0,1.145,1.022,1.758,1.8,2.166.818.368,1.063.654,1.063.981,0,.531-.654.777-1.226.777a4.551,4.551,0,0,1-2.085-.491l-.368,1.717a6.375,6.375,0,0,0,2.289.409C16.678,8.175,18.108,7.113,18.108,5.477ZM9.606.164,6.295,8.053H4.129L2.493,1.758A.836.836,0,0,0,2,1.063,6.785,6.785,0,0,0,0,.409L.041.164H3.515a.925.925,0,0,1,.94.818l.858,4.578L7.44.164Z" fill-rule="evenodd" fill="url(#linear-gradient)"/>
      </g>
      <g id="mastercard-seeklogo.com" transform="translate(52.731)">
        <path id="Shape" d="M4.085,27.3v-.818a.494.494,0,0,0-.531-.531.474.474,0,0,0-.45.245.47.47,0,0,0-.45-.245.391.391,0,0,0-.368.2v-.164H2V27.3h.286v-.736c0-.245.123-.327.327-.327s.286.123.286.327V27.3h.286v-.736c0-.245.123-.327.327-.327s.286.123.286.327V27.3Zm4.251-1.308h-.45v-.409H7.6v.409H7.314v.245h.245v.613c0,.286.123.491.45.491a1.194,1.194,0,0,0,.368-.082l-.082-.245a.581.581,0,0,1-.245.082.193.193,0,0,1-.2-.2v-.572h.45v-.327Zm2.412-.041a.324.324,0,0,0-.327.2v-.164h-.286V27.3h.286v-.736c0-.2.082-.327.286-.327a.246.246,0,0,1,.164.041l.082-.286A.306.306,0,0,0,10.748,25.95Zm-3.679.123a1.023,1.023,0,0,0-.531-.123c-.327,0-.531.164-.531.409,0,.2.164.327.45.368h.123q.245.061.245.123c0,.082-.123.164-.286.164a1.185,1.185,0,0,1-.45-.123l-.123.2a.938.938,0,0,0,.572.164c.368,0,.613-.164.613-.409s-.164-.368-.45-.409H6.578c-.123,0-.2-.041-.2-.123s.082-.164.245-.164a.968.968,0,0,1,.409.123Zm7.644-.123a.324.324,0,0,0-.327.2v-.164H14.1V27.3h.286v-.736c0-.2.082-.327.286-.327a.246.246,0,0,1,.164.041l.082-.286A.444.444,0,0,0,14.713,25.95Zm-3.679.695a.665.665,0,0,0,.695.695.558.558,0,0,0,.45-.164l-.082-.245a.544.544,0,0,1-.327.123.409.409,0,1,1,0-.818.464.464,0,0,1,.327.123l.123-.245a.615.615,0,0,0-.45-.164A.677.677,0,0,0,11.034,26.645Zm2.657,0v-.654H13.4v.164a.5.5,0,0,0-.409-.2.7.7,0,0,0,0,1.39.451.451,0,0,0,.409-.2V27.3h.286Zm-1.022,0a.409.409,0,1,1,.409.409A.386.386,0,0,1,12.669,26.645ZM9.235,25.95a.7.7,0,0,0,0,1.39.822.822,0,0,0,.531-.164l-.123-.245a.659.659,0,0,1-.368.123.389.389,0,0,1-.409-.327h.981V26.6A.613.613,0,0,0,9.235,25.95Zm0,.245c.164,0,.286.123.327.327H8.867A.358.358,0,0,1,9.235,26.195Zm7.113.45V25.5h-.286v.695a.5.5,0,0,0-.409-.2.7.7,0,0,0,0,1.39.451.451,0,0,0,.409-.2v.164h.286Zm-1.063,0a.409.409,0,1,1,.409.409A.41.41,0,0,1,15.285,26.645Zm-9.606,0v-.654H5.393v.164a.5.5,0,0,0-.409-.2.7.7,0,0,0,0,1.39.451.451,0,0,0,.409-.2V27.3h.286Zm-1.063,0a.409.409,0,1,1,.409.409A.41.41,0,0,1,4.616,26.645Z" transform="translate(-1.182 -15.076)"/>
        <rect id="Rectangle" width="4.292" height="7.644" transform="translate(5.804 1.022)" fill="#ff5f00"/>
        <path id="Path-6" data-name="Path" d="M6.091,4.864a4.883,4.883,0,0,1,1.88-3.842A5.3,5.3,0,0,0,4.905,0a4.864,4.864,0,1,0,0,9.729A5.082,5.082,0,0,0,7.93,8.707,4.972,4.972,0,0,1,6.091,4.864Z" fill="#eb001b" fill-rule="evenodd"/>
        <path id="Path_1_" d="M27.53,4.864a4.885,4.885,0,0,1-4.905,4.864A5.082,5.082,0,0,1,19.6,8.707a4.866,4.866,0,0,0,0-7.685A4.868,4.868,0,0,1,22.584,0,4.92,4.92,0,0,1,27.53,4.864Z" transform="translate(-11.588)" fill="#f79e1b" fill-rule="evenodd"/>
      </g>
      <g id="Group-3" data-name="Group" transform="translate(0 0.311)">
        <path id="Combined-Shape" d="M50.033,1.616a.5.5,0,0,1,.674.208h0L51.78,3.851l1.073-2.026a.505.505,0,0,1,.675-.208.485.485,0,0,1,.213.661h0L51.459,6.588a.507.507,0,0,1-.675.208.485.485,0,0,1-.213-.661h0l.644-1.221-1.4-2.638A.485.485,0,0,1,50.033,1.616Zm12-.12a2.033,2.033,0,0,1,1.431.581.483.483,0,0,1,0,.693.507.507,0,0,1-.707,0,1.039,1.039,0,0,0-1.448,0,.989.989,0,0,0,0,1.419,1.039,1.039,0,0,0,1.448,0,.507.507,0,0,1,.707,0,.482.482,0,0,1,0,.693,2.054,2.054,0,0,1-2.863,0,1.955,1.955,0,0,1,0-2.8A2.033,2.033,0,0,1,62.031,1.5Zm4.044,0A2.007,2.007,0,0,1,68.1,3.479a2.025,2.025,0,0,1-4.049,0A2.007,2.007,0,0,1,66.075,1.5Zm-17.4.065a.5.5,0,0,1,.5.49h0V4.916a.5.5,0,0,1-1,0h0V2.05A.5.5,0,0,1,48.671,1.56Zm8.435,0a.505.505,0,0,1,.338.114.483.483,0,0,1,.062.69h0L55.741,4.426h1.382a.49.49,0,1,1,0,.98H54.668a.5.5,0,0,1-.321-.114.483.483,0,0,1-.062-.69h0L56.051,2.54H54.9a.49.49,0,1,1,0-.98h2.21Zm1.746,0a.5.5,0,0,1,.5.49h0V4.916a.5.5,0,0,1-1,0h0V2.05A.5.5,0,0,1,58.852,1.56Zm7.223.915a1,1,0,1,0,1.024,1A1.015,1.015,0,0,0,66.075,2.475ZM48.671,0a.547.547,0,0,1,.552.542.553.553,0,0,1-1.105,0A.547.547,0,0,1,48.671,0ZM58.852,0A.547.547,0,0,1,59.4.542a.553.553,0,0,1-1.105,0A.547.547,0,0,1,58.852,0Z" transform="translate(-28.449 0)" fill="#1e64ff" fill-rule="evenodd"/>
        <path id="Combined-Shape-2" data-name="Combined-Shape" d="M55.717,19.171a1.738,1.738,0,1,1-1.682,1.737A1.72,1.72,0,0,1,55.717,19.171Zm4.225-.034a.263.263,0,0,1,.261.258v2.988a.263.263,0,0,1-.261.258.259.259,0,0,1-.256-.258V22.12a.781.781,0,0,1-.793.525,1.3,1.3,0,0,1,0-2.594.849.849,0,0,1,.793.467v-.195a.165.165,0,0,1,0-.049V19.4A.258.258,0,0,1,59.942,19.137Zm-11.617.93a.2.2,0,0,1,.2.2v2.16a.2.2,0,1,1-.4,0v-2.16A.2.2,0,0,1,48.326,20.067Zm.938-.93a.2.2,0,0,1,.2.2v3.095a.2.2,0,1,1-.4,0V19.337A.2.2,0,0,1,49.264,19.137Zm1.871.915a1.222,1.222,0,0,1,1.213,1.226c0,.155-.092.229-.256.229l-1.779-.01a.84.84,0,0,0,.875.8.883.883,0,0,0,.561-.185.307.307,0,0,1,.169-.073.142.142,0,0,1,.15.151.241.241,0,0,1-.106.18,1.19,1.19,0,0,1-.783.263A1.232,1.232,0,0,1,49.9,21.352,1.25,1.25,0,0,1,51.135,20.052Zm10.756,0A1.218,1.218,0,0,1,63.1,21.264c0,.2-.111.278-.319.278l-1.619-.005a.75.75,0,0,0,.793.677.844.844,0,0,0,.483-.141.444.444,0,0,1,.2-.078.172.172,0,0,1,.179.185.277.277,0,0,1-.131.219,1.184,1.184,0,0,1-.754.238,1.239,1.239,0,0,1-1.3-1.285A1.261,1.261,0,0,1,61.891,20.052Zm-2.915.443a.861.861,0,0,0,0,1.708.864.864,0,0,0,0-1.708Zm-3.258-.827a1.243,1.243,0,1,0,1.136,1.241A1.182,1.182,0,0,0,55.717,19.668Zm-4.583.74a.817.817,0,0,0-.822.788h1.643A.814.814,0,0,0,51.135,20.408Zm10.756.092a.71.71,0,0,0-.725.667h1.44A.7.7,0,0,0,61.891,20.5ZM48.326,19.089a.2.2,0,1,1-.208.2A.208.208,0,0,1,48.326,19.089Zm7.986-.8a.277.277,0,1,1-.28.278A.281.281,0,0,1,56.312,18.286Zm-1.189,0a.277.277,0,1,1-.28.278A.28.28,0,0,1,55.123,18.286Z" transform="translate(-28.449 -10.811)" fill="#495057" fill-rule="evenodd"/>
        <g id="Group-3-2" data-name="Group-3" transform="translate(0 0)">
          <path id="Fill-1-2" data-name="Fill-1" d="M1.545,0A1.551,1.551,0,0,0,0,1.557V10.9a1.551,1.551,0,0,0,1.545,1.557H13.213a1.543,1.543,0,0,0,1.371-.838L17,6.948a1.568,1.568,0,0,0,.174-.706V6.216A1.567,1.567,0,0,0,17,5.51L14.583.838A1.544,1.544,0,0,0,13.213,0Z" fill-rule="evenodd" fill="url(#linear-gradient-2)"/>
        </g>
      </g>
    </g>
  </g>
</svg>
