<svg xmlns="http://www.w3.org/2000/svg" width="31.899" height="31.899" viewBox="0 0 31.899 31.899">
  <g id="money_ex" transform="translate(-889 -1980.11)">
    <g id="currency" transform="translate(889 1980.11)">
      <path id="Subtraction_1" data-name="Subtraction 1" d="M-879.736-2028.565a9.373,9.373,0,0,1-6.469-2.649,9.167,9.167,0,0,1-2.8-6.628,9.276,9.276,0,0,1,9.263-9.268,9.116,9.116,0,0,1,4.4,1.108,9.369,9.369,0,0,1,3.214,2.892,9.353,9.353,0,0,1,1.573,4.02,9.122,9.122,0,0,1-.513,4.51,11.2,11.2,0,0,0-5.4,5.411A9.189,9.189,0,0,1-879.736-2028.565Zm-2.275-7.834h0v3.361a.914.914,0,0,0,.323.7.92.92,0,0,0,.6.22.971.971,0,0,0,.144-.011c.269-.043,6.6-1.109,6.6-5.507a.921.921,0,0,0-.92-.92.921.921,0,0,0-.92.92c0,2.011-2.5,3.019-3.985,3.442v-2.941l2.181-.872a.912.912,0,0,0,.5-.491.915.915,0,0,0,.008-.7.914.914,0,0,0-.855-.577.918.918,0,0,0-.34.065l-1.5.6v-1.085l2.181-.872a.91.91,0,0,0,.5-.49.914.914,0,0,0,.009-.705.914.914,0,0,0-.855-.578.916.916,0,0,0-.34.065l-1.5.6v-1.277a.921.921,0,0,0-.92-.92.921.921,0,0,0-.92.92v2.013l-2.794,1.117a.91.91,0,0,0-.5.49.916.916,0,0,0-.009.707.913.913,0,0,0,.853.579.917.917,0,0,0,.341-.067l2.111-.843v1.085l-2.794,1.118a.91.91,0,0,0-.5.49.914.914,0,0,0-.009.705.913.913,0,0,0,.853.578.919.919,0,0,0,.341-.066l2.11-.844Z" transform="translate(889 2047.11)" fill="#fff"/>
      <path id="Subtraction_2" data-name="Subtraction 2" d="M-879.737-2028.573a9.276,9.276,0,0,1-9.263-9.268,9.276,9.276,0,0,1,9.263-9.268,9.276,9.276,0,0,1,9.263,9.268A9.276,9.276,0,0,1-879.737-2028.573Zm-.787-3.99h0v1.054a.939.939,0,0,0,.938.939.94.94,0,0,0,.939-.939v-1.055a3,3,0,0,0,3.2-2.993,3,3,0,0,0-3.135-2.993h-2.144a1.117,1.117,0,0,1-1.115-1.117,1.117,1.117,0,0,1,1.115-1.116h2.205a1.622,1.622,0,0,1,1.153.522.932.932,0,0,0,.685.3.936.936,0,0,0,.641-.253.933.933,0,0,0,.3-.655.931.931,0,0,0-.253-.672,3.526,3.526,0,0,0-2.645-1.116v-1.055a.939.939,0,0,0-.939-.938.939.939,0,0,0-.938.938v1.055a3,3,0,0,0-3.2,2.993,3,3,0,0,0,2.992,2.993h2.287a1.117,1.117,0,0,1,1.115,1.116,1.117,1.117,0,0,1-1.115,1.117h-2.406a1.639,1.639,0,0,1-.9-.3.933.933,0,0,0-.534-.167.938.938,0,0,0-.771.4.93.93,0,0,0-.153.7.93.93,0,0,0,.388.6,3.491,3.491,0,0,0,2.083.64h.206Z" transform="translate(902.374 2060.472)" fill="#ffa200"/>
      <path id="Path_13" data-name="Path 13" d="M358.188,19.636a3.783,3.783,0,0,1,3.783,3.948v.876l-.84-.84a.939.939,0,1,0-1.327,1.327l2.442,2.442a.938.938,0,0,0,1.327,0h0l2.441-2.441a.938.938,0,1,0-1.327-1.327l-.84.84v-.876a5.659,5.659,0,0,0-5.659-5.824.938.938,0,0,0,0,1.876Z" transform="translate(-334.905 -16.649)" fill="#fff"/>
      <path id="Path_14" data-name="Path 14" d="M16.336,341.9a3.783,3.783,0,0,1-3.783-3.948v-.876l.84.84a.939.939,0,1,0,1.327-1.327l-2.442-2.441h0a.935.935,0,0,0-1.327,0h0L8.51,336.591a.938.938,0,0,0,1.327,1.327l.84-.84v.876a5.659,5.659,0,0,0,5.659,5.824.938.938,0,1,0,0-1.876Z" transform="translate(-7.72 -312.99)" fill="#fff"/>
    </g>
  </g>
</svg>
