<svg xmlns="http://www.w3.org/2000/svg" width="15" height="15" viewBox="0 0 29.634 23.707">
    <g id="payment" transform="translate(-2 -4)">
        <path id="Path_286437" data-name="Path 286437" d="M6.361,14.25a1.111,1.111,0,0,0,0,2.223h8.89a1.111,1.111,0,1,0,0-2.223Z" transform="translate(1.566 4.937)"/>
        <path id="Path_286438" data-name="Path 286438" d="M6.445,4A4.445,4.445,0,0,0,2,8.445V23.262a4.445,4.445,0,0,0,4.445,4.445H27.189a4.445,4.445,0,0,0,4.445-4.445V8.445A4.445,4.445,0,0,0,27.189,4ZM27.189,6.223H6.445A2.223,2.223,0,0,0,4.223,8.445V10.3H29.411V8.445a2.223,2.223,0,0,0-2.223-2.223ZM4.223,23.262V12.52H29.411V23.262a2.223,2.223,0,0,1-2.223,2.223H6.445A2.223,2.223,0,0,1,4.223,23.262Z" transform="translate(0)" fill-rule="evenodd"/>
    </g>
</svg>