<svg xmlns="http://www.w3.org/2000/svg" width="18.484" height="11.763" viewBox="0 0 18.484 11.763">
  <path id="cash_1_" data-name="cash (1)" d="M5.2,10.041a.84.84,0,1,0,.84.84A.84.84,0,0,0,5.2,10.041Zm10.082,0a.84.84,0,1,0,.84.84A.84.84,0,0,0,15.283,10.041ZM16.964,5H3.521A2.521,2.521,0,0,0,1,7.521v6.722a2.521,2.521,0,0,0,2.521,2.521H16.964a2.521,2.521,0,0,0,2.521-2.521V7.521A2.521,2.521,0,0,0,16.964,5Zm.84,9.242a.84.84,0,0,1-.84.84H3.521a.84.84,0,0,1-.84-.84V7.521a.84.84,0,0,1,.84-.84H16.964a.84.84,0,0,1,.84.84ZM10.242,8.361a2.521,2.521,0,1,0,2.521,2.521A2.521,2.521,0,0,0,10.242,8.361Zm0,3.361a.84.84,0,1,1,.84-.84A.84.84,0,0,1,10.242,11.722Z" transform="translate(-1 -5)" fill="#cf1406"/>
</svg>
