<svg xmlns="http://www.w3.org/2000/svg" width="58.492" height="39.207" viewBox="0 0 58.492 39.207">
  <g id="greece" transform="translate(2968.889 -9838.745)">
    <g id="Group_42612" data-name="Group 42612" transform="translate(65.503)">
      <g id="ne" transform="translate(-3034.342 9838.795)">
        <rect id="Rectangle_2198" data-name="Rectangle 2198" width="58.392" height="11.036" transform="translate(0 28.071)" fill="#d00027"/>
        <path id="Path_17265" data-name="Path 17265" d="M0,0H58.392V28.072H0Z" transform="translate(0 0)" fill="#fc0"/>
        <rect id="Rectangle_2201" data-name="Rectangle 2201" width="58.392" height="39.107" transform="translate(0 0)" fill="none" stroke="#000" stroke-width="0.1"/>
        <rect id="Rectangle_3480" data-name="Rectangle 3480" width="58.392" height="11.036" fill="#d00027"/>
      </g>
      <g id="Group_42605" data-name="Group 42605" transform="translate(-296.977 -171.082)">
        <path id="Path_17266" data-name="Path 17266" d="M209.363,219.89l.681-3.064a.452.452,0,0,0-.441-.55h-.48a.452.452,0,0,0-.441.55Z" transform="translate(-2922.823 9809.543)" fill="#c8414b"/>
        <rect id="Rectangle_3481" data-name="Rectangle 3481" width="1.606" height="6.825" transform="translate(-2714.263 10027.827)" fill="#f5f5f5"/>
        <rect id="Rectangle_3482" data-name="Rectangle 3482" width="2.409" height="0.803" transform="translate(-2714.666 10027.024)" fill="#fab446"/>
        <g id="Group_42597" data-name="Group 42597" transform="translate(-2726.198 10025.819)">
          <rect id="Rectangle_3466" data-name="Rectangle 3466" width="4.015" height="0.803" transform="translate(9.926 3.614)" fill="#c8414b"/>
          <path id="Path_17249" data-name="Path 17249" d="M205.443,275.262l-2.409-.8v-.8l2.409.8Z" transform="translate(-191.502 -268.436)" fill="#c8414b"/>
          <path id="Path_17250" data-name="Path 17250" d="M76.949,219.89l.681-3.064a.452.452,0,0,0-.441-.55h-.48a.452.452,0,0,0-.441.55Z" transform="translate(-76.257 -216.276)" fill="#c8414b"/>
        </g>
        <path id="Path_17267" data-name="Path 17267" d="M106.734,229.518a.8.8,0,0,0-.8.8v5.22c0,.976.911,2.811,4.015,2.811s4.015-1.835,4.015-2.811v-5.22a.8.8,0,0,0-.8-.8Z" transform="translate(-2829.429 9797.507)" fill="#f5f5f5"/>
        <g id="Group_42598" data-name="Group 42598" transform="translate(-2723.498 10027.024)">
          <path id="Path_17252" data-name="Path 17252" d="M109.946,233.533h-4.015v-3.212a.8.8,0,0,1,.8-.8h3.212Z" transform="translate(-105.931 -229.518)" fill="#c8414b"/>
          <path id="Path_17253" data-name="Path 17253" d="M150.069,273.656h4.015v2.008a2.007,2.007,0,0,1-2.008,2.008h0a2.007,2.007,0,0,1-2.008-2.008Z" transform="translate(-146.054 -269.641)" fill="#c8414b"/>
        </g>
        <path id="Path_17268" data-name="Path 17268" d="M105.931,273.656h4.015v2.008a2.007,2.007,0,0,1-2.008,2.008h0a2.007,2.007,0,0,1-2.008-2.008Z" transform="translate(-2829.429 9757.383)" fill="#fab446"/>
        <g id="Group_42599" data-name="Group 42599" transform="translate(-2722.695 10031.039)">
          <path id="Path_17255" data-name="Path 17255" d="M133.216,277.261v-3.6h-.8v3.975A1.987,1.987,0,0,0,133.216,277.261Z" transform="translate(-130.807 -273.656)" fill="#c8414b"/>
          <path id="Path_17256" data-name="Path 17256" d="M115.561,277.631v-3.975h-.8v3.6A1.988,1.988,0,0,0,115.561,277.631Z" transform="translate(-114.758 -273.656)" fill="#c8414b"/>
        </g>
        <rect id="Rectangle_3483" data-name="Rectangle 3483" width="2.409" height="0.803" transform="translate(-2722.695 10029.434)" fill="#ffb441"/>
        <g id="Group_42600" data-name="Group 42600" transform="translate(-2722.695 10027.827)">
          <rect id="Rectangle_3468" data-name="Rectangle 3468" width="2.409" height="0.803" transform="translate(0 0)" fill="#fab446"/>
          <rect id="Rectangle_3469" data-name="Rectangle 3469" width="1.606" height="1.455" transform="translate(0.401 0.478)" fill="#fab446"/>
        </g>
        <rect id="Rectangle_3484" data-name="Rectangle 3484" width="1.606" height="6.825" transform="translate(-2726.309 10027.827)" fill="#f5f5f5"/>
        <g id="Group_42601" data-name="Group 42601" transform="translate(-2726.71 10027.024)">
          <rect id="Rectangle_3471" data-name="Rectangle 3471" width="2.409" height="0.803" transform="translate(0 7.227)" fill="#fab446"/>
          <rect id="Rectangle_3472" data-name="Rectangle 3472" width="2.409" height="0.803" transform="translate(0 0)" fill="#fab446"/>
        </g>
        <rect id="Rectangle_3485" data-name="Rectangle 3485" width="3.212" height="0.803" transform="translate(-2727.112 10035.054)" fill="#5064aa"/>
        <rect id="Rectangle_3486" data-name="Rectangle 3486" width="2.409" height="0.803" transform="translate(-2714.263 10034.252)" fill="#fab446"/>
        <rect id="Rectangle_3487" data-name="Rectangle 3487" width="3.212" height="0.803" transform="translate(-2715.067 10035.054)" fill="#5064aa"/>
        <rect id="Rectangle_3488" data-name="Rectangle 3488" width="4.818" height="0.803" transform="translate(-2721.892 10026.222)" fill="#fab446"/>
        <rect id="Rectangle_3489" data-name="Rectangle 3489" width="0.803" height="2.409" transform="translate(-2719.884 10023.813)" fill="#ffb441"/>
        <g id="Group_42602" data-name="Group 42602" transform="translate(-2723.097 10022.608)">
          <path id="Path_17257" data-name="Path 17257" d="M129.2,183.376a1.2,1.2,0,1,1,1.2-1.2A1.206,1.206,0,0,1,129.2,183.376Zm0-1.606a.4.4,0,1,0,.4.4A.4.4,0,0,0,129.2,181.77Z" transform="translate(-126.394 -180.967)" fill="#f5f5f5"/>
          <path id="Path_17258" data-name="Path 17258" d="M146.86,183.376a1.2,1.2,0,1,1,1.2-1.2A1.206,1.206,0,0,1,146.86,183.376Zm0-1.606a.4.4,0,1,0,.4.4A.4.4,0,0,0,146.86,181.77Z" transform="translate(-142.444 -180.967)" fill="#f5f5f5"/>
          <path id="Path_17259" data-name="Path 17259" d="M164.515,192.2a1.2,1.2,0,1,1,1.2-1.2A1.206,1.206,0,0,1,164.515,192.2Zm0-1.606a.4.4,0,1,0,.4.4A.4.4,0,0,0,164.515,190.6Z" transform="translate(-158.493 -188.992)" fill="#f5f5f5"/>
          <path id="Path_17260" data-name="Path 17260" d="M111.549,192.2a1.2,1.2,0,1,1,1.2-1.2A1.206,1.206,0,0,1,111.549,192.2Zm0-1.606a.4.4,0,1,0,.4.4A.4.4,0,0,0,111.549,190.6Z" transform="translate(-110.345 -188.992)" fill="#f5f5f5"/>
        </g>
        <path id="Path_17269" data-name="Path 17269" d="M160.5,283.287v.4a.4.4,0,0,1-.8,0v-.4h.8m.8-.8H158.9v1.2a1.2,1.2,0,0,0,2.409,0v-1.2Z" transform="translate(-2877.576 9749.358)" fill="#fab446"/>
        <path id="Path_17270" data-name="Path 17270" d="M164.113,240.754h0a.8.8,0,0,1-.8-.8v-.8a.8.8,0,0,1,.8-.8h0a.8.8,0,0,1,.8.8v.8A.8.8,0,0,1,164.113,240.754Z" transform="translate(-2881.589 9789.482)" fill="#ffa0d2"/>
        <circle id="Ellipse_455" data-name="Ellipse 455" cx="1.204" cy="1.204" r="1.204" transform="translate(-2720.688 10029.835)" fill="#5064aa"/>
        <rect id="Rectangle_3490" data-name="Rectangle 3490" width="0.803" height="2.409" transform="translate(-2719.884 10022.206)" fill="#fab446"/>
        <path id="Path_17271" data-name="Path 17271" d="M115.561,196.617l-.8-.8.47-.47a3.877,3.877,0,0,1,2.742-1.136h0a3.878,3.878,0,0,1,2.742,1.136l.47.47-.8.8Z" transform="translate(-2837.453 9829.604)" fill="#c8414b"/>
        <g id="Group_42603" data-name="Group 42603" transform="translate(-2721.491 10025.017)">
          <circle id="Ellipse_456" data-name="Ellipse 456" cx="0.402" cy="0.402" r="0.402" transform="translate(1.606 0)" fill="#ffd250"/>
          <circle id="Ellipse_457" data-name="Ellipse 457" cx="0.402" cy="0.402" r="0.402" transform="translate(0 0)" fill="#ffd250"/>
          <circle id="Ellipse_458" data-name="Ellipse 458" cx="0.402" cy="0.402" r="0.402" transform="translate(3.212 0)" fill="#ffd250"/>
        </g>
        <g id="Group_42604" data-name="Group 42604" transform="translate(-2726.71 10029.434)">
          <rect id="Rectangle_3479" data-name="Rectangle 3479" width="4.015" height="0.803" transform="translate(0 0)" fill="#c8414b"/>
          <path id="Path_17264" data-name="Path 17264" d="M70.621,275.262l2.409-.8v-.8l-2.409.8Z" transform="translate(-70.621 -272.05)" fill="#c8414b"/>
        </g>
      </g>
    </g>
    <g id="Group_42611" data-name="Group 42611" transform="translate(-5.503 2)">
      <path id="Subtraction_21" data-name="Subtraction 21" d="M58.392,42.762H0V38.417H58.392v4.344Zm0-8.69H0V29.727H58.392V34.07Zm0-8.691H0V21.036H58.392v4.343Zm0-8.689H0V12.345H58.392V16.69Z" transform="translate(-2963.336 9828.795)" fill="#f5f5f5"/>
      <path id="Subtraction_20" data-name="Subtraction 20" d="M58.392,47.108H1.03a1.065,1.065,0,0,1-.187-.017H0V42.763H58.392v4.344Zm0-8.69H0V34.072H58.392v4.344Zm0-8.691H0V8H58.392v4.345H20.583v4.345H58.392v4.345H20.583v4.345H58.392v4.344Z" transform="translate(-2963.336 9828.795)" fill="#4b54cf"/>
      <path id="Path_17274" data-name="Path 17274" d="M20.583,96.968H12.464V88.277H8.119v8.691H0v4.345H8.119V110h4.345v-8.691h8.119Z" transform="translate(-2963.336 9748.518)" fill="#f5f5f5"/>
    </g>
  </g>
</svg>
