<svg id="add_5_" data-name="add (5)" xmlns="http://www.w3.org/2000/svg" width="19.96" height="19.96" viewBox="0 0 19.96 19.96">
    <g id="Group_16519" data-name="Group 16519">
        <g id="Group_16518" data-name="Group 16518">
            <path id="Path_10382" data-name="Path 10382" d="M9.98,0a9.98,9.98,0,1,0,9.98,9.98A9.991,9.991,0,0,0,9.98,0Zm0,18.414A8.434,8.434,0,1,1,18.414,9.98,8.444,8.444,0,0,1,9.98,18.414Z" fill="#fff"/>
        </g>
    </g>
    <g id="Group_16521" data-name="Group 16521" transform="translate(5.342 5.272)">
        <g id="Group_16520" data-name="Group 16520">
            <path id="Path_10383" data-name="Path 10383" d="M145.526,139.1h-3.092v-3.092a.773.773,0,0,0-1.546,0V139.1H137.8a.773.773,0,0,0,0,1.546h3.092v3.092a.773.773,0,0,0,1.546,0v-3.092h3.092a.773.773,0,1,0,0-1.546Z" transform="translate(-137.022 -135.238)" fill="#fff"/>
        </g>
    </g>
</svg>
