<svg xmlns="http://www.w3.org/2000/svg" width="14.212" height="14.148" viewBox="0 0 14.212 14.148">
    <path id="Path_11030" data-name="Path 11030" d="M-1636.669-813.08l-.773.772-7.73,7.731-.006.006a.582.582,0,0,0-.1.159c-.007.015-.011.029-.017.045s-.016.041-.022.063l-.828,3.92a.681.681,0,0,0-.008.094c0,.007,0,.012,0,.019v.009a.508.508,0,0,0,.039.182c.005.013.01.026.017.039a.535.535,0,0,0,.1.153.542.542,0,0,0,.387.164h13.119a.546.546,0,0,0,.547-.546.546.546,0,0,0-.547-.546h-8.707l7.626-7.626.773-.772a2.732,2.732,0,0,0-.01-3.857,2.721,2.721,0,0,0-1.931-.8A2.724,2.724,0,0,0-1636.669-813.08Zm-7.791,9.989.833.834.833.832-2.112.447Zm1.607.061-1.16-1.16,6.958-6.957,1.159,1.16,1.159,1.159-6.957,6.957Zm6.57-8.89.387-.387a1.682,1.682,0,0,1,2.319,0,1.643,1.643,0,0,1,0,2.32l-.387.386Z" transform="translate(1646.16 813.872)" fill="#0075ff"/>
</svg>
