<svg xmlns="http://www.w3.org/2000/svg" width="28.064" height="24.555" viewBox="0 0 28.064 24.555">
    <g id="credit-card" transform="translate(0 -32.008)">
        <g id="Group_16590" data-name="Group 16590" transform="translate(0 37.269)">
            <g id="Group_16589" data-name="Group 16589" transform="translate(0 0)">
                <path id="Path_11024" data-name="Path 11024" d="M12.278,129.746v-1.754H1.754A1.757,1.757,0,0,0,0,129.746v3.508H12.648A15.7,15.7,0,0,1,12.278,129.746Z" transform="translate(0 -127.992)" fill="#7a50f0"/>
            </g>
        </g>
        <g id="Group_16592" data-name="Group 16592" transform="translate(0 46.039)">
            <g id="Group_16591" data-name="Group 16591">
                <path id="Path_11025" data-name="Path 11025" d="M27.992,287.992a15.776,15.776,0,0,1-5.634,4.913,2.635,2.635,0,0,1-2.615,0,15.855,15.855,0,0,1-5.636-4.916H0v8.77a1.756,1.756,0,0,0,1.754,1.754H26.31a1.755,1.755,0,0,0,1.754-1.754v-8.77Zm-20.1,5.262H4.385a.877.877,0,0,1,0-1.754H7.893a.877.877,0,0,1,0,1.754Z" transform="translate(0 -287.992)" fill="#7a50f0"/>
            </g>
        </g>
        <g id="Group_16594" data-name="Group 16594" transform="translate(14.032 32.008)">
            <g id="Group_16593" data-name="Group 16593" transform="translate(0 0)">
                <path id="Path_11026" data-name="Path 11026" d="M269.5,34.71l-6.139-2.631a.88.88,0,0,0-.693,0L256.53,34.71a.875.875,0,0,0-.53.805v3.508c0,4.825,1.784,7.646,6.579,10.408a.882.882,0,0,0,.873,0c4.8-2.756,6.579-5.576,6.579-10.408V35.515A.874.874,0,0,0,269.5,34.71ZM266.333,38.7l-3.508,4.385a.887.887,0,0,1-.686.328H262.1a.88.88,0,0,1-.693-.389l-1.754-2.631a.877.877,0,1,1,1.459-.972l1.089,1.633,2.757-3.448a.877.877,0,0,1,1.372,1.094Z" transform="translate(-256 -32.008)" fill="#7a50f0"/>
            </g>
        </g>
    </g>
</svg>
