<?xml version="1.0" encoding="iso-8859-1"?>
<!-- Generator: Adobe Illustrator 19.0.0, SVG Export Plug-In . SVG Version: 6.00 Build 0)  -->
<svg version="1.1" id="Capa_1" xmlns="http://www.w3.org/2000/svg" xmlns:xlink="http://www.w3.org/1999/xlink" x="0px" y="0px"
	 viewBox="0 0 512 512" style="enable-background:new 0 0 512 512;" xml:space="preserve">
<path style="fill:#92ECF6;" d="M497,0H376.5c-8.284,0-15,6.716-15,15v105.5H256c-8.284,0-15,6.716-15,15V241H135.5
	c-8.284,0-15,6.716-15,15v105.5H15c-8.284,0-15,6.716-15,15V497c0,8.284,6.716,15,15,15h482c8.284,0,15-6.716,15-15V15
	C512,6.716,505.284,0,497,0z"/>
<path style="fill:#2FD6F0;" d="M497,0H376.5c-8.284,0-15,6.716-15,15v105.5H256c-8.284,0-15,6.716-15,15V241v271h256
	c8.284,0,15-6.716,15-15V15C512,6.716,505.284,0,497,0z"/>
<g>
</g>
<g>
</g>
<g>
</g>
<g>
</g>
<g>
</g>
<g>
</g>
<g>
</g>
<g>
</g>
<g>
</g>
<g>
</g>
<g>
</g>
<g>
</g>
<g>
</g>
<g>
</g>
<g>
</g>
</svg>
