<svg xmlns="http://www.w3.org/2000/svg" width="22.275" height="22.275" viewBox="0 0 22.275 22.275">
  <path id="date_icon" data-name="date icon" d="M14.93,22.088a5.84,5.84,0,0,1-1.335-.529,5.918,5.918,0,0,1-2.074-1.895H.653A.653.653,0,0,1,0,19.012V2a.653.653,0,0,1,.653-.653h4.62v-.7a.653.653,0,1,1,1.305,0v.7h.9c.552,0,2.57,0,2.57,0v-.7a.653.653,0,1,1,1.305,0v.7h3.242v-.7a.653.653,0,1,1,1.305,0v.7h4.417A.653.653,0,0,1,20.97,2V12.715a5.873,5.873,0,0,1-6.04,9.374Zm-3.1-5.687A4.568,4.568,0,1,0,16.4,11.834,4.573,4.573,0,0,0,11.834,16.4ZM1.305,18.359h9.559a5.794,5.794,0,0,1-.232-.857c-.012-.063-.021-.115-.029-.168a5.843,5.843,0,0,1-.029-1.683c.009-.072.019-.141.03-.206H9.876a.653.653,0,0,1,0-1.305H11c.019-.045.04-.091.061-.139.095-.21.194-.407.3-.586a4.49,4.49,0,0,1,.384-.578c.077-.1.158-.2.235-.286a6.031,6.031,0,0,1,.9-.841,5.912,5.912,0,0,1,1.059-.637,5.859,5.859,0,0,1,5.728.448V6.569H1.305Zm0-13.1H19.665V2.654H15.9v.653a.653.653,0,1,1-1.305,0V2.654H11.353v.653a.653.653,0,1,1-1.305,0V2.654H6.578v.653a.653.653,0,1,1-1.305,0V2.654H1.305Zm15.1,11.79a.653.653,0,0,1-.653-.653v-2.61a.653.653,0,0,1,1.305,0v1.958h1.958a.653.653,0,1,1,0,1.305Zm-11.79-1.61a.653.653,0,1,1,0-1.305H5.917a.653.653,0,1,1,0,1.305Zm5.264-2.871a.653.653,0,1,1,0-1.305h1.305a.653.653,0,1,1,0,1.305Zm-5.264,0a.653.653,0,1,1,0-1.305H5.917a.653.653,0,1,1,0,1.305ZM15.1,9.7a.653.653,0,0,1,0-1.305H16.4a.653.653,0,0,1,0,1.305Zm-5.221,0a.653.653,0,1,1,0-1.305h1.305a.653.653,0,1,1,0,1.305Zm-5.264,0a.653.653,0,1,1,0-1.305H5.917a.653.653,0,1,1,0,1.305Z"/>
</svg>
