<svg xmlns="http://www.w3.org/2000/svg" width="14" height="11.001" viewBox="0 0 14 11.001">
  <path id="Gallery_icon" data-name="Gallery icon" d="M3254.636,3065a1,1,0,0,1-1-1v-2.857a1,1,0,0,1,1-1H3259a1,1,0,0,1,1,1V3064a1,1,0,0,1-1,1Zm-7.636,0a1,1,0,0,1-1-1v-2.857a1,1,0,0,1,1-1h4.363a1,1,0,0,1,1,1V3064a1,1,0,0,1-1,1Zm7.636-6.143a1,1,0,0,1-1-1V3055a1,1,0,0,1,1-1H3259a1,1,0,0,1,1,1v2.857a1,1,0,0,1-1,1Zm-7.636,0a1,1,0,0,1-1-1V3055a1,1,0,0,1,1-1h4.363a1,1,0,0,1,1,1v2.857a1,1,0,0,1-1,1Z" transform="translate(-3246 -3054)" fill="#8598aa"/>
</svg>
