<svg xmlns="http://www.w3.org/2000/svg" width="17.925" height="12.944" viewBox="0 0 17.925 12.944">
  <path id="list_icon" data-name="list icon" d="M5.434,12.944a.734.734,0,0,1-.734-.734V10.74a.734.734,0,0,1,.734-.734H17.19a.735.735,0,0,1,.735.734v1.47a.735.735,0,0,1-.735.734Zm-4.7,0A.735.735,0,0,1,0,12.2V10.735A.735.735,0,0,1,.734,10h1.94a.735.735,0,0,1,.734.735V12.2a.735.735,0,0,1-.734.735Zm4.7-5A.735.735,0,0,1,4.7,7.209V5.74A.735.735,0,0,1,5.434,5H17.19a.736.736,0,0,1,.735.735V7.209a.736.736,0,0,1-.735.735Zm-4.7-.005A.735.735,0,0,1,0,7.2V5.735A.735.735,0,0,1,.734,5h1.94a.734.734,0,0,1,.734.734V7.2a.734.734,0,0,1-.734.734Zm4.7-4.995A.734.734,0,0,1,4.7,2.21V.74A.734.734,0,0,1,5.434.005H17.19a.735.735,0,0,1,.735.734V2.21a.735.735,0,0,1-.735.734Zm-4.7,0A.735.735,0,0,1,0,2.2V.734A.735.735,0,0,1,.734,0h1.94a.735.735,0,0,1,.734.734V2.2a.735.735,0,0,1-.734.735Z" fill="#8598aa"/>
</svg>
