<?xml version="1.0" encoding="UTF-8" standalone="no"?>
<svg xmlns="http://www.w3.org/2000/svg" xmlns:xlink="http://www.w3.org/1999/xlink" width="1400px" height="1000px" viewBox="0 0 1400 1000" zoomAndPan="disable">
<style type="text/css"><![CDATA[@keyframes foo {0% { opacity: 1; } 20% { opacity: 0.25; } 40% { opacity: 1.0; } 60% { opacity: 0.55; } 80% { opacity: 0.25; } 100% { opacity: 1; } } @keyframes bar {0% { opacity: 1; } 20% { opacity: 0.75; } 40% { opacity: 0.25; } 60% { opacity: 0.75; } 80% { opacity: 0.35; } 100% { opacity: 1; } } polygon.a1 { animation: foo ease 10s infinite; } polygon.a2 { animation: bar ease 10s infinite; } polygon.f1 { fill: rgba(255,255,255,0.0125); } polygon.f2 { fill: rgba(255,255,255,0.025); } polygon.f3 { fill: rgba(255,255,255,0.0375); } polygon.f4 { fill: rgba(255,255,255,0.075); } polygon.f5 { fill: rgba(255,255,255,0.1); } polygon.f6 { fill: rgba(255,255,255,0.125); } polygon.d1 { animation-delay: 0.5s; } polygon.d2 { animation-delay: 0.25s; } polygon.d3 { animation-delay: 2s; } polygon.d4 { animation-delay: 1.5s; } polygon.d5 { animation-delay: 0.75s; } polygon.d6 { animation-delay: 0.25s; } polygon.d7 { animation-delay: 1s; } polygon.d8 { animation-delay: 1.25s; } polygon.d9 { animation-delay: 0.9s; } polygon.d10 { animation-delay: 1.0s; } ]]></style>
<polygon class="a1 f5 d1" points="180,850, 115,962.58330249198, -15,962.58330249198, -80,850, -15,737.41669750802, 115,737.41669750802, 180,850" />
<polygon class="a2 f6 d3" points="374.75655430712,962.66666666667, 309.75655430712,1075.2499691586, 179.75655430712,1075.2499691586, 114.75655430712,962.66666666667, 179.75655430712,850.08336417469, 309.75655430712,850.08336417469, 374.75655430712,962.66666666667" />
<polygon class="a1 f5 d4" points="569.51310861423,1075.3333333333, 504.51310861423,1187.9166358253, 374.51310861423,1187.9166358253, 309.51310861423,1075.3333333333, 374.51310861423,962.75003084136, 504.51310861423,962.75003084136, 569.51310861423,1075.3333333333" />
<polygon class="a1 f4 d8" points="764.26966292135,1188, 699.26966292135,1300.583302492, 569.26966292135,1300.583302492, 504.26966292135,1188, 569.26966292135,1075.416697508, 699.26966292135,1075.416697508, 764.26966292135,1188" />
<polygon class="a2 f3 d2" points="959.02621722846,1300.6666666667, 894.02621722846,1413.2499691586, 764.02621722846,1413.2499691586, 699.02621722846,1300.6666666667, 764.02621722846,1188.0833641747, 894.02621722846,1188.0833641747, 959.02621722846,1300.6666666667" />
<polygon class="a1 f2 d1" points="1153.7827715356,1413.3333333333, 1088.7827715356,1525.9166358253, 958.78277153558,1525.9166358253, 893.78277153558,1413.3333333333, 958.78277153558,1300.7500308414, 1088.7827715356,1300.7500308414, 1153.7827715356,1413.3333333333" />
<polygon class="a2 f5 d5" points="1348.5393258427,1526, 1283.5393258427,1638.583302492, 1153.5393258427,1638.583302492, 1088.5393258427,1526, 1153.5393258427,1413.416697508, 1283.5393258427,1413.416697508, 1348.5393258427,1526" />
<polygon class="a2 f4 d2" points="1543.2958801498,1638.6666666667, 1478.2958801498,1751.2499691586, 1348.2958801498,1751.2499691586, 1283.2958801498,1638.6666666667, 1348.2958801498,1526.0833641747, 1478.2958801498,1526.0833641747, 1543.2958801498,1638.6666666667" />
<polygon class="a1 f6 d7" points="1738.0524344569,1751.3333333333, 1673.0524344569,1863.9166358253, 1543.0524344569,1863.9166358253, 1478.0524344569,1751.3333333333, 1543.0524344569,1638.7500308414, 1673.0524344569,1638.7500308414, 1738.0524344569,1751.3333333333" />
<polygon class="a2 f4 d8" points="180,624.66666666667, 115,737.24996915864, -15,737.24996915864, -80,624.66666666667, -15,512.08336417469, 115,512.08336417469, 180,624.66666666667" />
<polygon class="a1 f5 d4" points="374.75655430712,737.33333333333, 309.75655430712,849.91663582531, 179.75655430712,849.91663582531, 114.75655430712,737.33333333333, 179.75655430712,624.75003084136, 309.75655430712,624.75003084136, 374.75655430712,737.33333333333" />
<polygon class="a1 f6 d2" points="569.51310861423,850, 504.51310861423,962.58330249198, 374.51310861423,962.58330249198, 309.51310861423,850, 374.51310861423,737.41669750802, 504.51310861423,737.41669750802, 569.51310861423,850" />
<polygon class="a2 f4 d1" points="764.26966292135,962.66666666667, 699.26966292135,1075.2499691586, 569.26966292135,1075.2499691586, 504.26966292135,962.66666666667, 569.26966292135,850.08336417469, 699.26966292135,850.08336417469, 764.26966292135,962.66666666667" />
<polygon class="a2 f4 d9" points="959.02621722846,1075.3333333333, 894.02621722846,1187.9166358253, 764.02621722846,1187.9166358253, 699.02621722846,1075.3333333333, 764.02621722846,962.75003084136, 894.02621722846,962.75003084136, 959.02621722846,1075.3333333333" />
<polygon class="a1 f3 d10" points="1153.7827715356,1188, 1088.7827715356,1300.583302492, 958.78277153558,1300.583302492, 893.78277153558,1188, 958.78277153558,1075.416697508, 1088.7827715356,1075.416697508, 1153.7827715356,1188" />
<polygon class="a2 f4 d4" points="1348.5393258427,1300.6666666667, 1283.5393258427,1413.2499691586, 1153.5393258427,1413.2499691586, 1088.5393258427,1300.6666666667, 1153.5393258427,1188.0833641747, 1283.5393258427,1188.0833641747, 1348.5393258427,1300.6666666667" />
<polygon class="a1 f3 d3" points="1543.2958801498,1413.3333333333, 1478.2958801498,1525.9166358253, 1348.2958801498,1525.9166358253, 1283.2958801498,1413.3333333333, 1348.2958801498,1300.7500308414, 1478.2958801498,1300.7500308414, 1543.2958801498,1413.3333333333" />
<polygon class="a2 f2 d6" points="1738.0524344569,1526, 1673.0524344569,1638.583302492, 1543.0524344569,1638.583302492, 1478.0524344569,1526, 1543.0524344569,1413.416697508, 1673.0524344569,1413.416697508, 1738.0524344569,1526" />
<polygon class="a1 f5 d10" points="180,399.33333333333, 115,511.91663582531, -15,511.91663582531, -80,399.33333333333, -15,286.75003084136, 115,286.75003084136, 180,399.33333333333" />
<polygon class="a2 f4 d7" points="374.75655430712,512, 309.75655430712,624.58330249198, 179.75655430712,624.58330249198, 114.75655430712,512, 179.75655430712,399.41669750802, 309.75655430712,399.41669750802, 374.75655430712,512" />
<polygon class="a1 f4 d5" points="569.51310861423,624.66666666667, 504.51310861423,737.24996915864, 374.51310861423,737.24996915864, 309.51310861423,624.66666666667, 374.51310861423,512.08336417469, 504.51310861423,512.08336417469, 569.51310861423,624.66666666667" />
<polygon class="a2 f5 d8" points="764.26966292135,737.33333333333, 699.26966292135,849.91663582531, 569.26966292135,849.91663582531, 504.26966292135,737.33333333333, 569.26966292135,624.75003084136, 699.26966292135,624.75003084136, 764.26966292135,737.33333333333" />
<polygon class="a2 f6 d4" points="959.02621722846,850, 894.02621722846,962.58330249198, 764.02621722846,962.58330249198, 699.02621722846,850, 764.02621722846,737.41669750802, 894.02621722846,737.41669750802, 959.02621722846,850" />
<polygon class="a2 f4 d9" points="1153.7827715356,962.66666666667, 1088.7827715356,1075.2499691586, 958.78277153558,1075.2499691586, 893.78277153558,962.66666666667, 958.78277153558,850.08336417469, 1088.7827715356,850.08336417469, 1153.7827715356,962.66666666667" />
<polygon class="a1 f2 d2" points="1348.5393258427,1075.3333333333, 1283.5393258427,1187.9166358253, 1153.5393258427,1187.9166358253, 1088.5393258427,1075.3333333333, 1153.5393258427,962.75003084136, 1283.5393258427,962.75003084136, 1348.5393258427,1075.3333333333" />
<polygon class="a1 f3 d9" points="1543.2958801498,1188, 1478.2958801498,1300.583302492, 1348.2958801498,1300.583302492, 1283.2958801498,1188, 1348.2958801498,1075.416697508, 1478.2958801498,1075.416697508, 1543.2958801498,1188" />
<polygon class="a2 f4 d4" points="959.02621722846,1300.6666666667, 894.02621722846,1413.2499691586, 764.02621722846,1413.2499691586, 699.02621722846,1300.6666666667, 764.02621722846,1188.0833641747, 894.02621722846,1188.0833641747, 959.02621722846,1300.6666666667" />
<polygon class="a1 f3 d3" points="180,174, 115,286.58330249198, -15,286.58330249198, -80,174, -15,61.416697508023, 115,61.416697508023, 180,174" />
<polygon class="a1 f2 d6" points="374.75655430712,286.66666666667, 309.75655430712,399.24996915864, 179.75655430712,399.24996915864, 114.75655430712,286.66666666667, 179.75655430712,174.08336417469, 309.75655430712,174.08336417469, 374.75655430712,286.66666666667" />
<polygon class="a2 f3 d4" points="569.51310861423,399.33333333333, 504.51310861423,511.91663582531, 374.51310861423,511.91663582531, 309.51310861423,399.33333333333, 374.51310861423,286.75003084136, 504.51310861423,286.75003084136, 569.51310861423,399.33333333333" />
<polygon class="a2 f3 d2" points="764.26966292135,512, 699.26966292135,624.58330249198, 569.26966292135,624.58330249198, 504.26966292135,512, 569.26966292135,399.41669750802, 699.26966292135,399.41669750802, 764.26966292135,512" />
<polygon class="a1 f4 d4" points="959.02621722846,624.66666666667, 894.02621722846,737.24996915864, 764.02621722846,737.24996915864, 699.02621722846,624.66666666667, 764.02621722846,512.08336417469, 894.02621722846,512.08336417469, 959.02621722846,624.66666666667" />
<polygon class="a2 f5 d9" points="1153.7827715356,737.33333333333, 1088.7827715356,849.91663582531, 958.78277153558,849.91663582531, 893.78277153558,737.33333333333, 958.78277153558,624.75003084136, 1088.7827715356,624.75003084136, 1153.7827715356,737.33333333333" />
<polygon class="a1 f4 d7" points="1348.5393258427,850, 1283.5393258427,962.58330249198, 1153.5393258427,962.58330249198, 1088.5393258427,850, 1153.5393258427,737.41669750802, 1283.5393258427,737.41669750802, 1348.5393258427,850" />
<polygon class="a2 f2 d2" points="1543.2958801498,962.66666666667, 1478.2958801498,1075.2499691586, 1348.2958801498,1075.2499691586, 1283.2958801498,962.66666666667, 1348.2958801498,850.08336417469, 1478.2958801498,850.08336417469, 1543.2958801498,962.66666666667" />
<polygon class="a1 f1 d9" points="1738.0524344569,1075.3333333333, 1673.0524344569,1187.9166358253, 1543.0524344569,1187.9166358253, 1478.0524344569,1075.3333333333, 1543.0524344569,962.75003084136, 1673.0524344569,962.75003084136, 1738.0524344569,1075.3333333333" />
<polygon class="a2 f1 d2" points="180,-51.333333333333, 115,61.249969158644, -15,61.249969158644, -80,-51.333333333333, -15,-163.91663582531, 115,-163.91663582531, 180,-51.333333333333" />
<polygon class="a1 f2 d10" points="374.75655430712,61.333333333333, 309.75655430712,173.91663582531, 179.75655430712,173.91663582531, 114.75655430712,61.333333333333, 179.75655430712,-51.249969158644, 309.75655430712,-51.249969158644, 374.75655430712,61.333333333333" />
<polygon class="a2 f1 d4" points="569.51310861423,174, 504.51310861423,286.58330249198, 374.51310861423,286.58330249198, 309.51310861423,174, 374.51310861423,61.416697508023, 504.51310861423,61.416697508023, 569.51310861423,174" />
<polygon class="a1 f2 d9" points="764.26966292135,286.66666666667, 699.26966292135,399.24996915864, 569.26966292135,399.24996915864, 504.26966292135,286.66666666667, 569.26966292135,174.08336417469, 699.26966292135,174.08336417469, 764.26966292135,286.66666666667" />
<polygon class="a1 f1 d3" points="959.02621722846,399.33333333333, 894.02621722846,511.91663582531, 764.02621722846,511.91663582531, 699.02621722846,399.33333333333, 764.02621722846,286.75003084136, 894.02621722846,286.75003084136, 959.02621722846,399.33333333333" />
<polygon class="a1 f3 d7" points="1153.7827715356,512, 1088.7827715356,624.58330249198, 958.78277153558,624.58330249198, 893.78277153558,512, 958.78277153558,399.41669750802, 1088.7827715356,399.41669750802, 1153.7827715356,512" />
<polygon class="a2 f2 d2" points="1348.5393258427,624.66666666667, 1283.5393258427,737.24996915864, 1153.5393258427,737.24996915864, 1088.5393258427,624.66666666667, 1153.5393258427,512.08336417469, 1283.5393258427,512.08336417469, 1348.5393258427,624.66666666667" />
<polygon class="a1 f1 d9" points="1543.2958801498,737.33333333333, 1478.2958801498,849.91663582531, 1348.2958801498,849.91663582531, 1283.2958801498,737.33333333333, 1348.2958801498,624.75003084136, 1478.2958801498,624.75003084136, 1543.2958801498,737.33333333333" />
<polygon class="a2 f3 d5" points="1738.0524344569,850, 1673.0524344569,962.58330249198, 1543.0524344569,962.58330249198, 1478.0524344569,850, 1543.0524344569,737.41669750802, 1673.0524344569,737.41669750802, 1738.0524344569,850" />
<polygon class="a1 f1 d3" points="374.75655430712,-164, 309.75655430712,-51.416697508023, 179.75655430712,-51.416697508023, 114.75655430712,-164, 179.75655430712,-276.58330249198, 309.75655430712,-276.58330249198, 374.75655430712,-164" />
<polygon class="a2 f2 d5" points="569.51310861423,-51.333333333333, 504.51310861423,61.249969158644, 374.51310861423,61.249969158644, 309.51310861423,-51.333333333333, 374.51310861423,-163.91663582531, 504.51310861423,-163.91663582531, 569.51310861423,-51.333333333333" />
<polygon class="a1 f1 d2" points="959.02621722846,174, 894.02621722846,286.58330249198, 764.02621722846,286.58330249198, 699.02621722846,174, 764.02621722846,61.416697508023, 894.02621722846,61.416697508023, 959.02621722846,174" />
<polygon class="a1 f1 d1" points="1348.5393258427,399.33333333333, 1283.5393258427,511.91663582531, 1153.5393258427,511.91663582531, 1088.5393258427,399.33333333333, 1153.5393258427,286.75003084136, 1283.5393258427,286.75003084136, 1348.5393258427,399.33333333333" />
<polygon class="a2 f2 d10" points="1543.2958801498,512, 1478.2958801498,624.58330249198, 1348.2958801498,624.58330249198, 1283.2958801498,512, 1348.2958801498,399.41669750802, 1478.2958801498,399.41669750802, 1543.2958801498,512" />
<polygon class="a2 f1 d7" points="1932.808988764,737.33333333333, 1867.808988764,849.91663582531, 1737.808988764,849.91663582531, 1672.808988764,737.33333333333, 1737.808988764,624.75003084136, 1867.808988764,624.75003084136, 1932.808988764,737.33333333333" />
<polygon class="a2 f2 d4" points="2127.5655430712,850, 2062.5655430712,962.58330249198, 1932.5655430712,962.58330249198, 1867.5655430712,850, 1932.5655430712,737.41669750802, 2062.5655430712,737.41669750802, 2127.5655430712,850" />
<polygon class="a2 f1 d9" points="374.75655430712,-389.33333333333, 309.75655430712,-276.75003084136, 179.75655430712,-276.75003084136, 114.75655430712,-389.33333333333, 179.75655430712,-501.91663582531, 309.75655430712,-501.91663582531, 374.75655430712,-389.33333333333" />
<polygon class="a1 f1 d1" points="959.02621722846,-51.333333333333, 894.02621722846,61.249969158644, 764.02621722846,61.249969158644, 699.02621722846,-51.333333333333, 764.02621722846,-163.91663582531, 894.02621722846,-163.91663582531, 959.02621722846,-51.333333333333" />
<polygon class="a2 f1 d6" points="1348.5393258427,174, 1283.5393258427,286.58330249198, 1153.5393258427,286.58330249198, 1088.5393258427,174, 1153.5393258427,61.416697508023, 1283.5393258427,61.416697508023, 1348.5393258427,174" />
<polygon class="a1 f2 d2" points="1932.808988764,512, 1867.808988764,624.58330249198, 1737.808988764,624.58330249198, 1672.808988764,512, 1737.808988764,399.41669750802, 1867.808988764,399.41669750802, 1932.808988764,512" />
</svg>