<svg id="ribbon-with-cross" xmlns="http://www.w3.org/2000/svg" width="8.477" height="12.417" viewBox="0 0 8.477 12.417">
    <path id="Path_3996" data-name="Path 3996" d="M14.307,0H6.236a.2.2,0,0,0-.2.2V12.216a.2.2,0,0,0,.125.186.191.191,0,0,0,.077.016.194.194,0,0,0,.142-.06L10.272,9.1l3.892,3.259a.2.2,0,0,0,.346-.142V.2A.2.2,0,0,0,14.307,0Z" transform="translate(-6.033)" fill="#a1a1a1"/>
    <rect id="Rectangle_2426" data-name="Rectangle 2426" width="4.639" height="0.843" transform="translate(3.898 5.949) rotate(-90)" fill="#fff"/>
    <rect id="Rectangle_2427" data-name="Rectangle 2427" width="4.639" height="0.843" transform="translate(2.001 3.208)" fill="#fff"/>
</svg>
