<svg id="Component_22_1" data-name="Component 22 – 1" xmlns="http://www.w3.org/2000/svg" width="24.001" height="16.999" viewBox="0 0 24.001 16.999">
    <path id="Union_69" data-name="Union 69" d="M-7554.5,3327a1,1,0,0,1-1-1v-5a1,1,0,0,1,1-1h8.5a1,1,0,0,1,1,1v5a1,1,0,0,1-1,1Zm-13.5,0a1,1,0,0,1-1-1v-5a1,1,0,0,1,1-1h8.5a1,1,0,0,1,1,1v5a1,1,0,0,1-1,1Zm13.5-10a1,1,0,0,1-1-1v-5a1,1,0,0,1,1-1h8.5a1,1,0,0,1,1,1v5a1,1,0,0,1-1,1Zm-13.5,0a1,1,0,0,1-1-1v-5a1,1,0,0,1,1-1h8.5a1,1,0,0,1,1,1v5a1,1,0,0,1-1,1Z" transform="translate(7569 -3310)" fill="#c4dbf2"/>
</svg>
