<svg xmlns="http://www.w3.org/2000/svg" width="23.997" height="17.329" viewBox="0 0 23.997 17.329">
    <g id="Group_1063" data-name="Group 1063" transform="translate(0 0)">
        <path id="Icon_awesome-sort-amount-down" data-name="Icon awesome-sort-amount-down" d="M27.008,2.25H11.27a.984.984,0,0,0-.984.984V5.2a.984.984,0,0,0,.984.984H27.008a.984.984,0,0,0,.984-.984V3.234A.984.984,0,0,0,27.008,2.25Z" transform="translate(-3.995 11.144)" fill="#9FA4A4"/>
        <path id="Icon_awesome-sort-amount-down-2" data-name="Icon awesome-sort-amount-down" d="M27.008,2.25H11.27a.984.984,0,0,0-.984.984V5.2a.984.984,0,0,0,.984.984H27.008a.984.984,0,0,0,.984-.984V3.234A.984.984,0,0,0,27.008,2.25Z" transform="translate(-3.995 4.45)" fill="#9FA4A4"/>
        <path id="Union_68" data-name="Union 68" d="M-4758.229,3103.736a.983.983,0,0,1-.984-.984v-1.967a.983.983,0,0,1,.984-.983h2.594a.983.983,0,0,1,.984.983v1.967a.983.983,0,0,1-.984.984Zm0-6.695a.982.982,0,0,1-.984-.983v-1.967a.983.983,0,0,1,.984-.983h2.594a.983.983,0,0,1,.984.983v1.967a.982.982,0,0,1-.984.983Zm6.291-6.686a.994.994,0,0,1-.108-.006h-6.183a.984.984,0,0,1-.984-.984V3087.4a.983.983,0,0,1,.984-.984h10.594a1.014,1.014,0,0,1,.119.007h11.315a.984.984,0,0,1,.984.984v1.967a.984.984,0,0,1-.984.983Z" transform="translate(4759.214 -3086.414)" fill="#9FA4A4"/>
    </g>
</svg>
