<svg xmlns="http://www.w3.org/2000/svg" width="23.997" height="17.328" viewBox="0 0 23.997 17.328">
    <g id="Group_1132" data-name="Group 1132" opacity="0.62">
        <path id="Icon_awesome-sort-amount-down" data-name="Icon awesome-sort-amount-down" d="M27.008,2.25H11.27a.984.984,0,0,0-.984.984V5.2a.984.984,0,0,0,.984.984H27.008a.984.984,0,0,0,.984-.984V3.234A.984.984,0,0,0,27.008,2.25Z" transform="translate(-3.995 11.144)" fill="#c4dbf2"/>
        <path id="Icon_awesome-sort-amount-down-2" data-name="Icon awesome-sort-amount-down" d="M27.008,2.25H11.27a.984.984,0,0,0-.984.984V5.2a.984.984,0,0,0,.984.984H27.008a.984.984,0,0,0,.984-.984V3.234A.984.984,0,0,0,27.008,2.25Z" transform="translate(-3.995 4.45)" fill="#c4dbf2"/>
        <path id="Icon_awesome-sort-amount-down-3" data-name="Icon awesome-sort-amount-down" d="M27.008,2.25H11.27a.984.984,0,0,0-.984.984V5.2a.984.984,0,0,0,.984.984H27.008a.984.984,0,0,0,.984-.984V3.234A.984.984,0,0,0,27.008,2.25Z" transform="translate(-3.995 -2.243)" fill="#c4dbf2"/>
        <path id="Icon_awesome-sort-amount-down-4" data-name="Icon awesome-sort-amount-down" d="M13.866,19.884h-2.6a.984.984,0,0,0-.984.984v1.967a.984.984,0,0,0,.984.984h2.6a.984.984,0,0,0,.984-.984V20.868A.984.984,0,0,0,13.866,19.884Z" transform="translate(-10.286 -6.497)" fill="#c4dbf2"/>
        <path id="Icon_awesome-sort-amount-down-5" data-name="Icon awesome-sort-amount-down" d="M13.866,19.884h-2.6a.984.984,0,0,0-.984.984v1.967a.984.984,0,0,0,.984.984h2.6a.984.984,0,0,0,.984-.984V20.868A.984.984,0,0,0,13.866,19.884Z" transform="translate(-10.286 -13.19)" fill="#c4dbf2"/>
        <path id="Icon_awesome-sort-amount-down-6" data-name="Icon awesome-sort-amount-down" d="M13.866,19.884h-2.6a.984.984,0,0,0-.984.984v1.967a.984.984,0,0,0,.984.984h2.6a.984.984,0,0,0,.984-.984V20.868A.984.984,0,0,0,13.866,19.884Z" transform="translate(-10.286 -19.884)" fill="#c4dbf2"/>
    </g>
</svg>
