<svg xmlns="http://www.w3.org/2000/svg" width="18.891" height="16.529" viewBox="0 0 18.891 16.529">
    <path id="Icon_awesome-sort-amount-down" data-name="Icon awesome-sort-amount-down" d="M11.216,16.418H8.855a.59.59,0,0,0-.59.59v1.181a.59.59,0,0,0,.59.59h2.361a.59.59,0,0,0,.59-.59V17.008A.59.59,0,0,0,11.216,16.418ZM6.494,14.057H4.723V2.84a.59.59,0,0,0-.59-.59H2.952a.59.59,0,0,0-.59.59V14.057H.59a.591.591,0,0,0-.417,1.008l2.952,3.542a.59.59,0,0,0,.835,0l2.952-3.542A.591.591,0,0,0,6.494,14.057Zm9.445-7.084H8.855a.59.59,0,0,0-.59.59V8.744a.59.59,0,0,0,.59.59h7.084a.59.59,0,0,0,.59-.59V7.563A.59.59,0,0,0,15.939,6.973ZM13.578,11.7H8.855a.59.59,0,0,0-.59.59v1.181a.59.59,0,0,0,.59.59h4.723a.59.59,0,0,0,.59-.59V12.286A.59.59,0,0,0,13.578,11.7ZM18.3,2.25H8.855a.59.59,0,0,0-.59.59V4.021a.59.59,0,0,0,.59.59H18.3a.59.59,0,0,0,.59-.59V2.84A.59.59,0,0,0,18.3,2.25Z" transform="translate(0 -2.25)" fill="#a1a1a1"/>
</svg>
