<svg xmlns="http://www.w3.org/2000/svg" width="28.172" height="28.173" viewBox="0 0 28.172 28.173">
    <g id="Group_1114" data-name="Group 1114" transform="translate(-7264.209 2699.731)">
        <path id="Path_4000" data-name="Path 4000" d="M305.3,349.269a14.087,14.087,0,1,1-9.96,4.126A14.044,14.044,0,0,1,305.3,349.269Z" transform="translate(6973 -3049)" fill="#58c37d" fill-rule="evenodd"/>
        <g id="Group_1083" data-name="Group 1083" transform="translate(6973 -3049)">
            <g id="Group_1094" data-name="Group 1094">
                <path id="Path_4066" data-name="Path 4066" d="M309.262,358.712a2.98,2.98,0,0,1,1.22-.271,3.168,3.168,0,0,1,1.6.466,6.318,6.318,0,0,0,1.445-3.773,27.256,27.256,0,0,1-4.838,2.19,2.865,2.865,0,0,1,.579,1.388Z" fill="#fff" fill-rule="evenodd"/>
                <path id="Path_4067" data-name="Path 4067" d="M298.513,358.907a3.172,3.172,0,0,1,1.6-.466,2.976,2.976,0,0,1,1.219.271,2.856,2.856,0,0,1,.579-1.388,27.256,27.256,0,0,1-4.838-2.19,6.321,6.321,0,0,0,1.444,3.773Z" fill="#fff" fill-rule="evenodd"/>
                <path id="Path_4068" data-name="Path 4068" d="M310.482,359.4a2.042,2.042,0,0,0-.8.176,7.159,7.159,0,0,1,.729,2.843h.072c1.318,0,2.387-1.51,2.387-1.51s-1.069-1.51-2.387-1.51Z" fill="#fff" fill-rule="evenodd"/>
                <path id="Path_4069" data-name="Path 4069" d="M300.909,359.581a2.033,2.033,0,0,0-.8-.176c-1.318,0-2.387,1.51-2.387,1.51s1.069,1.51,2.387,1.51h.072A7.157,7.157,0,0,1,300.909,359.581Z" fill="#fff" fill-rule="evenodd"/>
                <path id="Path_4070" data-name="Path 4070" d="M308.4,369.475l-.069-.362a5.756,5.756,0,0,1-.081-.583l-.894-2.462a4.105,4.105,0,0,1,1.389-4.678l.471-.355a6.171,6.171,0,0,0-.5-1.237l-.386-.714a1.912,1.912,0,0,0-1.912-1.913H304.18a1.912,1.912,0,0,0-1.912,1.913l-.387.714a6.225,6.225,0,0,0-.5,1.237l.471.355a4.1,4.1,0,0,1,1.388,4.678l-.893,2.462c-.018.2-.045.39-.082.583l-.069.362a1.769,1.769,0,0,0,1.738,2.1h2.731a1.768,1.768,0,0,0,1.737-2.1Zm-3.645.566h-.964v-1.025h.964v1.025Zm2.048,0h-.964v-1.025h.964Z" fill="#fff" fill-rule="evenodd"/>
                <path id="Path_4071" data-name="Path 4071" d="M302.389,363.774a3.126,3.126,0,0,0-1.121-1.614l-.1-.073a6.191,6.191,0,0,0,.611,3.409l.052.107a5.631,5.631,0,0,1,.282.727l.214-.591a3.124,3.124,0,0,0,.059-1.965Z" fill="#fff" fill-rule="evenodd"/>
                <path id="Path_4072" data-name="Path 4072" d="M309.419,362.087l-.1.073a3.138,3.138,0,0,0-1.062,3.579l.214.591a5.353,5.353,0,0,1,.282-.727c.017-.036.034-.072.052-.107a6.191,6.191,0,0,0,.61-3.409Z" fill="#fff" fill-rule="evenodd"/>
            </g>
        </g>
    </g>
</svg>
