<svg width="29" height="29" viewBox="0 0 29 29" fill="none" xmlns="http://www.w3.org/2000/svg">
<path fill-rule="evenodd" clip-rule="evenodd" d="M14.086 1.00385e-05C17.3451 -0.000227449 20.5036 1.12961 23.023 3.19703C25.5425 5.26445 27.2672 8.14151 27.9032 11.338C28.5392 14.5345 28.0472 17.8526 26.511 20.727C24.9747 23.6014 22.4894 25.8541 19.4784 27.1015C16.4674 28.3488 13.117 28.5135 9.99817 27.5675C6.87933 26.6216 4.185 24.6234 2.37427 21.9136C0.563531 19.2037 -0.251579 15.9498 0.0678402 12.7064C0.387259 9.46292 1.82145 6.43055 4.12601 4.12599C5.43257 2.8161 6.98508 1.77729 8.69434 1.06922C10.4036 0.361154 12.2359 -0.00220191 14.086 1.00385e-05V1.00385e-05Z" fill="#997A8C"/>
<path d="M21.5059 8H11.4785C10.6544 8 9.98438 8.67037 9.98438 9.49414C9.98438 10.3182 10.6544 10.9883 11.4785 10.9883H21.5059C22.3296 10.9883 23 10.3182 23 9.49414C23 8.67037 22.3296 8 21.5059 8Z" fill="white"/>
<path d="M21.5059 12.9805H11.4785C10.6544 12.9805 9.98438 13.6508 9.98438 14.4746C9.98438 15.2987 10.6544 15.9688 11.4785 15.9688H21.5059C22.3296 15.9688 23 15.2987 23 14.4746C23 13.6508 22.3296 12.9805 21.5059 12.9805Z" fill="white"/>
<path d="M21.5059 17.9609H11.4785C10.6544 17.9609 9.98438 18.6313 9.98438 19.4551C9.98438 20.2792 10.6544 20.9492 11.4785 20.9492H21.5059C22.3296 20.9492 23 20.2792 23 19.4551C23 18.6313 22.3296 17.9609 21.5059 17.9609Z" fill="white"/>
<path d="M7.49414 8C6.67004 8 6 8.67037 6 9.49414C6 10.3182 6.67004 10.9883 7.49414 10.9883C8.31791 10.9883 8.98828 10.3182 8.98828 9.49414C8.98828 8.67037 8.31791 8 7.49414 8Z" fill="white"/>
<path d="M7.49414 12.9805C6.67004 12.9805 6 13.6508 6 14.4746C6 15.2987 6.67004 15.9688 7.49414 15.9688C8.31791 15.9688 8.98828 15.2987 8.98828 14.4746C8.98828 13.6508 8.31791 12.9805 7.49414 12.9805Z" fill="white"/>
<path d="M7.49414 17.9609C6.67004 17.9609 6 18.6313 6 19.4551C6 20.2792 6.67004 20.9492 7.49414 20.9492C8.31791 20.9492 8.98828 20.2792 8.98828 19.4551C8.98828 18.6313 8.31791 17.9609 7.49414 17.9609Z" fill="white"/>
</svg>
