<svg xmlns="http://www.w3.org/2000/svg" width="13.422" height="19.662" viewBox="0 0 13.422 19.662">
    <g id="ribbon-with-cross" transform="translate(-6.033)">
        <path id="Path_3996" data-name="Path 3996" d="M19.133,0H6.354a.322.322,0,0,0-.321.32V19.343a.317.317,0,0,0,.2.294.3.3,0,0,0,.122.025.307.307,0,0,0,.225-.095l6.166-5.16,6.163,5.16a.32.32,0,0,0,.547-.224V.32A.323.323,0,0,0,19.133,0Z" transform="translate(0)" fill="#fb0"/>
        <rect id="Rectangle_2426" data-name="Rectangle 2426" width="7.345" height="1.335" transform="translate(12.205 9.42) rotate(-90)" fill="#fff"/>
        <rect id="Rectangle_2427" data-name="Rectangle 2427" width="7.345" height="1.335" transform="translate(9.201 5.079)" fill="#fff"/>
    </g>
</svg>
